<svg width="669" height="508" viewBox="0 0 669 508" fill="none" xmlns="http://www.w3.org/2000/svg">
<g filter="url(#filter0_f_247_2111)">
<path fill-rule="evenodd" clip-rule="evenodd" d="M257.444 218.824C270.857 217.153 279.563 196.898 292.613 200.408C304.165 203.515 306.623 220.337 307.321 232.239C307.925 242.55 296.067 250.148 296.134 260.477C296.221 273.955 313.748 286.285 307.75 298.366C302.318 309.307 285.067 308.56 272.88 307.316C262.562 306.262 256.442 295.017 246.488 292.11C236.529 289.2 223.569 297.794 216.015 290.702C208.663 283.8 216.045 270.979 213.582 261.218C210.686 249.743 197.422 240.44 200.445 228.998C203.388 217.858 216.124 210.548 227.504 208.516C238.113 206.623 246.75 220.156 257.444 218.824Z" fill="#EBBD84"/>
</g>
<g filter="url(#filter1_b_247_2111)">
<rect x="174" y="64" width="495" height="365" rx="12" fill="#535362" fill-opacity="0.1"/>
<rect x="174.5" y="64.5" width="494" height="364" rx="11.5" stroke="#33333A"/>
</g>
<mask id="mask0_247_2111" style="mask-type:alpha" maskUnits="userSpaceOnUse" x="174" y="64" width="495" height="365">
<rect x="174.5" y="64.5" width="494" height="364" rx="11.5" fill="#535362" fill-opacity="0.1" stroke="#33333A"/>
</mask>
<g mask="url(#mask0_247_2111)">
<path d="M302.195 285.813C304.5 285.813 307.164 286.413 310.004 287.593C318.454 291.099 326.47 298.775 329.498 306.256L352.596 363.346C354.501 368.052 354.177 371.791 351.691 373.877C348.037 376.939 340.771 375.85 333.18 371.093L269.441 331.157C258.764 324.465 253.495 314.734 253.959 308.976C254.161 306.416 255.419 304.632 257.69 303.675L298.33 286.521C299.447 286.048 300.752 285.813 302.195 285.813ZM346.208 377.045C348.79 377.045 351.007 376.374 352.639 375.007C355.611 372.514 356.097 368.062 353.966 362.791L330.866 305.702C327.702 297.884 319.355 289.876 310.569 286.229C305.581 284.157 301.032 283.78 297.754 285.162L257.118 302.314C254.336 303.487 252.736 305.75 252.486 308.857C251.903 316.14 258.854 326.264 268.658 332.406L332.397 372.346C337.342 375.443 342.214 377.045 346.208 377.045Z" fill="url(#paint0_linear_247_2111)"/>
<path d="M305.242 284.192C315.562 284.192 330.84 296.127 334.752 308.226L354.792 370.211C356.392 375.165 355.754 379.003 352.993 381.022C348.738 384.132 340.463 382.344 332.401 376.575L265.719 328.848C254.64 320.918 249.708 310.266 250.689 304.27C251.138 301.523 252.723 299.715 255.401 298.898L302.046 284.638C303.038 284.334 304.11 284.192 305.242 284.192ZM347.636 384.024C350.069 384.024 352.195 383.431 353.862 382.215C357.179 379.791 358.007 375.365 356.194 369.758L336.156 307.771C331.523 293.439 312.476 279.904 301.612 283.228L254.968 297.488C251.757 298.469 249.772 300.731 249.233 304.031C247.993 311.601 254.711 322.785 264.858 330.047L331.543 377.774C337.26 381.867 342.999 384.024 347.636 384.024Z" fill="url(#paint1_linear_247_2111)"/>
<path d="M308.736 282.774C320.266 282.774 337.098 297.239 340.377 310.772L356.554 377.61C357.809 382.797 356.815 386.717 353.754 388.65C349.592 391.277 340.946 390.315 331.006 382.245L261.818 326.08C250.471 316.869 245.972 305.303 247.502 299.098C248.222 296.174 250.241 294.3 253.342 293.676L306.351 283.001C307.114 282.848 307.912 282.774 308.736 282.774ZM348.637 391.43C350.895 391.43 352.907 390.929 354.542 389.896C358.18 387.6 359.403 383.114 357.988 377.263L341.811 310.425C338.078 294.996 318.366 279.08 306.06 281.554L253.051 292.229C249.35 292.973 246.934 295.227 246.07 298.747C244.109 306.69 250.342 318.666 260.888 327.228L330.076 383.392C336.484 388.594 343.258 391.43 348.637 391.43Z" fill="url(#paint2_linear_247_2111)"/>
<path d="M312.7 281.605C325.593 281.605 343.955 298.969 346.351 313.96L357.783 385.531C358.648 390.934 357.257 394.911 353.869 396.735C349.004 399.351 339.396 397.686 328.905 388.063L257.759 322.819C246.283 312.295 242.326 299.829 244.431 293.443C245.474 290.271 247.946 288.392 251.574 288.008L311.283 281.679C311.747 281.629 312.219 281.605 312.7 281.605ZM348.952 399.33C351.039 399.33 352.944 398.907 354.568 398.033C358.551 395.89 360.212 391.367 359.241 385.3L347.807 313.727C345.173 297.226 324.95 278.746 311.126 280.212L251.418 286.54C247.17 286.991 244.267 289.218 243.029 292.982C240.342 301.138 246.117 314.145 256.763 323.908L327.907 389.152C335.03 395.683 342.803 399.33 348.952 399.33Z" fill="url(#paint3_linear_247_2111)"/>
<path d="M317.149 280.741C331.598 280.741 351.427 301.4 352.663 317.851L358.391 393.953C358.811 399.552 356.974 403.564 353.221 405.246C346.527 408.25 335.34 403.613 326.021 393.969L253.589 319.026C242.012 307.048 238.767 293.992 241.542 287.289C242.97 283.838 245.959 281.977 250.186 281.903L316.89 280.743C316.976 280.743 317.062 280.741 317.149 280.741ZM348.565 407.644C350.474 407.644 352.247 407.301 353.823 406.594C358.188 404.635 360.332 400.106 359.86 393.841L354.136 317.741C352.818 300.216 332.31 278.942 316.864 279.27L250.16 280.428C245.299 280.512 241.846 282.688 240.179 286.724C236.726 295.059 241.922 309.075 252.53 320.051L324.96 394.995C332.737 403.042 341.564 407.644 348.565 407.644Z" fill="url(#paint4_linear_247_2111)"/>
<path d="M248.149 275.336C248.507 275.336 248.872 275.349 249.245 275.373L323.191 280.279C339.262 281.345 359.494 305.025 359.27 322.509L358.237 402.837C358.161 408.703 355.888 412.61 351.663 414.139C343.919 416.946 331.824 411.086 322.251 399.893L249.333 314.661C237.944 301.346 235.453 287.459 238.878 280.622C240.618 277.15 243.812 275.336 248.149 275.336ZM347.371 416.326C349.073 416.326 350.682 416.068 352.168 415.529C356.951 413.796 359.63 409.296 359.714 402.858L360.745 322.529C360.982 304.046 340.33 279.936 323.29 278.806L249.344 273.902C243.89 273.54 239.699 275.692 237.558 279.962C233.24 288.576 237.62 303.241 248.214 315.621L321.127 400.852C329.471 410.605 339.411 416.326 347.371 416.326Z" fill="url(#paint5_linear_247_2111)"/>
<path d="M248.853 268.441L330.227 280.369C347.944 282.966 368.078 309.674 366.133 328.002L357.213 412.14C356.573 418.177 353.752 422.055 349.054 423.355C340.154 425.824 327.177 418.586 317.504 405.759L245.049 309.694C235.15 296.568 231.641 281.661 236.515 273.44C238.943 269.342 243.211 267.615 248.853 268.441ZM345.438 425.3C346.837 425.3 348.179 425.13 349.449 424.778C354.705 423.323 357.981 418.888 358.68 412.295L367.602 328.157C369.653 308.81 349.162 281.653 330.442 278.907L249.064 266.981C242.875 266.075 237.964 268.1 235.244 272.687C230.075 281.411 233.623 296.993 243.871 310.582L316.327 406.647C325.012 418.166 336.39 425.3 345.438 425.3Z" fill="url(#paint6_linear_247_2111)"/>
<path d="M249.092 261.139L338.009 281.109C357.394 285.464 377.125 315.34 373.198 334.388L355.174 421.802C353.898 427.996 350.456 431.803 345.219 432.81C335.057 434.764 321.263 425.991 311.676 411.472L240.782 304.089C231.357 289.814 228.78 274.044 234.513 265.739C237.592 261.279 242.635 259.687 249.092 261.139ZM342.342 434.55C343.423 434.55 344.475 434.456 345.497 434.259C351.284 433.147 355.233 428.828 356.619 422.098L374.643 334.688C378.786 314.596 358.763 284.26 338.335 279.671L249.415 259.698C242.421 258.128 236.697 259.974 233.298 264.9C227.232 273.688 229.805 290.137 239.551 304.902L310.445 412.285C319.406 425.861 332.066 434.55 342.342 434.55Z" fill="url(#paint7_linear_247_2111)"/>
<path d="M243.789 252.506C245.754 252.506 247.859 252.835 250.074 253.504L346.559 282.604C357.047 285.768 367.906 295.95 374.891 309.176C381.077 320.885 383.134 333.057 380.395 341.736L351.981 431.747C349.977 438.088 345.826 441.771 339.973 442.398C328.46 443.63 313.948 433.157 304.672 416.926L236.599 297.817C227.81 282.438 226.311 265.866 232.956 257.52C235.594 254.207 239.329 252.506 243.789 252.506ZM338.137 443.97C338.808 443.97 339.474 443.936 340.13 443.867C346.52 443.181 351.226 439.034 353.387 432.189L381.803 342.18C384.702 332.997 382.657 320.717 376.196 308.486C369.032 294.925 357.838 284.465 346.986 281.191L250.499 252.091C242.642 249.721 236.004 251.322 231.802 256.601C224.681 265.549 226.094 282.406 235.318 298.548L303.391 417.659C312.43 433.474 326.431 443.97 338.137 443.97Z" fill="url(#paint8_linear_247_2111)"/>
<path d="M251.912 245.591L355.891 284.959C367.643 289.409 378.901 301.587 385.278 316.749C390.566 329.318 391.431 341.475 387.655 350.104L347.487 441.881C344.651 448.362 339.684 451.856 333.117 451.989C320.196 452.224 305.11 439.918 296.393 422.003L232.581 290.856C224.461 274.17 224.205 257.266 231.941 248.792C236.647 243.635 243.74 242.499 251.912 245.591ZM332.722 453.467C332.865 453.467 333.005 453.467 333.147 453.463C340.227 453.32 345.8 449.416 348.839 442.475L389.007 350.695C392.945 341.697 392.083 329.117 386.639 316.177C380.111 300.656 368.529 288.166 356.415 283.579L252.433 244.211C243.66 240.888 235.997 242.162 230.852 247.796C222.71 256.713 222.872 274.277 231.253 291.503L295.067 422.65C303.935 440.87 319.359 453.467 332.722 453.467Z" fill="url(#paint9_linear_247_2111)"/>
<path d="M243.629 234.794C247.077 234.794 250.813 235.681 254.714 237.464L365.999 288.284C378.967 294.209 390.406 308.462 395.856 325.485C400.087 338.71 399.731 351.123 394.879 359.543L341.529 452.101C337.725 458.7 331.815 461.909 324.429 461.405C310.126 460.411 294.626 446.084 286.739 426.566L228.804 283.186C221.659 265.506 222.77 247.978 231.56 239.567C234.877 236.395 238.994 234.794 243.629 234.794ZM325.887 462.932C333.062 462.932 339.032 459.389 342.808 452.836L396.156 360.281C401.217 351.501 401.621 338.654 397.26 325.036C391.689 307.63 379.946 293.033 366.611 286.943L255.327 236.121C245.596 231.676 236.792 232.521 230.54 238.502C221.171 247.463 219.953 265.221 227.437 283.74L285.371 427.118C293.461 447.141 309.481 461.845 324.325 462.878C324.852 462.914 325.373 462.932 325.887 462.932Z" fill="url(#paint10_linear_247_2111)"/>
<path d="M258.605 229.2L376.862 292.704C390.74 300.157 402.39 316.906 406.542 335.371C409.663 349.265 407.991 361.927 401.953 370.109L333.937 462.272C328.992 468.973 321.983 471.794 313.669 470.44C298.029 467.886 282.376 451.448 275.604 430.464L225.362 274.797C219.267 255.913 221.84 238.278 231.922 229.873C238.977 223.988 248.453 223.751 258.605 229.2ZM317.536 472.236C324.593 472.236 330.737 469.094 335.124 463.148L403.139 370.987C409.434 362.457 411.198 349.357 407.98 335.048C403.74 316.183 391.799 299.051 377.558 291.405L259.304 227.9C248.74 222.23 238.416 222.536 230.976 228.739C220.432 237.534 217.675 255.79 223.958 275.25L274.198 430.917C281.133 452.405 297.268 469.257 313.432 471.895C314.827 472.124 316.199 472.236 317.536 472.236Z" fill="url(#paint11_linear_247_2111)"/>
<path d="M263.722 220.897L388.471 298.339C403.311 307.552 414.625 326.419 417.29 346.405C419.24 361.012 416.13 373.928 408.759 381.841L324.551 472.246C318.346 478.908 309.849 481.244 300.619 478.824C283.79 474.41 268.281 455.785 262.905 433.528L222.368 265.682C217.604 245.958 221.842 227.919 233.164 219.732C241.582 213.644 252.721 214.069 263.722 220.897ZM307.602 481.235C314.495 481.235 320.732 478.512 325.632 473.254L409.839 382.848C417.513 374.61 420.76 361.256 418.755 346.211C416.031 325.804 404.45 306.521 389.247 297.084L264.501 219.644C252.967 212.484 241.226 212.08 232.299 218.535C220.489 227.076 216.029 245.718 220.934 266.03L261.473 433.875C266.97 456.636 282.912 475.706 300.245 480.252C302.758 480.91 305.219 481.235 307.602 481.235Z" fill="url(#paint12_linear_247_2111)"/>
<path d="M249.288 205.24C256.069 205.24 263.248 207.733 270.195 212.663L400.777 305.314C416.39 316.391 427.095 337.304 428.051 358.59C428.743 373.996 424.042 387.186 415.154 394.775L313.191 481.851C305.401 488.502 295.404 490.066 285.052 486.25C266.988 479.593 252.321 459.229 248.555 435.577L219.936 255.851C216.625 235.058 222.561 217.177 235.425 209.189C239.676 206.547 244.377 205.24 249.288 205.24ZM295.974 489.775C302.64 489.777 308.869 487.48 314.148 482.972L416.111 395.897C425.346 388.01 430.236 374.388 429.526 358.524C428.551 336.802 417.602 315.442 401.629 304.111L271.051 211.46C258.566 202.602 245.298 201.317 234.647 207.936C221.269 216.243 215.073 234.694 218.48 256.084L247.097 435.81C250.945 459.971 265.992 480.798 284.541 487.633C288.428 489.067 292.269 489.775 295.974 489.775Z" fill="url(#paint13_linear_247_2111)"/>
<path d="M278.158 204.623L413.724 313.759C429.878 326.764 439.712 349.603 438.776 371.944C438.094 388.264 431.603 401.743 420.968 408.929L299.675 490.882C290 497.421 278.313 497.944 266.768 492.353C248.074 483.3 234.291 460.816 232.466 436.41L218.198 245.319C216.593 223.854 224.515 205.833 238.872 198.289C250.953 191.942 265.274 194.249 278.158 204.623ZM282.551 497.68C288.906 497.68 295.01 495.818 300.501 492.106L421.794 410.152C432.821 402.701 439.548 388.797 440.251 372.005C441.204 349.211 431.154 325.897 414.647 312.61L279.083 203.473C265.72 192.716 250.813 190.35 238.184 196.984C223.3 204.804 215.077 223.367 216.725 245.427L230.995 436.519C232.857 461.434 246.972 484.407 266.125 493.682C271.638 496.352 277.185 497.68 282.551 497.68Z" fill="url(#paint14_linear_247_2111)"/>
<path d="M287.757 196.928L427.242 323.807C443.673 338.753 452.386 363.365 449.43 386.508C447.217 403.872 438.687 417.648 426.03 424.308L283.834 499.121C271.924 505.386 258.357 504.543 245.635 496.746C226.431 484.973 214.242 461.051 214.581 435.805L217.291 234.113C217.585 212.065 227.708 194.053 243.704 187.106C258.012 180.895 274.068 184.475 287.757 196.928ZM267.251 504.758C273.19 504.758 279.022 503.32 284.522 500.426L426.716 425.615C439.807 418.726 448.617 404.542 450.896 386.696C453.907 363.091 445.013 337.977 428.234 322.716L288.751 195.836C274.612 182.974 257.977 179.299 243.116 185.754C226.578 192.934 216.118 211.455 215.814 234.096L213.105 435.786C212.76 461.543 225.224 485.966 244.865 498.004C252.195 502.499 259.808 504.758 267.251 504.758Z" fill="url(#paint15_linear_247_2111)"/>
<path d="M299.132 189.739L441.24 335.585C457.922 352.706 465.097 378.282 459.969 402.336C456.011 420.888 445.137 434.945 430.133 440.905L265.497 506.309C251.179 511.998 235.17 509.341 221.578 499.022C202.632 484.632 192.14 458.929 194.846 433.532L217.377 222.281C219.818 199.388 232.07 181.984 250.152 175.73C266.696 170.006 285.004 175.242 299.132 189.739ZM250.204 510.724C255.572 510.724 260.91 509.718 266.04 507.681L430.679 442.275C446.149 436.131 457.348 421.686 461.411 402.644C466.641 378.114 459.317 352.025 442.297 334.556L300.187 188.711C285.655 173.793 266.769 168.418 249.669 174.334C231.035 180.783 218.412 198.649 215.908 222.126L193.38 433.377C190.619 459.274 201.336 485.501 220.685 500.195C229.845 507.15 240.078 510.724 250.204 510.724Z" fill="url(#paint16_linear_247_2111)"/>
<path d="M312.413 183.248L455.587 349.224C471.971 368.218 477.613 395.146 470.31 419.497C464.347 439.382 450.769 453.665 433.054 458.69L244.485 512.171C227.188 517.076 209.001 512.199 194.586 498.789C176.099 481.596 167.91 454.983 173.213 429.338L218.611 209.881C223.435 186.552 238.338 169.504 258.475 164.278C277.702 159.29 297.862 166.381 312.413 183.248ZM231.15 515.514C235.735 515.514 240.34 514.881 244.888 513.591L433.455 460.109C451.666 454.944 465.613 440.296 471.723 419.922C479.168 395.09 473.416 367.633 456.702 348.26L313.531 182.284C298.606 164.983 277.885 157.718 258.106 162.85C237.413 168.221 222.107 185.692 217.166 209.584L171.768 429.04C166.359 455.185 174.718 482.328 193.583 499.872C204.601 510.123 217.787 515.514 231.15 515.514Z" fill="url(#paint17_linear_247_2111)"/>
<path d="M278.849 152.071C297.474 152.071 315.241 161.218 327.751 177.662L470.155 364.842C485.948 385.605 489.867 413.663 480.384 438.074C472.091 459.424 455.388 473.832 434.556 477.611L220.653 516.392C199.988 520.138 179.611 512.596 164.741 495.705C147.464 476.08 141.693 448.202 149.683 422.954L221.181 196.993C228.682 173.295 246.557 156.82 268.999 152.923C272.292 152.352 275.584 152.071 278.849 152.071ZM210.251 518.81C213.78 518.81 217.343 518.491 220.916 517.841L434.817 479.06C456.166 475.191 473.277 460.446 481.762 438.609C491.428 413.723 487.432 385.115 471.328 363.95L328.925 176.767C313.884 156.997 291.388 147.538 268.747 151.47C245.75 155.464 227.444 172.316 219.777 196.546L148.277 422.51C140.131 448.248 146.017 476.668 163.635 496.68C176.286 511.051 192.853 518.81 210.251 518.81Z" fill="url(#paint18_linear_247_2111)"/>
<path d="M288.029 141.629C310.823 141.629 331.896 153.143 345.269 173.213L484.765 382.56C499.912 405.289 501.896 433.549 490.071 458.158C479.22 480.744 458.4 495.487 434.375 497.588L193.856 518.63C169.835 520.727 146.767 509.832 132.155 489.471C116.239 467.289 113.286 439.114 124.255 414.101L225.278 183.71C235.801 159.715 257.033 144.079 282.074 141.887C284.069 141.715 286.058 141.629 288.029 141.629ZM187.983 520.362C189.976 520.362 191.973 520.276 193.983 520.1L434.504 499.057C459.051 496.908 480.322 481.859 491.401 458.796C503.451 433.714 501.432 404.909 485.995 381.742L346.496 172.396C331.663 150.132 307.536 138.178 281.945 140.419C256.358 142.657 234.668 158.619 223.928 183.117L122.903 413.507C111.725 439.004 114.734 467.723 130.958 490.331C144.653 509.417 165.642 520.362 187.983 520.362Z" fill="url(#paint19_linear_247_2111)"/>
<path d="M365.09 170.157L499.222 402.481C513.206 426.702 513.206 455.621 499.222 479.841C485.238 504.063 460.193 518.521 432.227 518.521H163.958C135.993 518.521 110.947 504.063 96.9656 479.841C82.9796 455.621 82.9795 426.702 96.9634 402.481L231.096 170.157C245.08 145.936 270.125 131.477 298.093 131.475C326.058 131.475 351.106 145.936 365.09 170.157ZM163.958 519.996H432.227C460.728 519.996 486.25 505.262 500.499 480.579C514.75 455.897 514.75 426.427 500.499 401.743L366.367 169.418C352.118 144.737 326.591 130 298.093 130C269.592 130 244.07 144.737 229.819 169.418L95.6867 401.743C81.4375 426.427 81.4375 455.897 95.6867 480.58C109.936 505.262 135.458 519.996 163.958 519.996Z" fill="url(#paint20_linear_247_2111)"/>
<path d="M631.07 60.8939C631.07 62.6443 630.614 64.6664 629.719 66.8228C627.056 73.2379 621.229 79.3239 615.549 81.6227L572.207 99.1587C568.634 100.604 565.795 100.359 564.212 98.471C561.887 95.6973 562.714 90.1811 566.326 84.4177L596.644 36.0276C601.725 27.9211 609.113 23.9211 613.484 24.2731C615.428 24.427 616.782 25.3816 617.509 27.1057L630.533 57.9598C630.891 58.808 631.07 59.7986 631.07 60.8939ZM561.807 94.3089C561.807 96.2688 562.316 97.952 563.354 99.1914C565.247 101.448 568.626 101.816 572.628 100.198L615.97 82.6608C621.905 80.2588 627.985 73.9223 630.754 67.2518C632.327 63.4646 632.614 60.0114 631.564 57.5227L618.542 26.6718C617.652 24.5596 615.934 23.3447 613.575 23.1548C608.045 22.7127 600.36 27.9899 595.696 35.4332L565.374 83.8233C563.023 87.5777 561.807 91.2765 561.807 94.3089Z" fill="url(#paint21_linear_247_2111)"/>
<path d="M632.3 63.2075C632.3 71.0422 623.239 82.6411 614.054 85.6112L566.995 100.825C563.234 102.04 560.32 101.556 558.787 99.4599C556.426 96.2294 557.783 89.9469 562.163 83.8265L598.398 33.2015C604.418 24.7905 612.505 21.0459 617.057 21.7908C619.143 22.1314 620.515 23.3349 621.135 25.3685L631.962 60.7809C632.192 61.5341 632.3 62.3479 632.3 63.2075ZM556.508 95.3927C556.508 97.2396 556.958 98.8541 557.882 100.12C559.722 102.638 563.082 103.267 567.339 101.89L614.399 86.6771C625.28 83.1601 635.555 68.6991 633.032 60.4518L622.206 25.0394C621.461 22.6013 619.744 21.095 617.239 20.6856C611.491 19.7442 603 24.8445 597.487 32.5482L561.253 83.1749C558.145 87.5155 556.508 91.8724 556.508 95.3927Z" fill="url(#paint22_linear_247_2111)"/>
<path d="M633.377 65.8601C633.377 74.6133 622.395 87.3928 612.121 89.8816L561.378 102.163C557.44 103.116 554.463 102.361 552.996 100.038C551.002 96.8779 551.732 90.3138 557.859 82.7673L600.499 30.2397C607.492 21.6256 616.273 18.2101 620.984 19.371C623.204 19.9179 624.627 21.4504 625.1 23.8049L633.205 64.0492C633.321 64.6288 633.377 65.2346 633.377 65.8601ZM550.886 96.1526C550.886 97.8669 551.266 99.3945 552.05 100.636C553.794 103.398 557.199 104.326 561.641 103.252L612.384 90.9704C624.098 88.1361 636.182 73.1708 634.304 63.8282L626.199 23.5839C625.634 20.7742 623.923 18.9404 621.251 18.2838C615.22 16.7954 606.128 21.5274 599.628 29.534L556.988 82.0616C553.039 86.9261 550.886 92.0691 550.886 96.1526Z" fill="url(#paint23_linear_247_2111)"/>
<path d="M634.264 68.8696C634.264 78.6576 621.082 92.598 609.7 94.4171L555.363 103.097C551.262 103.753 548.243 102.697 546.857 100.125C544.871 96.431 546.135 89.1367 553.441 81.1726L602.974 27.1583C610.964 18.446 620.428 15.4414 625.276 17.0395C627.685 17.8319 629.111 19.7084 629.402 22.4624L634.208 67.7939C634.246 68.1459 634.264 68.5045 634.264 68.8696ZM544.888 96.3917C544.888 97.9767 545.209 99.4225 545.872 100.655C547.499 103.68 550.933 104.94 555.539 104.203L609.877 95.5223C622.404 93.5231 636.435 78.1697 635.321 67.6743L630.518 22.3445C630.175 19.1189 628.484 16.915 625.627 15.9752C619.434 13.9351 609.56 18.3199 602.147 26.4018L552.614 80.4145C547.656 85.8227 544.888 91.7237 544.888 96.3917Z" fill="url(#paint24_linear_247_2111)"/>
<path d="M634.92 72.2469C634.92 83.2171 619.236 98.2709 606.746 99.2091L548.969 103.558C544.719 103.877 541.673 102.482 540.396 99.6332C538.115 94.5508 541.635 86.0579 548.958 78.9829L605.854 23.9928C614.947 15.2035 624.86 12.7393 629.949 14.8465C632.569 15.9305 633.982 18.1998 634.037 21.409L634.918 72.0505C634.918 72.116 634.92 72.1814 634.92 72.2469ZM538.575 96.0981C538.575 97.5472 538.836 98.8931 539.373 100.09C540.859 103.404 544.298 105.031 549.054 104.673L606.83 100.327C620.135 99.327 636.285 83.7575 636.036 72.0308L635.157 21.3894C635.093 17.6988 633.441 15.0774 630.378 13.8117C624.049 11.1903 613.408 15.1347 605.076 23.1888L548.178 78.1774C542.069 84.0817 538.575 90.7833 538.575 96.0981Z" fill="url(#paint25_linear_247_2111)"/>
<path d="M639.023 19.8627C639.023 20.1345 639.013 20.4112 638.995 20.6945L635.27 76.8341C634.461 89.0356 616.483 104.396 603.209 104.225L542.225 103.441C537.771 103.384 534.805 101.658 533.644 98.4503C531.513 92.5706 535.962 83.3884 544.46 76.1202L609.168 20.7616C619.277 12.1148 629.819 10.2237 635.01 12.8238C637.646 14.1451 639.023 16.57 639.023 19.8627ZM531.983 95.192C531.983 96.4838 532.18 97.7053 532.589 98.8334C533.904 102.465 537.321 104.499 542.208 104.562L603.195 105.345C617.227 105.525 635.531 89.8461 636.388 76.9094L640.112 20.7698C640.387 16.6289 638.753 13.4476 635.511 11.8217C628.971 8.54373 617.837 11.8692 608.439 19.9118L543.731 75.2671C536.327 81.602 531.983 89.1485 531.983 95.192Z" fill="url(#paint26_linear_247_2111)"/>
<path d="M644.258 20.3971L635.202 82.1757C633.23 95.6265 612.953 110.913 599.039 109.436L535.162 102.664C530.579 102.178 527.635 100.036 526.648 96.4697C524.773 89.7124 530.268 79.8605 540.007 72.517L612.939 17.5088C622.904 9.9934 634.221 7.32943 640.463 11.0298C643.573 12.8735 644.885 16.1138 644.258 20.3971ZM525.171 93.7239C525.171 94.7865 525.3 95.805 525.567 96.7694C526.672 100.76 530.039 103.247 535.044 103.777L598.921 110.551C613.61 112.108 634.227 96.5516 636.312 82.3394L645.366 20.5576C646.054 15.8584 644.517 12.1301 641.034 10.0654C634.411 6.14073 622.581 8.83417 612.264 16.6148L539.332 71.623C530.587 78.2166 525.171 86.8552 525.171 93.7239Z" fill="url(#paint27_linear_247_2111)"/>
<path d="M649.802 20.5783L634.64 88.0843C631.335 102.801 608.652 117.781 594.191 114.799L527.827 101.116C523.124 100.147 520.234 97.5334 519.47 93.558C517.986 85.8428 524.647 75.3704 535.669 68.0924L617.194 14.2696C628.032 7.1144 640.004 5.15781 646.31 9.50987C649.696 11.848 650.904 15.6761 649.802 20.5783ZM518.148 91.3738C518.148 92.1941 518.22 92.9931 518.369 93.7692C519.214 98.1622 522.493 101.16 527.602 102.213L593.964 115.896C609.217 119.042 632.248 103.841 635.733 88.3316L650.896 20.8239C652.088 15.514 650.686 11.1685 646.947 8.58802C640.274 3.98217 627.786 5.93553 616.577 13.3347L535.052 67.1574C524.745 73.9606 518.148 83.5718 518.148 91.3738Z" fill="url(#paint28_linear_247_2111)"/>
<path d="M656.356 16.5525C656.356 18.0441 656.105 19.6422 655.598 21.3237L633.505 94.5752C631.103 102.538 623.373 110.782 613.331 116.085C604.442 120.781 595.201 122.343 588.612 120.263L520.276 98.6915C515.462 97.1704 512.666 94.0185 512.19 89.5748C511.254 80.8346 519.206 69.8169 531.528 62.7747L621.955 11.0936C633.631 4.42143 646.213 3.28346 652.549 8.32811C655.064 10.3306 656.356 13.1665 656.356 16.5525ZM510.996 88.1814C510.996 88.6906 511.022 89.1965 511.075 89.6943C511.595 94.5457 514.744 98.1184 519.941 99.759L588.275 121.333C595.247 123.533 604.57 121.981 613.855 117.076C624.151 111.636 632.092 103.138 634.578 94.8994L656.67 21.6463C658.47 15.6814 657.255 10.6417 653.247 7.45216C646.453 2.04565 633.656 3.11812 621.4 10.121L530.972 61.8021C518.965 68.6642 510.996 79.2939 510.996 88.1814Z" fill="url(#paint29_linear_247_2111)"/>
<path d="M661.606 22.719L631.718 101.66C628.34 110.582 619.094 119.129 607.583 123.971C598.041 127.985 588.811 128.642 582.26 125.775L512.583 95.2795C507.663 93.1264 505.01 89.3556 504.909 84.3699C504.731 74.5605 514.073 63.1073 527.674 56.4892L627.241 8.04341C639.909 1.87882 652.743 1.68398 659.176 7.55713C663.091 11.1298 663.954 16.5151 661.606 22.719ZM503.787 84.0702C503.787 84.1783 503.787 84.2847 503.79 84.3928C503.898 89.7682 506.862 93.9991 512.132 96.3061L581.811 126.802C588.642 129.791 598.193 129.136 608.017 125.004C619.801 120.048 629.283 111.255 632.766 102.058L662.654 23.1152C665.177 16.4545 664.209 10.637 659.932 6.73026C653.162 0.549288 639.827 0.672106 626.75 7.03482L527.183 55.4822C513.351 62.2149 503.787 73.9252 503.787 84.0702Z" fill="url(#paint30_linear_247_2111)"/>
<path d="M669.802 16.4309C669.802 19.049 669.129 21.8849 667.775 24.8468L629.193 109.334C624.695 119.179 613.874 127.864 600.95 132.001C590.91 135.214 581.485 134.943 575.093 131.259L504.824 90.7565C499.813 87.8682 497.377 83.3819 497.76 77.774C498.515 66.9151 509.392 55.1475 524.21 49.1598L633.063 5.17577C646.486 -0.248747 659.793 0.594484 666.179 7.2683C668.587 9.78654 669.802 12.9122 669.802 16.4309ZM496.601 78.8808C496.601 84.3283 499.291 88.8604 504.265 91.7274L574.533 132.229C581.199 136.072 590.953 136.378 601.291 133.067C614.506 128.838 625.587 119.922 630.211 109.799L668.795 25.3119C672.17 17.9242 671.528 11.2405 666.988 6.49384C660.184 -0.618788 646.702 -1.54387 632.643 4.13773L523.791 48.1217C508.589 54.2633 497.426 66.4255 496.642 77.6954C496.614 78.0949 496.601 78.4911 496.601 78.8808Z" fill="url(#paint31_linear_247_2111)"/>
<path d="M674.05 27.8005L625.838 117.581C620.179 128.117 607.464 136.962 593.445 140.114C582.897 142.483 573.284 141.214 567.072 136.63L497.102 84.9929C492.015 81.2385 489.873 75.9171 490.901 69.6051C492.84 57.7311 505.32 45.8473 521.251 40.706L639.433 2.56247C653.769 -2.06466 667.158 -0.11128 673.539 7.54329C678.007 12.8991 678.187 20.0935 674.05 27.8005ZM489.537 72.5409C489.537 77.8983 491.923 82.5631 496.437 85.8934L566.406 137.53C572.881 142.31 582.827 143.649 593.69 141.206C608.012 137.987 621.019 128.921 626.824 118.11L675.037 28.331C679.341 20.3113 679.109 12.4733 674.4 6.82448C667.723 -1.18049 653.863 -3.27302 639.089 1.49655L520.907 39.6385C504.593 44.9042 491.799 57.1532 489.796 69.4251C489.622 70.4844 489.537 71.5258 489.537 72.5409Z" fill="url(#paint32_linear_247_2111)"/>
<path d="M680.353 31.6856L621.56 126.394C614.565 137.661 600.241 146.251 585.068 148.274C573.978 149.754 564.172 147.393 558.165 141.797L489.529 77.8669C484.472 73.1563 482.698 66.7051 484.535 59.6973C487.887 46.9211 502.027 35.147 518.924 31.0651L646.352 0.289568C661.327 -3.32733 675.022 -0.109937 681.237 8.48612C685.86 14.8767 685.537 23.3335 680.353 31.6856ZM482.705 64.999C482.705 70.232 484.773 74.9672 488.764 78.6872L557.4 142.617C563.655 148.443 573.793 150.909 585.215 149.386C600.708 147.318 615.347 138.526 622.512 126.984L681.305 32.2767C686.741 23.5202 687.047 14.6065 682.146 7.82955C675.662 -1.13655 661.509 -4.52257 646.089 -0.799253L518.661 29.9779C501.38 34.1514 486.903 46.2547 483.451 59.414C482.952 61.3215 482.705 63.1898 482.705 64.999Z" fill="url(#paint33_linear_247_2111)"/>
<path d="M692.24 20.7274C692.24 25.8752 690.347 31.326 686.604 36.5998L616.264 135.738C607.854 147.59 591.977 155.718 575.817 156.444C564.121 156.969 554.107 153.4 548.345 146.652L482.238 69.2419C477.188 63.3278 476.001 55.7387 478.898 47.8795C483.952 34.1651 499.412 23.0295 517.368 20.1707L653.816 -1.55687C669.602 -4.07019 683.177 0.435839 689.242 10.2026C691.248 13.4298 692.24 16.9992 692.24 20.7274ZM476.222 56.171C476.22 61.232 477.964 65.9607 481.386 69.9689L547.494 147.379C553.482 154.39 563.823 158.102 575.867 157.564C592.359 156.823 608.575 148.511 617.178 136.384L687.518 37.2499C694.242 27.7713 695.218 17.6983 690.193 9.6115C683.886 -0.54495 669.879 -5.24907 653.64 -2.66206L517.192 19.0639C498.848 21.9849 483.036 33.4087 477.848 47.4915C476.759 50.442 476.222 53.3581 476.222 56.171Z" fill="url(#paint34_linear_247_2111)"/>
<path d="M692.709 42.645L609.853 145.567C599.98 157.83 582.64 165.297 565.679 164.586C553.289 164.069 543.056 159.14 537.6 151.067L475.381 58.9807C470.417 51.6356 470.02 42.7628 474.265 33.9981C481.138 19.8056 498.208 9.34135 516.737 7.95616L661.812 -2.87649C678.109 -4.09468 691.791 1.91931 697.518 12.8191C702.337 21.9915 700.585 32.8635 692.709 42.645ZM470.221 45.9802C470.221 50.8055 471.635 55.4392 474.453 59.6078L536.672 151.694C542.329 160.065 552.885 165.172 565.633 165.706C582.938 166.43 600.638 158.8 610.726 146.268L693.582 43.3474C701.749 33.2024 703.545 21.8851 698.509 12.2968C692.572 0.997454 678.479 -5.24574 661.731 -3.99481L516.654 6.83952C497.739 8.25255 480.298 18.9689 473.256 33.5102C471.229 37.6953 470.221 41.9065 470.221 45.9802Z" fill="url(#paint35_linear_247_2111)"/>
<path d="M698.551 49.9325L602.224 155.829C590.878 168.304 572.192 174.919 554.622 172.674C541.44 170.994 530.981 164.519 525.924 154.909L469.126 46.9542C464.37 37.9128 465.01 27.6122 470.929 17.9535C479.867 3.37462 498.029 -5.87964 517.196 -5.62257L670.32 -3.56447C687.059 -3.34178 700.734 4.34394 706.007 16.4881C710.723 27.3503 708.005 39.5403 698.551 49.9325ZM464.847 34.3646C464.847 38.8739 465.938 43.3013 468.136 47.4765L524.932 155.43C530.162 165.369 540.93 172.057 554.479 173.788C572.4 176.073 591.467 169.321 603.053 156.583L699.38 50.6873C709.145 39.9529 711.935 27.3241 707.034 16.0411C701.583 3.48596 687.522 -4.45511 670.333 -4.68597L517.21 -6.74249C497.656 -7.00447 479.114 2.45769 469.974 17.369C466.562 22.9343 464.847 28.7141 464.847 34.3646Z" fill="url(#paint36_linear_247_2111)"/>
<path d="M704.008 58.569L593.282 166.457C580.284 179.122 560.866 184.569 542.605 180.676C528.52 177.671 517.848 169.416 513.323 158.025L463.669 33.033C459.35 22.1627 461.367 10.0087 469.201 -0.30986C480.126 -14.6939 499.64 -22.6596 518.921 -20.6048L679.302 -3.4994C696.682 -1.64593 709.896 7.65578 714.644 21.3833C718.99 33.9433 715.014 47.8428 704.008 58.569ZM460.317 21.4226C460.317 25.4979 461.08 29.5504 462.628 33.4456L512.283 158.439C516.948 170.183 527.915 178.686 542.371 181.771C560.994 185.741 580.801 180.181 594.064 167.259L704.789 59.3696C716.114 48.3372 720.195 33.999 715.703 21.0165C710.808 6.86985 697.244 -2.71348 679.42 -4.61444L519.039 -21.7181C499.378 -23.8139 479.466 -15.678 468.311 -0.987747C463.03 5.96605 460.317 13.7353 460.317 21.4226Z" fill="url(#paint37_linear_247_2111)"/>
<path d="M708.936 68.652L582.928 177.349C568.508 189.788 548.064 194.071 529.577 188.527C514.48 184 503.637 173.691 499.822 160.242L459.219 17.0806C455.495 3.9491 459.197 -9.85864 469.378 -20.8026C482.431 -34.838 502.636 -41.055 522.105 -37.0287L688.717 -2.56265C706.428 1.10009 719.371 12.4141 723.338 27.702C727.126 42.2989 721.742 57.6048 708.936 68.652ZM456.681 6.95688C456.681 10.4379 457.162 13.9336 458.141 17.3868L498.744 160.546C502.665 174.372 513.786 184.961 529.254 189.599C548.107 195.251 568.952 190.885 583.66 178.195L709.668 69.5001C722.803 58.1697 728.319 42.4381 724.422 27.422C720.345 11.7117 707.081 0.0915252 688.943 -3.65962L522.332 -38.1257C502.482 -42.2322 481.876 -35.8858 468.556 -21.564C460.774 -13.1988 456.681 -3.1881 456.681 6.95688Z" fill="url(#paint38_linear_247_2111)"/>
<path d="M732.606 43.1697C732.606 57.3098 725.662 70.7983 713.177 80.2965L571.07 188.409C555.308 200.399 534.006 203.374 515.473 196.175C499.264 189.879 488.326 177.198 485.457 161.383L456.014 -1.01237C453.17 -16.7014 458.896 -32.171 471.719 -43.4605C486.619 -56.5773 507.784 -60.9588 526.952 -54.8924L698.502 -0.611188C716.493 5.0835 729 18.6538 731.959 35.692C732.393 38.1922 732.606 40.6908 732.606 43.1697ZM454.179 -8.90927C454.179 -6.23058 454.421 -3.52565 454.914 -0.812576L484.357 161.581C487.294 177.789 498.489 190.78 515.067 197.221C533.96 204.559 555.679 201.525 571.748 189.299L713.857 81.1872C728.866 69.7684 736.047 52.6893 733.063 35.5004C730.03 18.0414 717.236 4.14362 698.84 -1.67714L527.289 -55.96C507.749 -62.1442 486.173 -57.6759 470.979 -44.3004C460.069 -34.6958 454.179 -22.1177 454.179 -8.90927Z" fill="url(#paint39_linear_247_2111)"/>
<path d="M740.534 50.1392C740.534 67.4443 731.792 83.4428 716.555 93.596L557.62 199.501C540.364 211 518.908 212.506 500.226 203.529C483.078 195.291 471.885 179.485 470.291 161.245L454.315 -21.357C452.723 -39.5938 460.995 -57.1068 476.453 -68.1998C493.293 -80.2834 514.684 -82.5249 533.674 -74.1974L708.586 2.49906C726.803 10.4877 738.674 26.6073 740.337 45.6185C740.468 47.1331 740.534 48.6427 740.534 50.1392ZM453 -25.8155C453 -24.3026 453.065 -22.7864 453.199 -21.2604L469.175 161.343C470.806 179.979 482.232 196.128 499.741 204.539C518.783 213.687 540.652 212.154 558.24 200.434L717.176 94.5277C734.078 83.266 743.154 64.949 741.452 45.5203C739.753 26.0949 727.635 9.62809 709.036 1.47411L534.124 -75.224C514.767 -83.7104 492.964 -81.4263 475.8 -69.1085C461.31 -58.7114 453 -42.7767 453 -25.8155Z" fill="url(#paint40_linear_247_2111)"/>
<path d="M718.875 108.644L542.496 210.477C524.107 221.093 502.152 221.093 483.764 210.477C465.375 199.86 454.398 180.846 454.398 159.614L454.398 -44.0549C454.398 -65.2863 465.375 -84.3008 483.764 -94.9156C502.152 -105.534 524.107 -105.534 542.496 -94.9173L718.875 6.91567C737.264 17.5322 748.241 36.5467 748.243 57.7798C748.243 79.0112 737.264 98.0273 718.875 108.644ZM453.278 -44.0549L453.278 159.614C453.278 181.252 464.465 200.628 483.204 211.446C501.942 222.266 524.316 222.266 543.056 211.446L719.437 109.613C738.175 98.7952 749.363 79.4156 749.363 57.7798C749.363 36.1423 738.175 16.7659 719.437 5.94637L543.056 -95.8866C524.316 -106.705 501.942 -106.705 483.203 -95.8866C464.465 -85.0687 453.278 -65.6924 453.278 -44.0549Z" fill="url(#paint41_linear_247_2111)"/>
<path d="M668.625 315.724C669.245 316.306 669.811 317.139 670.278 318.173C671.668 321.248 671.89 325.336 670.818 328.114L662.637 349.308C661.963 351.055 660.933 351.98 659.737 351.914C657.981 351.817 656.3 349.691 655.456 346.496L648.371 319.669C647.185 315.175 648.221 311.226 649.798 309.793C650.498 309.155 651.287 308.992 652.139 309.307L667.406 314.94C667.826 315.095 668.236 315.36 668.625 315.724ZM657.462 351.384C658.157 352.035 658.923 352.414 659.708 352.458C661.136 352.536 662.39 351.46 663.146 349.504L671.326 328.31C672.447 325.407 672.219 321.146 670.774 317.949C669.954 316.133 668.825 314.884 667.594 314.429L652.329 308.797C651.284 308.411 650.283 308.616 649.431 309.39C647.438 311.204 646.756 315.682 647.846 319.808L654.93 346.636C655.48 348.717 656.387 350.377 657.462 351.384Z" fill="url(#paint42_linear_247_2111)"/>
<path d="M669.855 316.057C672.633 318.659 673.735 325.726 671.737 329.969L661.497 351.709C660.678 353.447 659.538 354.319 658.286 354.166C656.356 353.93 654.58 351.362 653.865 347.775L647.952 318.109C646.97 313.18 648.329 309.069 650.105 307.702C650.919 307.076 651.802 306.989 652.729 307.444L668.882 315.371C669.225 315.539 669.55 315.771 669.855 316.057ZM656.087 353.623C656.742 354.237 657.464 354.613 658.219 354.706C659.724 354.89 661.063 353.908 661.989 351.941L672.229 330.201C674.597 325.175 672.883 316.727 669.121 314.882L652.968 306.955C651.856 306.41 650.751 306.518 649.774 307.27C647.531 308.995 646.518 313.701 647.418 318.215L653.331 347.882C653.838 350.425 654.839 352.453 656.087 353.623Z" fill="url(#paint43_linear_247_2111)"/>
<path d="M671.152 316.556C674.255 319.464 675.138 327.604 672.607 332.073L660.104 354.146C659.134 355.858 657.878 356.663 656.566 356.411C654.783 356.069 652.698 353.629 652.058 348.949L647.599 316.38C646.868 311.039 648.574 306.79 650.551 305.506C651.482 304.9 652.499 304.905 653.491 305.519L670.453 316.016C670.697 316.167 670.93 316.348 671.152 316.556ZM654.488 355.869C655.095 356.438 655.763 356.811 656.464 356.946C658.023 357.245 659.483 356.346 660.578 354.414L673.081 332.342C675.968 327.247 674.676 317.991 670.739 315.553L653.777 305.056C652.593 304.323 651.375 304.321 650.254 305.05C647.723 306.694 646.38 311.49 647.06 316.454L651.519 349.024C651.931 352.04 653.04 354.512 654.488 355.869Z" fill="url(#paint44_linear_247_2111)"/>
<path d="M672.514 317.242C675.985 320.493 676.548 329.799 673.412 334.438L658.438 356.588C657.308 358.261 655.931 358.98 654.558 358.617C652.589 358.094 650.422 355.222 650.026 349.986L647.33 314.479C646.895 308.751 648.974 304.397 651.151 303.209C652.232 302.618 653.371 302.736 654.445 303.548L672.114 316.904C672.252 317.007 672.385 317.12 672.514 317.242ZM652.58 358.075C653.142 358.602 653.761 358.968 654.419 359.143C656.032 359.57 657.62 358.772 658.889 356.894L673.863 334.743C677.316 329.637 676.533 319.561 672.442 316.469L654.773 303.113C653.516 302.163 652.172 302.031 650.89 302.731C648.109 304.249 646.383 309.207 646.787 314.52L649.482 350.027C649.753 353.582 650.925 356.524 652.58 358.075Z" fill="url(#paint45_linear_247_2111)"/>
<path d="M673.93 318.131C677.819 321.775 677.946 332.338 674.13 337.078L656.477 359.009C655.178 360.622 653.672 361.238 652.237 360.745C649.677 359.865 647.836 355.795 647.76 350.848L647.164 312.406C647.068 306.262 649.488 301.928 651.926 300.824C653.18 300.255 654.454 300.508 655.611 301.554L673.859 318.066C673.883 318.088 673.906 318.109 673.93 318.131ZM650.379 360.216C650.893 360.697 651.456 361.052 652.059 361.259C653.728 361.833 655.448 361.155 656.901 359.349L674.554 337.42C678.619 332.37 678.464 321.471 674.224 317.663L655.976 301.151C654.646 299.947 653.168 299.662 651.701 300.328C648.669 301.701 646.533 306.784 646.62 312.415L647.215 350.857C647.279 354.985 648.494 358.45 650.379 360.216Z" fill="url(#paint46_linear_247_2111)"/>
<path d="M656.719 299.273C656.816 299.363 656.91 299.459 657.005 299.559L675.673 319.531C679.731 323.871 679.204 335.348 674.734 339.998L654.195 361.361C652.696 362.921 651.098 363.4 649.575 362.746C646.783 361.548 645.005 356.92 645.251 351.492L647.119 310.157C647.412 303.7 650.244 299.334 652.89 298.357C654.235 297.862 655.552 298.179 656.719 299.273ZM647.868 362.252C648.326 362.681 648.825 363.017 649.361 363.247C651.085 363.987 652.941 363.451 654.588 361.739L675.126 340.376C679.852 335.46 680.373 323.761 676.071 319.159L657.403 299.188C656.026 297.715 654.355 297.237 652.701 297.847C649.367 299.077 646.847 304.129 646.576 310.133L644.706 351.467C644.493 356.197 645.725 360.244 647.868 362.252Z" fill="url(#paint47_linear_247_2111)"/>
<path d="M658.647 297.594L677.543 321.329C681.657 326.497 680.341 338.765 675.195 343.208L651.572 363.607C649.877 365.071 648.14 365.403 646.547 364.568C643.529 362.988 641.861 357.767 642.493 351.874L647.218 307.74C647.864 301.71 650.679 296.812 654.064 295.828C655.752 295.337 657.336 295.949 658.647 297.594ZM645.083 364.18C645.46 364.533 645.864 364.825 646.295 365.051C648.077 365.985 650.077 365.617 651.928 364.019L675.551 343.62C680.983 338.929 682.317 326.451 677.97 320.99L659.072 297.255C657.634 295.45 655.801 294.756 653.912 295.305C650.32 296.35 647.345 301.439 646.677 307.682L641.951 351.816C641.384 357.108 642.648 361.898 645.083 364.18Z" fill="url(#paint48_linear_247_2111)"/>
<path d="M660.554 295.689L679.453 323.491C683.572 329.553 681.348 342.572 675.487 346.709L648.588 365.694C646.682 367.039 644.795 367.196 643.132 366.146C639.903 364.109 638.403 358.268 639.484 351.942L647.484 305.155C648.548 298.935 651.831 294.04 655.469 293.25C657.423 292.826 659.182 293.669 660.554 295.689ZM641.918 365.889C642.209 366.161 642.516 366.401 642.841 366.606C644.679 367.766 646.831 367.6 648.902 366.138L675.8 347.154C681.983 342.79 684.245 329.574 679.903 323.186L661.004 295.382C659.518 293.196 657.511 292.249 655.354 292.718C651.504 293.553 648.048 298.63 646.948 305.063L638.947 351.85C637.935 357.765 639.152 363.297 641.918 365.889Z" fill="url(#paint49_linear_247_2111)"/>
<path d="M661.302 292.027C661.831 292.523 662.315 293.143 662.742 293.881L681.375 326.05C683.401 329.547 683.756 335.027 682.3 340.349C681.012 345.061 678.496 348.857 675.57 350.502L645.218 367.566C643.079 368.767 641.033 368.712 639.299 367.404C635.889 364.832 634.624 358.352 636.221 351.644L647.938 302.411C649.451 296.055 653.228 291.216 657.122 290.645C658.667 290.418 660.102 290.903 661.302 292.027ZM638.408 367.364C638.589 367.534 638.777 367.692 638.971 367.839C640.864 369.266 643.177 369.337 645.485 368.039L675.837 350.977C678.933 349.236 681.48 345.415 682.825 340.493C684.317 335.035 683.942 329.396 681.847 325.778L663.213 293.608C661.696 290.989 659.505 289.745 657.043 290.107C652.869 290.719 648.997 295.613 647.409 302.285L635.691 351.518C634.136 358.055 635.257 364.412 638.408 367.364Z" fill="url(#paint50_linear_247_2111)"/>
<path d="M665.234 292.215L683.295 329.038C685.336 333.2 685.295 339.317 683.187 345.007C681.441 349.725 678.607 353.215 675.414 354.586L641.453 369.16C639.055 370.189 636.837 369.877 635.036 368.256C631.498 365.061 630.541 357.943 632.713 350.922L648.614 299.524C650.636 292.984 654.831 288.369 659.051 288.039C661.618 287.838 663.814 289.321 665.234 292.215ZM634.557 368.555C634.595 368.591 634.633 368.626 634.672 368.661C636.614 370.408 639.099 370.763 641.668 369.661L675.629 355.086C678.959 353.657 681.899 350.053 683.698 345.197C685.855 339.372 685.888 333.089 683.784 328.799L665.722 291.975C664.199 288.867 661.815 287.278 659.009 287.496C654.568 287.843 650.181 292.612 648.093 299.363L632.193 350.762C629.985 357.903 630.959 365.184 634.557 368.555Z" fill="url(#paint51_linear_247_2111)"/>
<path d="M665.727 287.219C666.655 288.089 667.437 289.27 668.038 290.734L685.177 332.483C687.173 337.348 686.657 344.07 683.831 350.027C681.635 354.654 678.408 357.906 674.978 358.949L637.272 370.408C634.583 371.225 632.183 370.599 630.322 368.6C626.722 364.725 626.163 356.959 628.963 349.715L649.531 296.507C652.067 289.945 656.787 285.507 661.275 285.46C662.968 285.443 664.48 286.05 665.727 287.219ZM630.329 369.379C632.261 371.189 634.761 371.74 637.43 370.929L675.136 359.469C678.713 358.383 682.061 355.026 684.322 350.26C687.213 344.17 687.733 337.279 685.68 332.276L668.542 290.527C667.043 286.876 664.46 284.883 661.269 284.916C656.487 284.965 651.68 289.438 649.023 296.311L628.456 349.519C625.583 356.95 626.187 364.948 629.922 368.97C630.055 369.113 630.191 369.249 630.329 369.379Z" fill="url(#paint52_linear_247_2111)"/>
<path d="M671.17 289.491L686.987 336.412C688.843 341.919 687.755 349.366 684.215 355.384C681.551 359.911 677.907 362.897 674.218 363.577L632.664 371.232C629.642 371.788 627.044 370.78 625.148 368.318C621.582 363.686 621.514 355.313 624.984 347.956L650.721 293.38C653.844 286.76 658.984 282.661 663.818 282.942C667.202 283.137 669.812 285.463 671.17 289.491ZM625.735 369.777C627.635 371.557 630.081 372.261 632.762 371.767L674.316 364.112C678.162 363.404 681.941 360.323 684.684 355.659C688.301 349.512 689.407 341.888 687.502 336.238L671.687 289.317C670.273 285.126 667.417 282.605 663.849 282.398C658.793 282.106 653.446 286.325 650.229 293.148L624.491 347.723C620.938 355.257 621.031 363.863 624.717 368.65C625.034 369.064 625.375 369.44 625.735 369.777Z" fill="url(#paint53_linear_247_2111)"/>
<path d="M674.641 288.546L688.689 340.857C690.36 347.08 688.647 355.012 684.324 361.065C681.164 365.489 677.07 368.181 673.089 368.452L627.62 371.549C624.269 371.778 621.392 370.263 619.518 367.284C616.101 361.851 616.624 352.926 620.791 345.578L652.213 290.172C655.905 283.66 661.596 279.873 666.708 280.525C670.51 281.01 673.401 283.933 674.641 288.546ZM620.79 369.694C622.645 371.432 625.011 372.272 627.656 372.093L673.126 368.996C677.27 368.713 681.512 365.938 684.767 361.382C689.181 355.202 690.927 347.09 689.215 340.715L675.166 288.405C673.867 283.569 670.808 280.499 666.777 279.985C661.444 279.305 655.542 283.199 651.739 289.903L620.317 345.31C616.056 352.824 615.538 361.978 619.057 367.574C619.568 368.385 620.148 369.093 620.79 369.694Z" fill="url(#paint54_linear_247_2111)"/>
<path d="M674.706 280.691C676.531 282.401 677.835 284.883 678.461 287.962L690.244 345.839C691.653 352.758 689.26 361.088 684.149 367.059C680.449 371.38 675.857 373.745 671.55 373.547L622.141 371.269C618.366 371.095 615.281 368.995 613.457 365.356C610.273 359.008 611.461 349.827 616.413 342.51L654.039 286.912C658.392 280.479 664.5 277.163 669.978 278.257C671.789 278.618 673.384 279.452 674.706 280.691ZM615.507 369.06C617.302 370.742 619.557 371.695 622.116 371.813L671.525 374.09C676 374.296 680.752 371.863 684.563 367.413C689.779 361.32 692.219 352.808 690.777 345.73L678.995 287.854C677.869 282.321 674.621 278.629 670.084 277.724C664.388 276.586 658.066 279.99 653.589 286.607L615.961 342.205C610.903 349.68 609.701 359.081 612.97 365.6C613.655 366.966 614.51 368.125 615.507 369.06Z" fill="url(#paint55_linear_247_2111)"/>
<path d="M682.633 287.806L691.599 351.377C692.667 358.952 689.554 367.581 683.667 373.359C679.368 377.58 674.221 379.571 669.545 378.823L616.224 370.291C611.971 369.611 608.693 366.804 606.995 362.387C604.246 355.235 606.207 345.707 611.872 338.676L656.227 283.638C661.21 277.455 667.887 274.602 673.655 276.192C678.508 277.531 681.781 281.764 682.633 287.806ZM609.9 367.802C611.611 369.405 613.724 370.443 616.138 370.829L669.459 379.361C674.307 380.136 679.625 378.09 684.049 373.747C690.055 367.851 693.23 359.041 692.138 351.301L683.172 287.73C682.288 281.464 678.872 277.067 673.799 275.668C667.82 274.019 660.924 276.941 655.804 283.296L611.448 338.335C605.665 345.511 603.67 355.255 606.487 362.583C607.297 364.692 608.456 366.449 609.9 367.802Z" fill="url(#paint56_linear_247_2111)"/>
<path d="M687.158 288.156L692.704 357.491C693.358 365.659 689.495 374.482 682.862 379.966C677.887 384.082 672.116 385.639 667.029 384.24L609.882 368.514C605.096 367.196 601.657 363.547 600.198 358.24C597.999 350.227 600.751 340.713 607.21 334.003L658.81 280.393C664.45 274.532 671.718 272.236 677.776 274.401C683.194 276.338 686.614 281.351 687.158 288.156ZM603.996 365.849C605.595 367.347 607.528 368.43 609.738 369.038L666.884 384.764C672.146 386.212 678.095 384.616 683.21 380.386C689.974 374.792 693.914 365.788 693.246 357.448L687.701 288.113C687.139 281.084 683.588 275.899 677.959 273.888C671.696 271.65 664.209 273.998 658.417 280.016L606.817 333.625C600.228 340.472 597.423 350.19 599.674 358.384C600.514 361.443 601.993 363.971 603.996 365.849Z" fill="url(#paint57_linear_247_2111)"/>
<path d="M692.032 289.09L693.501 364.193C693.673 373.009 689.154 381.704 681.706 386.885C675.962 390.881 669.489 391.922 663.947 389.742L603.132 365.824C597.843 363.744 594.204 358.991 593.148 352.785C591.677 344.133 595.336 334.567 602.47 328.413L661.817 277.23C668.248 271.683 675.936 270.088 682.381 272.965C688.278 275.597 691.885 281.624 692.032 289.09ZM597.902 363.155C599.347 364.509 601.037 365.585 602.933 366.33L663.748 390.249C669.462 392.497 676.12 391.433 682.017 387.332C689.612 382.048 694.22 373.178 694.045 364.182L692.575 289.079C692.426 281.398 688.698 275.188 682.602 272.467C675.96 269.504 668.056 271.129 661.46 276.817L602.114 328.002C594.839 334.277 591.109 344.04 592.612 352.875C593.323 357.058 595.176 360.601 597.902 363.155Z" fill="url(#paint58_linear_247_2111)"/>
<path d="M697.245 290.692L693.923 371.483C693.543 380.728 688.269 389.4 680.162 394.113C673.541 397.962 666.284 398.382 660.247 395.266L595.998 362.102C590.104 359.06 586.439 353.16 585.941 345.914C585.3 336.623 589.808 327.394 597.704 321.828L665.277 274.203C672.459 269.14 680.771 268.309 687.509 271.981C693.943 275.488 697.582 282.482 697.245 290.692ZM591.565 359.639C592.799 360.795 594.198 361.786 595.748 362.586L659.997 395.75C666.202 398.952 673.652 398.527 680.435 394.584C688.702 389.777 694.079 380.935 694.466 371.504L697.788 290.715C698.135 282.293 694.389 275.111 687.77 271.504C680.845 267.73 672.319 268.573 664.963 273.758L597.39 321.383C589.34 327.057 584.744 336.472 585.398 345.953C585.778 351.491 587.968 356.268 591.565 359.639Z" fill="url(#paint59_linear_247_2111)"/>
<path d="M696.073 273.834C701.086 278.532 703.562 285.475 702.782 293.057L693.905 379.361C692.92 388.934 686.898 397.475 678.188 401.655C670.571 405.31 662.441 404.976 655.88 400.739L588.518 357.227C582.01 353.024 578.427 345.854 578.685 337.557C578.984 327.916 584.461 318.956 592.981 314.175L669.219 271.382C677.215 266.894 686.182 266.968 693.207 271.579C694.237 272.256 695.194 273.011 696.073 273.834ZM585.108 355.255C586.058 356.145 587.097 356.957 588.223 357.684L655.585 401.195C662.307 405.538 670.633 405.884 678.424 402.146C687.303 397.885 693.443 389.176 694.446 379.417L703.324 293.112C704.262 283.997 700.592 275.776 693.505 271.124C686.307 266.399 677.129 266.319 668.954 270.907L592.714 313.701C584.03 318.574 578.446 327.709 578.141 337.54C577.922 344.6 580.425 350.867 585.108 355.255Z" fill="url(#paint60_linear_247_2111)"/>
<path d="M701.178 273.339C707.314 279.088 710.083 287.502 708.621 296.278L693.37 387.816C691.714 397.754 685.121 405.862 675.731 409.504C667.113 412.847 657.79 411.565 650.793 406.07L580.74 351.071C573.745 345.577 570.283 336.826 571.486 327.659C572.796 317.674 579.107 309.345 588.369 305.378L673.673 268.839C682.557 265.034 692.217 266.18 699.51 271.906C700.091 272.363 700.648 272.841 701.178 273.339ZM578.722 350.056C579.259 350.559 579.818 351.039 580.404 351.499L650.457 406.499C657.607 412.112 667.129 413.425 675.928 410.012C685.498 406.299 692.219 398.036 693.907 387.906L709.157 296.367C710.779 286.633 707.3 277.33 699.846 271.478C692.393 265.627 682.529 264.454 673.459 268.339L588.155 304.877C578.715 308.922 572.281 317.411 570.947 327.589C569.819 336.181 572.708 344.421 578.722 350.056Z" fill="url(#paint61_linear_247_2111)"/>
<path d="M714.727 300.455L692.237 396.825C689.892 406.872 682.598 414.656 672.725 417.649C662.852 420.642 652.463 418.217 644.935 411.164L572.72 343.501C565.192 336.447 562.097 326.238 564.442 316.192C566.786 306.144 574.08 298.36 583.953 295.367L678.657 266.658C688.531 263.665 698.919 266.09 706.448 273.144C713.977 280.197 717.072 290.407 714.727 300.455ZM572.348 343.898L644.563 411.561C652.235 418.749 662.822 421.22 672.883 418.17C682.944 415.12 690.378 407.187 692.767 396.948L715.257 300.577C717.647 290.34 714.492 279.934 706.821 272.747C699.149 265.558 688.561 263.088 678.5 266.137L583.796 294.846C573.734 297.897 566.301 305.83 563.911 316.068C561.522 326.306 564.676 336.71 572.348 343.898Z" fill="url(#paint62_linear_247_2111)"/>
</g>
<defs>
<filter id="filter0_f_247_2111" x="0" y="0" width="509" height="508" filterUnits="userSpaceOnUse" color-interpolation-filters="sRGB">
<feFlood flood-opacity="0" result="BackgroundImageFix"/>
<feBlend mode="normal" in="SourceGraphic" in2="BackgroundImageFix" result="shape"/>
<feGaussianBlur stdDeviation="100" result="effect1_foregroundBlur_247_2111"/>
</filter>
<filter id="filter1_b_247_2111" x="165.6" y="55.6" width="511.8" height="381.8" filterUnits="userSpaceOnUse" color-interpolation-filters="sRGB">
<feFlood flood-opacity="0" result="BackgroundImageFix"/>
<feGaussianBlur in="BackgroundImageFix" stdDeviation="4.2"/>
<feComposite in2="SourceAlpha" operator="in" result="effect1_backgroundBlur_247_2111"/>
<feBlend mode="normal" in="SourceGraphic" in2="effect1_backgroundBlur_247_2111" result="shape"/>
</filter>
<linearGradient id="paint0_linear_247_2111" x1="252.452" y1="284.344" x2="350.232" y2="279.298" gradientUnits="userSpaceOnUse">
<stop stop-color="#EBBD84"/>
<stop offset="1" stop-color="#3353A8"/>
</linearGradient>
<linearGradient id="paint1_linear_247_2111" x1="249.086" y1="282.72" x2="351.854" y2="277.62" gradientUnits="userSpaceOnUse">
<stop stop-color="#EBBD84"/>
<stop offset="1" stop-color="#3353A8"/>
</linearGradient>
<linearGradient id="paint2_linear_247_2111" x1="245.711" y1="281.298" x2="353.067" y2="276.18" gradientUnits="userSpaceOnUse">
<stop stop-color="#EBBD84"/>
<stop offset="1" stop-color="#3353A8"/>
</linearGradient>
<linearGradient id="paint3_linear_247_2111" x1="242.374" y1="280.13" x2="353.829" y2="275.035" gradientUnits="userSpaceOnUse">
<stop stop-color="#EBBD84"/>
<stop offset="1" stop-color="#3353A8"/>
</linearGradient>
<linearGradient id="paint4_linear_247_2111" x1="239.118" y1="279.266" x2="354.083" y2="274.233" gradientUnits="userSpaceOnUse">
<stop stop-color="#EBBD84"/>
<stop offset="1" stop-color="#3353A8"/>
</linearGradient>
<linearGradient id="paint5_linear_247_2111" x1="235.91" y1="273.863" x2="354.742" y2="269.018" gradientUnits="userSpaceOnUse">
<stop stop-color="#EBBD84"/>
<stop offset="1" stop-color="#3353A8"/>
</linearGradient>
<linearGradient id="paint6_linear_247_2111" x1="232.89" y1="266.77" x2="361.269" y2="261.689" gradientUnits="userSpaceOnUse">
<stop stop-color="#EBBD84"/>
<stop offset="1" stop-color="#3353A8"/>
</linearGradient>
<linearGradient id="paint7_linear_247_2111" x1="230.037" y1="259.153" x2="368.234" y2="253.832" gradientUnits="userSpaceOnUse">
<stop stop-color="#EBBD84"/>
<stop offset="1" stop-color="#3353A8"/>
</linearGradient>
<linearGradient id="paint8_linear_247_2111" x1="227.292" y1="251.022" x2="375.634" y2="245.45" gradientUnits="userSpaceOnUse">
<stop stop-color="#EBBD84"/>
<stop offset="1" stop-color="#3353A8"/>
</linearGradient>
<linearGradient id="paint9_linear_247_2111" x1="224.855" y1="242.398" x2="383.481" y2="236.574" gradientUnits="userSpaceOnUse">
<stop stop-color="#EBBD84"/>
<stop offset="1" stop-color="#3353A8"/>
</linearGradient>
<linearGradient id="paint10_linear_247_2111" x1="222.565" y1="233.308" x2="391.777" y2="227.216" gradientUnits="userSpaceOnUse">
<stop stop-color="#EBBD84"/>
<stop offset="1" stop-color="#3353A8"/>
</linearGradient>
<linearGradient id="paint11_linear_247_2111" x1="220.628" y1="223.857" x2="400.54" y2="217.49" gradientUnits="userSpaceOnUse">
<stop stop-color="#EBBD84"/>
<stop offset="1" stop-color="#3353A8"/>
</linearGradient>
<linearGradient id="paint12_linear_247_2111" x1="218.97" y1="213.968" x2="409.781" y2="207.313" gradientUnits="userSpaceOnUse">
<stop stop-color="#EBBD84"/>
<stop offset="1" stop-color="#3353A8"/>
</linearGradient>
<linearGradient id="paint13_linear_247_2111" x1="217.559" y1="203.754" x2="419.489" y2="196.79" gradientUnits="userSpaceOnUse">
<stop stop-color="#EBBD84"/>
<stop offset="1" stop-color="#3353A8"/>
</linearGradient>
<linearGradient id="paint14_linear_247_2111" x1="216.516" y1="193.286" x2="429.652" y2="185.995" gradientUnits="userSpaceOnUse">
<stop stop-color="#EBBD84"/>
<stop offset="1" stop-color="#3353A8"/>
</linearGradient>
<linearGradient id="paint15_linear_247_2111" x1="213.098" y1="182.638" x2="440.117" y2="174.822" gradientUnits="userSpaceOnUse">
<stop stop-color="#EBBD84"/>
<stop offset="1" stop-color="#3353A8"/>
</linearGradient>
<linearGradient id="paint16_linear_247_2111" x1="192.95" y1="171.977" x2="450.151" y2="162.435" gradientUnits="userSpaceOnUse">
<stop stop-color="#EBBD84"/>
<stop offset="1" stop-color="#3353A8"/>
</linearGradient>
<linearGradient id="paint17_linear_247_2111" x1="170.149" y1="161.235" x2="460.281" y2="149.624" gradientUnits="userSpaceOnUse">
<stop stop-color="#EBBD84"/>
<stop offset="1" stop-color="#3353A8"/>
</linearGradient>
<linearGradient id="paint18_linear_247_2111" x1="144.672" y1="150.594" x2="470.428" y2="136.506" gradientUnits="userSpaceOnUse">
<stop stop-color="#EBBD84"/>
<stop offset="1" stop-color="#3353A8"/>
</linearGradient>
<linearGradient id="paint19_linear_247_2111" x1="116.237" y1="140.152" x2="480.577" y2="123.079" gradientUnits="userSpaceOnUse">
<stop stop-color="#EBBD84"/>
<stop offset="1" stop-color="#3353A8"/>
</linearGradient>
<linearGradient id="paint20_linear_247_2111" x1="84.9999" y1="130" x2="490.312" y2="109.394" gradientUnits="userSpaceOnUse">
<stop stop-color="#EBBD84"/>
<stop offset="1" stop-color="#3353A8"/>
</linearGradient>
<linearGradient id="paint21_linear_247_2111" x1="632.185" y1="23.129" x2="636.016" y2="97.3639" gradientUnits="userSpaceOnUse">
<stop stop-color="#EBBD84"/>
<stop offset="1" stop-color="#3353A8"/>
</linearGradient>
<linearGradient id="paint22_linear_247_2111" x1="633.418" y1="20.5739" x2="637.289" y2="98.5952" gradientUnits="userSpaceOnUse">
<stop stop-color="#EBBD84"/>
<stop offset="1" stop-color="#3353A8"/>
</linearGradient>
<linearGradient id="paint23_linear_247_2111" x1="634.498" y1="18.0114" x2="638.383" y2="99.5164" gradientUnits="userSpaceOnUse">
<stop stop-color="#EBBD84"/>
<stop offset="1" stop-color="#3353A8"/>
</linearGradient>
<linearGradient id="paint24_linear_247_2111" x1="635.384" y1="15.4778" x2="639.252" y2="100.095" gradientUnits="userSpaceOnUse">
<stop stop-color="#EBBD84"/>
<stop offset="1" stop-color="#3353A8"/>
</linearGradient>
<linearGradient id="paint25_linear_247_2111" x1="636.039" y1="13.0061" x2="639.86" y2="100.288" gradientUnits="userSpaceOnUse">
<stop stop-color="#EBBD84"/>
<stop offset="1" stop-color="#3353A8"/>
</linearGradient>
<linearGradient id="paint26_linear_247_2111" x1="640.142" y1="10.5708" x2="643.819" y2="100.788" gradientUnits="userSpaceOnUse">
<stop stop-color="#EBBD84"/>
<stop offset="1" stop-color="#3353A8"/>
</linearGradient>
<linearGradient id="paint27_linear_247_2111" x1="645.527" y1="8.27776" x2="649.384" y2="105.743" gradientUnits="userSpaceOnUse">
<stop stop-color="#EBBD84"/>
<stop offset="1" stop-color="#3353A8"/>
</linearGradient>
<linearGradient id="paint28_linear_247_2111" x1="651.31" y1="6.11191" x2="655.349" y2="111.03" gradientUnits="userSpaceOnUse">
<stop stop-color="#EBBD84"/>
<stop offset="1" stop-color="#3353A8"/>
</linearGradient>
<linearGradient id="paint29_linear_247_2111" x1="657.482" y1="4.02756" x2="661.713" y2="116.649" gradientUnits="userSpaceOnUse">
<stop stop-color="#EBBD84"/>
<stop offset="1" stop-color="#3353A8"/>
</linearGradient>
<linearGradient id="paint30_linear_247_2111" x1="664.03" y1="2.17731" x2="668.452" y2="122.606" gradientUnits="userSpaceOnUse">
<stop stop-color="#EBBD84"/>
<stop offset="1" stop-color="#3353A8"/>
</linearGradient>
<linearGradient id="paint31_linear_247_2111" x1="670.93" y1="0.439188" x2="675.555" y2="128.905" gradientUnits="userSpaceOnUse">
<stop stop-color="#EBBD84"/>
<stop offset="1" stop-color="#3353A8"/>
</linearGradient>
<linearGradient id="paint32_linear_247_2111" x1="678.106" y1="-1.03115" x2="682.94" y2="135.557" gradientUnits="userSpaceOnUse">
<stop stop-color="#EBBD84"/>
<stop offset="1" stop-color="#3353A8"/>
</linearGradient>
<linearGradient id="paint33_linear_247_2111" x1="685.614" y1="-2.29041" x2="690.666" y2="142.573" gradientUnits="userSpaceOnUse">
<stop stop-color="#EBBD84"/>
<stop offset="1" stop-color="#3353A8"/>
</linearGradient>
<linearGradient id="paint34_linear_247_2111" x1="693.368" y1="-3.3611" x2="698.655" y2="149.944" gradientUnits="userSpaceOnUse">
<stop stop-color="#EBBD84"/>
<stop offset="1" stop-color="#3353A8"/>
</linearGradient>
<linearGradient id="paint35_linear_247_2111" x1="701.316" y1="-4.15283" x2="706.851" y2="157.66" gradientUnits="userSpaceOnUse">
<stop stop-color="#EBBD84"/>
<stop offset="1" stop-color="#3353A8"/>
</linearGradient>
<linearGradient id="paint36_linear_247_2111" x1="709.4" y1="-6.74777" x2="715.333" y2="165.604" gradientUnits="userSpaceOnUse">
<stop stop-color="#EBBD84"/>
<stop offset="1" stop-color="#3353A8"/>
</linearGradient>
<linearGradient id="paint37_linear_247_2111" x1="717.493" y1="-22.0441" x2="724.737" y2="173.222" gradientUnits="userSpaceOnUse">
<stop stop-color="#EBBD84"/>
<stop offset="1" stop-color="#3353A8"/>
</linearGradient>
<linearGradient id="paint38_linear_247_2111" x1="725.649" y1="-39.3551" x2="734.464" y2="180.913" gradientUnits="userSpaceOnUse">
<stop stop-color="#EBBD84"/>
<stop offset="1" stop-color="#3353A8"/>
</linearGradient>
<linearGradient id="paint39_linear_247_2111" x1="733.727" y1="-58.6969" x2="744.423" y2="188.617" gradientUnits="userSpaceOnUse">
<stop stop-color="#EBBD84"/>
<stop offset="1" stop-color="#3353A8"/>
</linearGradient>
<linearGradient id="paint40_linear_247_2111" x1="741.655" y1="-80.285" x2="754.617" y2="196.321" gradientUnits="userSpaceOnUse">
<stop stop-color="#EBBD84"/>
<stop offset="1" stop-color="#3353A8"/>
</linearGradient>
<linearGradient id="paint41_linear_247_2111" x1="749.362" y1="-104" x2="765.007" y2="203.713" gradientUnits="userSpaceOnUse">
<stop stop-color="#EBBD84"/>
<stop offset="1" stop-color="#3353A8"/>
</linearGradient>
<linearGradient id="paint42_linear_247_2111" x1="655.605" y1="302.782" x2="683.199" y2="326.087" gradientUnits="userSpaceOnUse">
<stop stop-color="#EBBD84"/>
<stop offset="1" stop-color="#3353A8"/>
</linearGradient>
<linearGradient id="paint43_linear_247_2111" x1="655.109" y1="301.497" x2="684.06" y2="326.044" gradientUnits="userSpaceOnUse">
<stop stop-color="#EBBD84"/>
<stop offset="1" stop-color="#3353A8"/>
</linearGradient>
<linearGradient id="paint44_linear_247_2111" x1="654.558" y1="300.263" x2="684.749" y2="325.962" gradientUnits="userSpaceOnUse">
<stop stop-color="#EBBD84"/>
<stop offset="1" stop-color="#3353A8"/>
</linearGradient>
<linearGradient id="paint45_linear_247_2111" x1="653.955" y1="299.107" x2="685.243" y2="325.846" gradientUnits="userSpaceOnUse">
<stop stop-color="#EBBD84"/>
<stop offset="1" stop-color="#3353A8"/>
</linearGradient>
<linearGradient id="paint46_linear_247_2111" x1="653.296" y1="298.053" x2="685.513" y2="325.695" gradientUnits="userSpaceOnUse">
<stop stop-color="#EBBD84"/>
<stop offset="1" stop-color="#3353A8"/>
</linearGradient>
<linearGradient id="paint47_linear_247_2111" x1="653.796" y1="295.789" x2="687.006" y2="324.457" gradientUnits="userSpaceOnUse">
<stop stop-color="#EBBD84"/>
<stop offset="1" stop-color="#3353A8"/>
</linearGradient>
<linearGradient id="paint48_linear_247_2111" x1="654.771" y1="293.118" x2="690.611" y2="324.13" gradientUnits="userSpaceOnUse">
<stop stop-color="#EBBD84"/>
<stop offset="1" stop-color="#3353A8"/>
</linearGradient>
<linearGradient id="paint49_linear_247_2111" x1="655.926" y1="290.348" x2="694.469" y2="323.772" gradientUnits="userSpaceOnUse">
<stop stop-color="#EBBD84"/>
<stop offset="1" stop-color="#3353A8"/>
</linearGradient>
<linearGradient id="paint50_linear_247_2111" x1="657.235" y1="287.467" x2="698.573" y2="323.382" gradientUnits="userSpaceOnUse">
<stop stop-color="#EBBD84"/>
<stop offset="1" stop-color="#3353A8"/>
</linearGradient>
<linearGradient id="paint51_linear_247_2111" x1="658.756" y1="284.531" x2="702.925" y2="322.972" gradientUnits="userSpaceOnUse">
<stop stop-color="#EBBD84"/>
<stop offset="1" stop-color="#3353A8"/>
</linearGradient>
<linearGradient id="paint52_linear_247_2111" x1="660.432" y1="281.507" x2="707.519" y2="322.546" gradientUnits="userSpaceOnUse">
<stop stop-color="#EBBD84"/>
<stop offset="1" stop-color="#3353A8"/>
</linearGradient>
<linearGradient id="paint53_linear_247_2111" x1="662.295" y1="278.474" x2="712.331" y2="322.137" gradientUnits="userSpaceOnUse">
<stop stop-color="#EBBD84"/>
<stop offset="1" stop-color="#3353A8"/>
</linearGradient>
<linearGradient id="paint54_linear_247_2111" x1="664.341" y1="275.394" x2="717.384" y2="321.729" gradientUnits="userSpaceOnUse">
<stop stop-color="#EBBD84"/>
<stop offset="1" stop-color="#3353A8"/>
</linearGradient>
<linearGradient id="paint55_linear_247_2111" x1="666.539" y1="272.288" x2="722.653" y2="321.345" gradientUnits="userSpaceOnUse">
<stop stop-color="#EBBD84"/>
<stop offset="1" stop-color="#3353A8"/>
</linearGradient>
<linearGradient id="paint56_linear_247_2111" x1="668.899" y1="269.207" x2="728.112" y2="321.002" gradientUnits="userSpaceOnUse">
<stop stop-color="#EBBD84"/>
<stop offset="1" stop-color="#3353A8"/>
</linearGradient>
<linearGradient id="paint57_linear_247_2111" x1="670.665" y1="265.479" x2="733.747" y2="320.633" gradientUnits="userSpaceOnUse">
<stop stop-color="#EBBD84"/>
<stop offset="1" stop-color="#3353A8"/>
</linearGradient>
<linearGradient id="paint58_linear_247_2111" x1="667.929" y1="257.527" x2="739.571" y2="319.83" gradientUnits="userSpaceOnUse">
<stop stop-color="#EBBD84"/>
<stop offset="1" stop-color="#3353A8"/>
</linearGradient>
<linearGradient id="paint59_linear_247_2111" x1="664.5" y1="248.885" x2="745.53" y2="318.936" gradientUnits="userSpaceOnUse">
<stop stop-color="#EBBD84"/>
<stop offset="1" stop-color="#3353A8"/>
</linearGradient>
<linearGradient id="paint60_linear_247_2111" x1="660.326" y1="239.594" x2="751.57" y2="317.965" gradientUnits="userSpaceOnUse">
<stop stop-color="#EBBD84"/>
<stop offset="1" stop-color="#3353A8"/>
</linearGradient>
<linearGradient id="paint61_linear_247_2111" x1="655.306" y1="229.611" x2="757.689" y2="316.91" gradientUnits="userSpaceOnUse">
<stop stop-color="#EBBD84"/>
<stop offset="1" stop-color="#3353A8"/>
</linearGradient>
<linearGradient id="paint62_linear_247_2111" x1="649.458" y1="219" x2="763.761" y2="315.681" gradientUnits="userSpaceOnUse">
<stop stop-color="#EBBD84"/>
<stop offset="1" stop-color="#3353A8"/>
</linearGradient>
</defs>
</svg>
