<svg width="1804" height="1759" viewBox="0 0 1804 1759" fill="none" xmlns="http://www.w3.org/2000/svg">
<g opacity="0.8">
<path d="M1345.21 388.914C1349.88 391.016 1354.43 393.274 1358.86 395.705C1407.95 422.595 1437.61 466.444 1447.04 526.043C1469 664.983 1376.43 863.909 1205.47 1045.19C960.235 1305.21 630.407 1447.32 458.64 1370.05C453.961 1367.95 449.417 1365.69 444.991 1363.26C395.899 1336.37 366.232 1292.52 356.813 1232.93C334.854 1093.98 427.422 895.056 598.381 713.782C843.611 453.749 1173.44 311.631 1345.21 388.914ZM456.915 1373.61C630.177 1451.56 962.002 1309.11 1208.35 1047.91C1380.14 865.752 1473.1 665.553 1450.94 525.423C1441.47 465.407 1410.27 419.355 1360.77 392.236C1191.88 299.722 848.565 442.736 595.5 711.062C423.711 893.213 330.749 1093.42 352.908 1233.55C362.384 1293.56 393.577 1339.61 443.082 1366.74C447.563 1369.19 452.189 1371.48 456.915 1373.61Z" fill="url(#paint0_linear_280_693)"/>
<path d="M1345.21 388.914C1349.88 391.016 1354.43 393.274 1358.86 395.705C1407.95 422.595 1437.61 466.444 1447.04 526.043C1469 664.983 1376.43 863.909 1205.47 1045.19C960.235 1305.21 630.407 1447.32 458.64 1370.05C453.961 1367.95 449.417 1365.69 444.991 1363.26C395.899 1336.37 366.232 1292.52 356.813 1232.93C334.854 1093.98 427.422 895.056 598.381 713.782C843.611 453.749 1173.44 311.631 1345.21 388.914ZM456.915 1373.61C630.177 1451.56 962.002 1309.11 1208.35 1047.91C1380.14 865.752 1473.1 665.553 1450.94 525.423C1441.47 465.407 1410.27 419.355 1360.77 392.236C1191.88 299.722 848.565 442.736 595.5 711.062C423.711 893.213 330.749 1093.42 352.908 1233.55C362.384 1293.56 393.577 1339.61 443.082 1366.74C447.563 1369.19 452.189 1371.48 456.915 1373.61Z" fill="url(#paint1_linear_280_693)" fill-opacity="0.6"/>
<path d="M1385.55 395.395C1397.93 400.962 1409.35 407.632 1419.77 415.454C1460.06 445.692 1481.75 490.028 1484.24 547.231C1490.62 693.257 1366.95 902.248 1169.18 1079.65C903.842 1317.67 580.913 1436.71 418.292 1363.57C405.915 1358.01 394.49 1351.34 384.065 1343.51C343.783 1313.27 322.09 1268.93 319.593 1211.73C313.227 1065.71 436.897 856.717 634.659 679.318C899.997 441.295 1222.94 322.23 1385.55 395.395ZM416.42 1367.04C580.523 1440.87 905.322 1321.67 1171.83 1082.59C1370.43 904.433 1494.62 694.219 1488.2 547.063C1485.65 488.617 1463.43 443.272 1422.16 412.292C1273.34 300.578 918.88 419.031 632.014 676.368C433.406 854.53 309.22 1064.74 315.646 1211.91C318.197 1270.35 340.408 1315.69 381.687 1346.67C392.254 1354.61 403.875 1361.39 416.42 1367.04Z" fill="url(#paint2_linear_280_693)"/>
<path d="M1385.55 395.395C1397.93 400.962 1409.35 407.632 1419.77 415.454C1460.06 445.692 1481.75 490.028 1484.24 547.231C1490.62 693.257 1366.95 902.248 1169.18 1079.65C903.842 1317.67 580.913 1436.71 418.292 1363.57C405.915 1358.01 394.49 1351.34 384.065 1343.51C343.783 1313.27 322.09 1268.93 319.593 1211.73C313.227 1065.71 436.897 856.717 634.659 679.318C899.997 441.295 1222.94 322.23 1385.55 395.395ZM416.42 1367.04C580.523 1440.87 905.322 1321.67 1171.83 1082.59C1370.43 904.433 1494.62 694.219 1488.2 547.063C1485.65 488.617 1463.43 443.272 1422.16 412.292C1273.34 300.578 918.88 419.031 632.014 676.368C433.406 854.53 309.22 1064.74 315.646 1211.91C318.197 1270.35 340.408 1315.69 381.687 1346.67C392.254 1354.61 403.875 1361.39 416.42 1367.04Z" fill="url(#paint3_linear_280_693)" fill-opacity="0.6"/>
<path d="M1423.57 405.788C1443.71 414.848 1461.17 426.71 1475.55 441.501C1507.81 474.685 1522.1 519.663 1518.01 575.188C1506.65 729.493 1353.83 940.344 1128.68 1112.37C848.741 1326.26 535.31 1422.91 380.277 1353.18C360.127 1344.11 342.679 1332.26 328.3 1317.47C296.042 1284.28 281.751 1239.3 285.843 1183.78C297.202 1029.47 450.026 818.621 675.176 646.596C955.111 432.707 1268.55 336.039 1423.57 405.788ZM378.292 1356.53C534.824 1426.95 849.974 1330.3 1131.08 1115.52C1357.09 942.839 1510.52 730.863 1521.96 575.484C1526.13 518.78 1511.48 472.773 1478.39 438.739C1352.02 308.761 990.614 400.592 672.768 643.448C446.761 816.133 293.333 1028.11 281.893 1183.49C277.712 1240.18 292.377 1286.19 325.462 1320.23C340.079 1335.26 357.834 1347.32 378.292 1356.53Z" fill="url(#paint4_linear_280_693)"/>
<path d="M1423.57 405.788C1443.71 414.848 1461.17 426.71 1475.55 441.501C1507.81 474.685 1522.1 519.663 1518.01 575.188C1506.65 729.493 1353.83 940.344 1128.68 1112.37C848.741 1326.26 535.31 1422.91 380.277 1353.18C360.127 1344.11 342.679 1332.26 328.3 1317.47C296.042 1284.28 281.751 1239.3 285.843 1183.78C297.202 1029.47 450.026 818.621 675.176 646.596C955.111 432.707 1268.55 336.039 1423.57 405.788ZM378.292 1356.53C534.824 1426.95 849.974 1330.3 1131.08 1115.52C1357.09 942.839 1510.52 730.863 1521.96 575.484C1526.13 518.78 1511.48 472.773 1478.39 438.739C1352.02 308.761 990.614 400.592 672.768 643.448C446.761 816.133 293.333 1028.11 281.893 1183.49C277.712 1240.18 292.377 1286.19 325.462 1320.23C340.079 1335.26 357.834 1347.32 378.292 1356.53Z" fill="url(#paint5_linear_280_693)" fill-opacity="0.6"/>
<path d="M1458.17 419.774C1486.48 432.512 1509.25 450.397 1525.35 473.644C1550.3 509.686 1557.49 555.712 1546.74 610.446C1515.06 771.637 1333.56 980.633 1084.36 1142.9C740.589 1366.72 379.089 1430.61 278.51 1285.32C253.554 1249.28 246.358 1203.25 257.112 1148.53C288.785 987.334 470.286 778.333 719.5 616.073C1008.24 428.065 1309.53 352.899 1458.17 419.774ZM343.666 1342.45C493.795 1409.99 796.613 1334.97 1086.53 1146.21C1336.58 983.403 1518.75 773.397 1550.63 611.207C1561.6 555.387 1554.19 508.349 1528.6 471.39C1426.81 324.357 1062.87 387.776 717.333 612.753C467.269 775.569 285.098 985.568 253.223 1147.76C242.255 1203.58 249.664 1250.62 275.252 1287.58C291.642 1311.25 314.849 1329.48 343.666 1342.45Z" fill="url(#paint6_linear_280_693)"/>
<path d="M1458.17 419.774C1486.48 432.512 1509.25 450.397 1525.35 473.644C1550.3 509.686 1557.49 555.712 1546.74 610.446C1515.06 771.637 1333.56 980.633 1084.36 1142.9C740.589 1366.72 379.089 1430.61 278.51 1285.32C253.554 1249.28 246.358 1203.25 257.112 1148.53C288.785 987.334 470.286 778.333 719.5 616.073C1008.24 428.065 1309.53 352.899 1458.17 419.774ZM343.666 1342.45C493.795 1409.99 796.613 1334.97 1086.53 1146.21C1336.58 983.403 1518.75 773.397 1550.63 611.207C1561.6 555.387 1554.19 508.349 1528.6 471.39C1426.81 324.357 1062.87 387.776 717.333 612.753C467.269 775.569 285.098 985.568 253.223 1147.76C242.255 1203.58 249.664 1250.62 275.252 1287.58C291.642 1311.25 314.849 1329.48 343.666 1342.45Z" fill="url(#paint7_linear_280_693)" fill-opacity="0.6"/>
<path d="M1488.44 436.922C1526.51 454.047 1553.36 479.098 1568.42 511.636C1642.84 672.283 1404.31 967.976 1036.7 1170.78C767.999 1319.01 494.388 1382.06 339.644 1331.38C288.568 1314.66 253.509 1286.38 235.422 1247.33C161.005 1086.68 399.543 790.989 767.154 588.189C1035.86 439.953 1309.47 376.91 1464.21 427.583C1472.74 430.373 1480.82 433.49 1488.44 436.922ZM313.759 1325.65C321.522 1329.14 329.745 1332.31 338.412 1335.15C494.145 1386.14 768.99 1322.99 1038.62 1174.25C1408.01 970.46 1647.29 672.468 1572.02 509.972C1553.46 469.882 1517.6 440.893 1465.44 423.82C1309.71 372.825 1034.86 435.976 765.236 584.719C395.849 788.505 156.562 1086.49 231.838 1248.99C247.318 1282.42 274.819 1308.13 313.759 1325.65Z" fill="url(#paint8_linear_280_693)"/>
<path d="M1488.44 436.922C1526.51 454.047 1553.36 479.098 1568.42 511.636C1642.84 672.283 1404.31 967.976 1036.7 1170.78C767.999 1319.01 494.388 1382.06 339.644 1331.38C288.568 1314.66 253.509 1286.38 235.422 1247.33C161.005 1086.68 399.543 790.989 767.154 588.189C1035.86 439.953 1309.47 376.91 1464.21 427.583C1472.74 430.373 1480.82 433.49 1488.44 436.922ZM313.759 1325.65C321.522 1329.14 329.745 1332.31 338.412 1335.15C494.145 1386.14 768.99 1322.99 1038.62 1174.25C1408.01 970.46 1647.29 672.468 1572.02 509.972C1553.46 469.882 1517.6 440.893 1465.44 423.82C1309.71 372.825 1034.86 435.976 765.236 584.719C395.849 788.505 156.562 1086.49 231.838 1248.99C247.318 1282.42 274.819 1308.13 313.759 1325.65Z" fill="url(#paint9_linear_280_693)" fill-opacity="0.6"/>
<path d="M1512.82 456.414C1513.98 456.934 1515.12 457.455 1516.26 457.992C1563.18 479.989 1592.73 512.671 1604.1 555.143C1650.81 729.555 1373.63 1016.87 986.231 1195.61C703.508 1326.05 429.113 1367.42 287.585 1300.97C240.667 1278.97 211.115 1246.29 199.751 1203.82C153.037 1029.41 430.205 742.099 817.612 563.356C1098.05 433.963 1370.16 392.228 1512.82 456.414ZM289.382 1306.16C433.054 1370.8 706.445 1329.06 987.895 1199.2C1376.96 1019.69 1655.11 730.312 1607.92 554.116C1596.24 510.469 1565.96 476.924 1517.94 454.408C1375.35 387.531 1099.69 428.851 815.955 559.764C426.886 739.274 148.729 1028.66 195.919 1204.85C207.606 1248.5 237.886 1282.05 285.906 1304.56C287.052 1305.1 288.219 1305.63 289.382 1306.16Z" fill="url(#paint10_linear_280_693)"/>
<path d="M1512.82 456.414C1513.98 456.934 1515.12 457.455 1516.26 457.992C1563.18 479.989 1592.73 512.671 1604.1 555.143C1650.81 729.555 1373.63 1016.87 986.231 1195.61C703.508 1326.05 429.113 1367.42 287.585 1300.97C240.667 1278.97 211.115 1246.29 199.751 1203.82C153.037 1029.41 430.205 742.099 817.612 563.356C1098.05 433.963 1370.16 392.228 1512.82 456.414ZM289.382 1306.16C433.054 1370.8 706.445 1329.06 987.895 1199.2C1376.96 1019.69 1655.11 730.312 1607.92 554.116C1596.24 510.469 1565.96 476.924 1517.94 454.408C1375.35 387.531 1099.69 428.851 815.955 559.764C426.886 739.274 148.729 1028.66 195.919 1204.85C207.606 1248.5 237.886 1282.05 285.906 1304.56C287.052 1305.1 288.219 1305.63 289.382 1306.16Z" fill="url(#paint11_linear_280_693)" fill-opacity="0.6"/>
<path d="M1530.74 477.569C1540.87 482.126 1550.33 487.131 1559.13 492.629C1602.9 519.922 1627.33 557.314 1631.76 603.749C1649.49 790.052 1336.28 1065.15 933.532 1217C662.847 1319.06 409.782 1342.87 273.1 1281.39C262.977 1276.84 253.51 1271.83 244.698 1266.34C200.944 1239.04 176.504 1201.66 172.084 1155.21C154.345 968.917 467.57 693.814 870.305 541.968C1141 439.904 1394.07 416.079 1530.74 477.569ZM271.335 1284.93C409.022 1346.88 663.258 1323.14 934.933 1220.71C1339.23 1068.27 1653.6 791.341 1635.7 603.376C1631.15 555.644 1606.1 517.249 1561.23 489.273C1432.5 408.975 1160.77 428.219 868.911 538.265C464.606 690.696 150.247 967.624 168.141 1155.59C172.688 1203.32 197.744 1241.72 242.61 1269.7C251.512 1275.25 261.109 1280.33 271.335 1284.93Z" fill="url(#paint12_linear_280_693)"/>
<path d="M1530.74 477.569C1540.87 482.126 1550.33 487.131 1559.13 492.629C1602.9 519.922 1627.33 557.314 1631.76 603.749C1649.49 790.052 1336.28 1065.15 933.532 1217C662.847 1319.06 409.782 1342.87 273.1 1281.39C262.977 1276.84 253.51 1271.83 244.698 1266.34C200.944 1239.04 176.504 1201.66 172.084 1155.21C154.345 968.917 467.57 693.814 870.305 541.968C1141 439.904 1394.07 416.079 1530.74 477.569ZM271.335 1284.93C409.022 1346.88 663.258 1323.14 934.933 1220.71C1339.23 1068.27 1653.6 791.341 1635.7 603.376C1631.15 555.644 1606.1 517.249 1561.23 489.273C1432.5 408.975 1160.77 428.219 868.911 538.265C464.606 690.696 150.247 967.624 168.141 1155.59C172.688 1203.32 197.744 1241.72 242.61 1269.7C251.512 1275.25 261.109 1280.33 271.335 1284.93Z" fill="url(#paint13_linear_280_693)" fill-opacity="0.6"/>
<path d="M1541.85 499.772C1561.32 508.53 1578.53 518.767 1593.25 530.482C1634.63 563.425 1654.01 605.989 1650.85 656.988C1638.69 853.084 1292.54 1112.2 879.224 1234.6C586.571 1321.27 324.123 1318.87 210.588 1228.48C169.212 1195.54 149.83 1152.97 152.995 1101.97C165.154 905.877 511.297 646.761 924.608 524.364C1179.32 448.934 1411.17 440.975 1541.85 499.772ZM260.173 1262.68C391.835 1321.92 624.753 1314.09 880.346 1238.4C1295.13 1115.56 1642.54 854.85 1654.8 657.236C1658.04 604.864 1638.16 561.182 1595.72 527.387C1481.22 436.221 1217.35 433.541 923.496 520.565C508.712 643.402 161.288 904.105 149.041 1101.73C145.79 1154.09 165.671 1197.78 208.119 1231.57C223.027 1243.44 240.461 1253.81 260.173 1262.68Z" fill="url(#paint14_linear_280_693)"/>
<path d="M1541.85 499.772C1561.32 508.53 1578.53 518.767 1593.25 530.482C1634.63 563.425 1654.01 605.989 1650.85 656.988C1638.69 853.084 1292.54 1112.2 879.224 1234.6C586.571 1321.27 324.123 1318.87 210.588 1228.48C169.212 1195.54 149.83 1152.97 152.995 1101.97C165.154 905.877 511.297 646.761 924.608 524.364C1179.32 448.934 1411.17 440.975 1541.85 499.772ZM260.173 1262.68C391.835 1321.92 624.753 1314.09 880.346 1238.4C1295.13 1115.56 1642.54 854.85 1654.8 657.236C1658.04 604.864 1638.16 561.182 1595.72 527.387C1481.22 436.221 1217.35 433.541 923.496 520.565C508.712 643.402 161.288 904.105 149.041 1101.73C145.79 1154.09 165.671 1197.78 208.119 1231.57C223.027 1243.44 240.461 1253.81 260.173 1262.68Z" fill="url(#paint15_linear_280_693)" fill-opacity="0.6"/>
<path d="M1544.97 521.831C1574.83 535.264 1599.81 551.595 1619.12 570.77C1658.58 609.965 1672.65 658.248 1660.93 714.294C1618.31 917.923 1242.85 1157.39 823.96 1248.11C535.238 1310.63 284.327 1287.11 184.721 1188.2C145.251 1149.01 131.184 1100.72 142.909 1044.68C185.523 841.049 560.988 601.581 979.885 510.861C1212.63 460.456 1420.82 465.973 1544.97 521.831ZM258.083 1241.34C303.678 1261.85 360.732 1275.83 427.305 1282.55C541.625 1294.11 679.078 1283.53 824.793 1251.98C1245.07 1160.95 1621.9 920.119 1664.81 715.102C1676.82 657.665 1662.39 608.158 1621.91 567.96C1572.95 519.341 1488.09 487.679 1376.53 476.412C1262.21 464.865 1124.76 475.442 979.045 506.988C558.764 598.006 181.939 838.852 139.039 1043.87C127.015 1101.3 141.447 1150.81 181.929 1191C201.671 1210.61 227.263 1227.47 258.083 1241.34Z" fill="url(#paint16_linear_280_693)"/>
<path d="M1544.97 521.831C1574.83 535.264 1599.81 551.595 1619.12 570.77C1658.58 609.965 1672.65 658.248 1660.93 714.294C1618.31 917.923 1242.85 1157.39 823.96 1248.11C535.238 1310.63 284.327 1287.11 184.721 1188.2C145.251 1149.01 131.184 1100.72 142.909 1044.68C185.523 841.049 560.988 601.581 979.885 510.861C1212.63 460.456 1420.82 465.973 1544.97 521.831ZM258.083 1241.34C303.678 1261.85 360.732 1275.83 427.305 1282.55C541.625 1294.11 679.078 1283.53 824.793 1251.98C1245.07 1160.95 1621.9 920.119 1664.81 715.102C1676.82 657.665 1662.39 608.158 1621.91 567.96C1572.95 519.341 1488.09 487.679 1376.53 476.412C1262.21 464.865 1124.76 475.442 979.045 506.988C558.764 598.006 181.939 838.852 139.039 1043.87C127.015 1101.3 141.447 1150.81 181.929 1191C201.671 1210.61 227.263 1227.47 258.083 1241.34Z" fill="url(#paint17_linear_280_693)" fill-opacity="0.6"/>
<path d="M1537.03 540.533C1579.68 559.723 1613.66 583.918 1637.26 612.835C1674.98 659.07 1683.19 713.639 1661.65 775.027C1588.4 983.769 1187.69 1200.09 768.405 1257.24C561.198 1285.48 382.294 1270.37 266.809 1218.43C224.155 1199.24 190.18 1175.04 166.582 1146.12C128.859 1099.89 120.652 1045.32 142.192 983.935C215.449 775.192 616.151 558.874 1035.44 501.721C1242.65 473.48 1421.55 488.577 1537.03 540.533ZM265.064 1221.91C381.377 1274.24 561.036 1289.5 768.938 1261.16C1189.55 1203.83 1591.69 986.344 1665.38 776.335C1687.1 714.446 1678.44 657.039 1640.32 610.333C1551.98 502.061 1320 458.943 1034.89 497.799C614.3 555.129 212.155 772.625 138.463 982.627C116.739 1044.51 125.403 1101.92 163.522 1148.63C187.435 1177.94 221.891 1202.48 265.064 1221.91Z" fill="url(#paint18_linear_280_693)"/>
<path d="M1537.03 540.533C1579.68 559.723 1613.66 583.918 1637.26 612.835C1674.98 659.07 1683.19 713.639 1661.65 775.027C1588.4 983.769 1187.69 1200.09 768.405 1257.24C561.198 1285.48 382.294 1270.37 266.809 1218.43C224.155 1199.24 190.18 1175.04 166.582 1146.12C128.859 1099.89 120.652 1045.32 142.192 983.935C215.449 775.192 616.151 558.874 1035.44 501.721C1242.65 473.48 1421.55 488.577 1537.03 540.533ZM265.064 1221.91C381.377 1274.24 561.036 1289.5 768.938 1261.16C1189.55 1203.83 1591.69 986.344 1665.38 776.335C1687.1 714.446 1678.44 657.039 1640.32 610.333C1551.98 502.061 1320 458.943 1034.89 497.799C614.3 555.129 212.155 772.625 138.463 982.627C116.739 1044.51 125.403 1101.92 163.522 1148.63C187.435 1177.94 221.891 1202.48 265.064 1221.91Z" fill="url(#paint19_linear_280_693)" fill-opacity="0.6"/>
<path d="M1520.84 557.307C1578.24 583.132 1621.89 616.425 1648.16 656.173C1683.49 709.62 1685.08 772.671 1652.78 838.5C1549.1 1049.83 1127.64 1239.72 713.278 1261.8C443.646 1276.17 229.993 1215.23 155.693 1102.79C120.367 1049.34 118.766 986.291 151.072 920.464C254.755 709.135 676.21 519.244 1090.58 497.166C1264.9 487.873 1415.85 510.069 1520.84 557.307ZM281.357 1205.17C387.048 1252.73 538.589 1275.07 713.49 1265.75C1129.13 1243.6 1552.1 1052.72 1656.34 840.248C1689.29 773.083 1687.6 708.676 1651.46 653.984C1576.38 540.376 1361.39 478.772 1090.36 493.213C674.719 515.356 251.756 706.24 147.509 918.713C114.559 985.879 116.25 1050.29 152.389 1104.98C179.019 1145.27 223.266 1179.04 281.357 1205.17Z" fill="url(#paint20_linear_280_693)"/>
<path d="M1520.84 557.307C1578.24 583.132 1621.89 616.425 1648.16 656.173C1683.49 709.62 1685.08 772.671 1652.78 838.5C1549.1 1049.83 1127.64 1239.72 713.278 1261.8C443.646 1276.17 229.993 1215.23 155.693 1102.79C120.367 1049.34 118.766 986.291 151.072 920.464C254.755 709.135 676.21 519.244 1090.58 497.166C1264.9 487.873 1415.85 510.069 1520.84 557.307ZM281.357 1205.17C387.048 1252.73 538.589 1275.07 713.49 1265.75C1129.13 1243.6 1552.1 1052.72 1656.34 840.248C1689.29 773.083 1687.6 708.676 1651.46 653.984C1576.38 540.376 1361.39 478.772 1090.36 493.213C674.719 515.356 251.756 706.24 147.509 918.713C114.559 985.879 116.25 1050.29 152.389 1104.98C179.019 1145.27 223.266 1179.04 281.357 1205.17Z" fill="url(#paint21_linear_280_693)" fill-opacity="0.6"/>
<path d="M1493.51 567.492C1568.98 601.445 1623.85 646.496 1652.3 700.338C1685.25 762.684 1678.99 833.099 1634.2 903.981C1500.7 1115.25 1063.34 1275.69 659.272 1261.62C403.823 1252.72 214.014 1176.83 151.537 1058.62C118.59 996.289 124.852 925.867 169.641 854.981C303.144 643.712 740.494 483.277 1144.57 497.349C1283.66 502.19 1403.3 526.904 1493.51 567.492ZM308.763 1195.05C399.508 1235.88 519.605 1260.72 659.128 1265.57C1064.46 1279.69 1503.38 1118.43 1637.55 906.097C1683.14 833.943 1689.45 762.156 1655.8 698.492C1592.65 579.009 1401.59 502.34 1144.71 493.389C739.381 479.281 300.459 640.539 166.291 852.866C120.701 925.02 114.385 996.807 148.041 1060.47C176.891 1115.06 232.443 1160.72 308.763 1195.05Z" fill="url(#paint22_linear_280_693)"/>
<path d="M1493.51 567.492C1568.98 601.445 1623.85 646.496 1652.3 700.338C1685.25 762.684 1678.99 833.099 1634.2 903.981C1500.7 1115.25 1063.34 1275.69 659.272 1261.62C403.823 1252.72 214.014 1176.83 151.537 1058.62C118.59 996.289 124.852 925.867 169.641 854.981C303.144 643.712 740.494 483.277 1144.57 497.349C1283.66 502.19 1403.3 526.904 1493.51 567.492ZM308.763 1195.05C399.508 1235.88 519.605 1260.72 659.128 1265.57C1064.46 1279.69 1503.38 1118.43 1637.55 906.097C1683.14 833.943 1689.45 762.156 1655.8 698.492C1592.65 579.009 1401.59 502.34 1144.71 493.389C739.381 479.281 300.459 640.539 166.291 852.866C120.701 925.02 114.385 996.807 148.041 1060.47C176.891 1115.06 232.443 1160.72 308.763 1195.05Z" fill="url(#paint23_linear_280_693)" fill-opacity="0.6"/>
<path d="M1455.34 571.437C1553.03 615.388 1621.49 675.131 1650.18 745.037C1679.86 817.32 1664.56 895.342 1605.92 970.665C1443.61 1179.19 995.53 1307.46 607.107 1256.59C372.961 1225.93 203.451 1135.21 153.652 1013.92C123.978 941.642 139.285 863.619 197.915 788.293C360.236 579.767 808.298 451.498 1196.73 502.368C1295.93 515.366 1383.54 539.131 1455.34 571.437ZM347.002 1191.14C419.167 1223.62 507.077 1247.48 606.593 1260.52C996.261 1311.55 1445.96 1182.62 1609.05 973.102C1668.61 896.59 1684.1 817.21 1653.85 743.538C1603.51 620.918 1432.81 529.291 1197.25 498.446C807.577 447.415 357.877 576.345 194.787 785.866C135.232 862.371 119.742 941.751 149.99 1015.42C179.061 1086.25 248.316 1146.74 347.002 1191.14Z" fill="url(#paint24_linear_280_693)"/>
<path d="M1455.34 571.437C1553.03 615.388 1621.49 675.131 1650.18 745.037C1679.86 817.32 1664.56 895.342 1605.92 970.665C1443.61 1179.19 995.53 1307.46 607.107 1256.59C372.961 1225.93 203.451 1135.21 153.652 1013.92C123.978 941.642 139.285 863.619 197.915 788.293C360.236 579.767 808.298 451.498 1196.73 502.368C1295.93 515.366 1383.54 539.131 1455.34 571.437ZM347.002 1191.14C419.167 1223.62 507.077 1247.48 606.593 1260.52C996.261 1311.55 1445.96 1182.62 1609.05 973.102C1668.61 896.59 1684.1 817.21 1653.85 743.538C1603.51 620.918 1432.81 529.291 1197.25 498.446C807.577 447.415 357.877 576.345 194.787 785.866C135.232 862.371 119.742 941.751 149.99 1015.42C179.061 1086.25 248.316 1146.74 347.002 1191.14Z" fill="url(#paint25_linear_280_693)" fill-opacity="0.6"/>
<path d="M1406.33 565.888C1530.74 621.86 1615.42 700.836 1642.28 790.117C1667.34 873.347 1641.67 958.971 1568.09 1037.74C1378.34 1240.81 924.993 1334.55 557.486 1246.68C346.759 1196.3 198.747 1092.44 161.556 968.848C136.504 885.621 162.159 799.991 235.758 721.227C425.498 518.152 878.853 424.422 1246.35 512.284C1304.84 526.271 1358.53 544.383 1406.33 565.888ZM396.011 1196.73C444.02 1218.33 497.882 1236.5 556.566 1250.54C925.307 1338.69 1380.37 1244.45 1570.97 1040.45C1645.59 960.586 1671.56 873.632 1646.08 788.981C1608.47 664.022 1459.38 559.136 1247.28 508.432C878.539 420.275 423.48 514.522 232.861 718.525C158.253 798.381 132.29 885.336 157.76 969.994C184.964 1060.37 270.491 1140.26 396.011 1196.73Z" fill="url(#paint26_linear_280_693)"/>
<path d="M1406.33 565.888C1530.74 621.86 1615.42 700.836 1642.28 790.117C1667.34 873.347 1641.67 958.971 1568.09 1037.74C1378.34 1240.81 924.993 1334.55 557.486 1246.68C346.759 1196.3 198.747 1092.44 161.556 968.848C136.504 885.621 162.159 799.991 235.758 721.227C425.498 518.152 878.853 424.422 1246.35 512.284C1304.84 526.271 1358.53 544.383 1406.33 565.888ZM396.011 1196.73C444.02 1218.33 497.882 1236.5 556.566 1250.54C925.307 1338.69 1380.37 1244.45 1570.97 1040.45C1645.59 960.586 1671.56 873.632 1646.08 788.981C1608.47 664.022 1459.38 559.136 1247.28 508.432C878.539 420.275 423.48 514.522 232.861 718.525C158.253 798.381 132.29 885.336 157.76 969.994C184.964 1060.37 270.491 1140.26 396.011 1196.73Z" fill="url(#paint27_linear_280_693)" fill-opacity="0.6"/>
<path d="M1352.98 551.504C1507.57 621.056 1606.96 722.532 1629.05 835.654C1647.6 930.646 1610.21 1023.56 1520.94 1104.35C1305.55 1299.26 852.542 1356.48 511.102 1231.91C322.227 1162.99 199.634 1050.51 174.798 923.311C156.247 828.32 193.626 735.405 282.908 654.617C498.29 459.699 951.304 402.481 1292.74 527.057C1313.64 534.685 1333.74 542.847 1352.98 551.504ZM449.291 1211.09C468.6 1219.78 488.768 1227.97 509.747 1235.63C852.424 1360.66 1307.23 1303.09 1523.59 1107.28C1612.66 1026.68 1651.5 929.949 1632.93 834.894C1607.82 706.305 1484.31 592.747 1294.1 523.342C951.419 398.314 496.609 455.883 280.249 651.677C191.182 732.282 152.348 829.016 170.912 924.071C193.251 1038.48 293.477 1140.99 449.291 1211.09Z" fill="url(#paint28_linear_280_693)"/>
<path d="M1352.98 551.504C1507.57 621.056 1606.96 722.532 1629.05 835.654C1647.6 930.646 1610.21 1023.56 1520.94 1104.35C1305.55 1299.26 852.542 1356.48 511.102 1231.91C322.227 1162.99 199.634 1050.51 174.798 923.311C156.247 828.32 193.626 735.405 282.908 654.617C498.29 459.699 951.304 402.481 1292.74 527.057C1313.64 534.685 1333.74 542.847 1352.98 551.504ZM449.291 1211.09C468.6 1219.78 488.768 1227.97 509.747 1235.63C852.424 1360.66 1307.23 1303.09 1523.59 1107.28C1612.66 1026.68 1651.5 929.949 1632.93 834.894C1607.82 706.305 1484.31 592.747 1294.1 523.342C951.419 398.314 496.609 455.883 280.249 651.677C191.182 732.282 152.348 829.016 170.912 924.071C193.251 1038.48 293.477 1140.99 449.291 1211.09Z" fill="url(#paint29_linear_280_693)" fill-opacity="0.6"/>
<path d="M1293.53 526.492C1307.69 532.862 1321.56 539.55 1335.23 546.618C1498.78 631.19 1599.2 753.46 1610.77 882.066C1620.26 987.693 1568.44 1089.83 1464.86 1169.65C1236.5 1345.64 817.948 1370.87 510.32 1232.48C496.154 1226.11 482.281 1219.42 468.624 1212.35C305.075 1127.78 204.649 1005.51 193.083 876.902C183.592 771.281 235.401 669.143 338.979 589.318C567.351 413.33 985.897 388.083 1293.53 526.492ZM508.636 1236.06C817.527 1375.04 1237.84 1349.61 1467.28 1172.79C1571.97 1092.11 1624.33 988.736 1614.71 881.707C1603.02 751.726 1501.82 628.308 1337.05 543.102C1025.36 381.911 576.546 401.248 336.565 586.184C231.88 666.86 179.52 770.239 189.14 877.258C200.829 1007.24 302.028 1130.66 466.798 1215.86C480.475 1222.94 494.464 1229.68 508.636 1236.06Z" fill="url(#paint30_linear_280_693)"/>
<path d="M1293.53 526.492C1307.69 532.862 1321.56 539.55 1335.23 546.618C1498.78 631.19 1599.2 753.46 1610.77 882.066C1620.26 987.693 1568.44 1089.83 1464.86 1169.65C1236.5 1345.64 817.948 1370.87 510.32 1232.48C496.154 1226.11 482.281 1219.42 468.624 1212.35C305.075 1127.78 204.649 1005.51 193.083 876.902C183.592 771.281 235.401 669.143 338.979 589.318C567.351 413.33 985.897 388.083 1293.53 526.492ZM508.636 1236.06C817.527 1375.04 1237.84 1349.61 1467.28 1172.79C1571.97 1092.11 1624.33 988.736 1614.71 881.707C1603.02 751.726 1501.82 628.308 1337.05 543.102C1025.36 381.911 576.546 401.248 336.565 586.184C231.88 666.86 179.52 770.239 189.14 877.258C200.829 1007.24 302.028 1130.66 466.798 1215.86C480.475 1222.94 494.464 1229.68 508.636 1236.06Z" fill="url(#paint31_linear_280_693)" fill-opacity="0.6"/>
<path d="M1238.85 494.373C1286.52 515.82 1331.68 541.312 1373.19 570.812C1511.73 669.247 1589.82 800.206 1587.44 930.103C1585.29 1047.47 1518.85 1154.95 1400.37 1232.77C1140.5 1403.45 705.474 1383.42 430.638 1188.15C292.113 1089.71 214.029 958.758 216.405 828.861C218.553 711.501 284.985 604.008 403.473 526.195C624.083 381.298 970.937 373.835 1238.85 494.373ZM563.249 1268.13C832.386 1389.22 1180.84 1381.69 1402.54 1236.08C1522.15 1157.52 1589.22 1048.88 1591.4 930.18C1593.8 798.945 1515.11 666.786 1375.49 567.586C1099.44 371.44 662.42 351.387 401.294 522.886C281.691 601.44 214.62 710.078 212.451 828.784C210.048 960.019 288.736 1092.17 428.357 1191.38C470.016 1220.99 515.404 1246.6 563.249 1268.13Z" fill="url(#paint32_linear_280_693)"/>
<path d="M1238.85 494.373C1286.52 515.82 1331.68 541.312 1373.19 570.812C1511.73 669.247 1589.82 800.206 1587.44 930.103C1585.29 1047.47 1518.85 1154.95 1400.37 1232.77C1140.5 1403.45 705.474 1383.42 430.638 1188.15C292.113 1089.71 214.029 958.758 216.405 828.861C218.553 711.501 284.985 604.008 403.473 526.195C624.083 381.298 970.937 373.835 1238.85 494.373ZM563.249 1268.13C832.386 1389.22 1180.84 1381.69 1402.54 1236.08C1522.15 1157.52 1589.22 1048.88 1591.4 930.18C1593.8 798.945 1515.11 666.786 1375.49 567.586C1099.44 371.44 662.42 351.387 401.294 522.886C281.691 601.44 214.62 710.078 212.451 828.784C210.048 960.019 288.736 1092.17 428.357 1191.38C470.016 1220.99 515.404 1246.6 563.249 1268.13Z" fill="url(#paint33_linear_280_693)" fill-opacity="0.6"/>
<path d="M1193.56 457.262C1272.86 492.939 1345.51 540.579 1406.08 599.446C1522.05 712.154 1576.22 847.629 1558.58 980.9C1541.67 1108.74 1459.81 1219.53 1328.1 1292.87C1121.73 1407.76 838.593 1404.41 610.288 1301.71C530.979 1266.03 458.341 1218.39 397.77 1159.52C281.788 1046.81 227.633 911.348 245.274 778.07C262.187 650.23 344.044 539.437 475.757 466.102C682.121 351.206 965.267 354.548 1193.56 457.262ZM608.555 1305.24C838.025 1408.49 1122.57 1411.83 1330.02 1296.32C1462.85 1222.37 1545.42 1110.53 1562.51 981.418C1580.31 846.871 1525.73 710.208 1408.84 596.601C1172.74 367.145 753.294 307.045 473.833 462.646C340.994 536.601 258.434 648.443 241.345 777.552C223.538 912.096 278.115 1048.76 395.003 1162.37C455.85 1221.5 528.9 1269.39 608.555 1305.24Z" fill="url(#paint34_linear_280_693)"/>
<path d="M1193.56 457.262C1272.86 492.939 1345.51 540.579 1406.08 599.446C1522.05 712.154 1576.22 847.629 1558.58 980.9C1541.67 1108.74 1459.81 1219.53 1328.1 1292.87C1121.73 1407.76 838.593 1404.41 610.288 1301.71C530.979 1266.03 458.341 1218.39 397.77 1159.52C281.788 1046.81 227.633 911.348 245.274 778.07C262.187 650.23 344.044 539.437 475.757 466.102C682.121 351.206 965.267 354.548 1193.56 457.262ZM608.555 1305.24C838.025 1408.49 1122.57 1411.83 1330.02 1296.32C1462.85 1222.37 1545.42 1110.53 1562.51 981.418C1580.31 846.871 1525.73 710.208 1408.84 596.601C1172.74 367.145 753.294 307.045 473.833 462.646C340.994 536.601 258.434 648.443 241.345 777.552C223.538 912.096 278.115 1048.76 395.003 1162.37C455.85 1221.5 528.9 1269.39 608.555 1305.24Z" fill="url(#paint35_linear_280_693)" fill-opacity="0.6"/>
<path d="M1161.34 417.483C1268.91 465.878 1364.34 538.669 1433.34 632.238C1525.59 757.32 1557.43 900.59 1523 1035.66C1488.37 1171.5 1390.98 1282.82 1248.75 1349.1C955.653 1485.7 561.677 1385.95 370.502 1126.73C278.253 1001.64 246.411 858.375 280.848 723.303C315.474 587.461 412.87 476.15 555.098 409.865C742.397 322.571 970.9 331.799 1161.34 417.483ZM640.824 1345.03C832.322 1431.19 1062.09 1440.46 1250.42 1352.69C1393.74 1285.89 1491.91 1173.66 1526.83 1036.64C1561.57 900.394 1529.5 755.936 1436.53 629.883C1244.3 369.232 848.14 268.919 553.424 406.274C410.103 473.071 311.932 585.316 277.004 722.322C242.277 858.571 274.351 1003.02 367.312 1129.08C436.702 1223.17 532.658 1296.36 640.824 1345.03Z" fill="url(#paint36_linear_280_693)"/>
<path d="M1161.34 417.483C1268.91 465.878 1364.34 538.669 1433.34 632.238C1525.59 757.32 1557.43 900.59 1523 1035.66C1488.37 1171.5 1390.98 1282.82 1248.75 1349.1C955.653 1485.7 561.677 1385.95 370.502 1126.73C278.253 1001.64 246.411 858.375 280.848 723.303C315.474 587.461 412.87 476.15 555.098 409.865C742.397 322.571 970.9 331.799 1161.34 417.483ZM640.824 1345.03C832.322 1431.19 1062.09 1440.46 1250.42 1352.69C1393.74 1285.89 1491.91 1173.66 1526.83 1036.64C1561.57 900.394 1529.5 755.936 1436.53 629.883C1244.3 369.232 848.14 268.919 553.424 406.274C410.103 473.071 311.932 585.316 277.004 722.322C242.277 858.571 274.351 1003.02 367.312 1129.08C436.702 1223.17 532.658 1296.36 640.824 1345.03Z" fill="url(#paint37_linear_280_693)" fill-opacity="0.6"/>
<path d="M1144.76 377.483C1276.36 436.695 1388.6 537.249 1454.54 668.882C1523.57 806.683 1532.18 958.14 1478.81 1095.35C1424.33 1235.39 1312.24 1343.82 1163.2 1400.68C858.42 1516.93 493.311 1377.6 349.297 1090.08C280.279 952.279 271.663 800.822 325.039 663.612C379.516 523.575 491.596 415.145 640.644 358.286C805.883 295.255 988.894 307.358 1144.76 377.483ZM657.463 1385.06C814.296 1455.62 998.351 1467.8 1164.61 1404.37C1314.71 1347.11 1427.61 1237.88 1482.49 1096.79C1536.28 958.52 1527.61 805.928 1458.08 667.109C1313.18 377.818 945.852 237.626 639.231 354.59C489.131 411.848 376.235 521.087 321.352 662.175C267.558 800.439 276.235 953.042 345.761 1091.85C412.089 1224.28 525.07 1325.49 657.463 1385.06Z" fill="url(#paint38_linear_280_693)"/>
<path d="M1144.76 377.483C1276.36 436.695 1388.6 537.249 1454.54 668.882C1523.57 806.683 1532.18 958.14 1478.81 1095.35C1424.33 1235.39 1312.24 1343.82 1163.2 1400.68C858.42 1516.93 493.311 1377.6 349.297 1090.08C280.279 952.279 271.663 800.822 325.039 663.612C379.516 523.575 491.596 415.145 640.644 358.286C805.883 295.255 988.894 307.358 1144.76 377.483ZM657.463 1385.06C814.296 1455.62 998.351 1467.8 1164.61 1404.37C1314.71 1347.11 1427.61 1237.88 1482.49 1096.79C1536.28 958.52 1527.61 805.928 1458.08 667.109C1313.18 377.818 945.852 237.626 639.231 354.59C489.131 411.848 376.235 521.087 321.352 662.175C267.558 800.439 276.235 953.042 345.761 1091.85C412.089 1224.28 525.07 1325.49 657.463 1385.06Z" fill="url(#paint39_linear_280_693)" fill-opacity="0.6"/>
<path d="M1144.53 339.325C1295.8 407.388 1417.91 538.057 1469.28 709.027C1563.27 1021.87 1385.21 1352.85 1072.38 1446.83C930.515 1489.45 784.864 1476.11 659.328 1419.64C508.043 1351.59 385.941 1220.91 334.578 1049.94C240.587 737.099 418.629 406.126 731.47 312.135C873.339 269.515 1018.99 282.846 1144.53 339.325ZM657.703 1423.25C784.091 1480.12 930.685 1493.54 1073.52 1450.63C1388.45 1356.01 1567.68 1022.82 1473.07 707.888C1378.45 392.961 1045.25 213.724 730.331 308.341C415.404 402.964 236.164 736.146 330.784 1051.08C382.489 1223.17 505.425 1354.74 657.703 1423.25Z" fill="url(#paint40_linear_280_693)"/>
<path d="M1144.53 339.325C1295.8 407.388 1417.91 538.057 1469.28 709.027C1563.27 1021.87 1385.21 1352.85 1072.38 1446.83C930.515 1489.45 784.864 1476.11 659.328 1419.64C508.043 1351.59 385.941 1220.91 334.578 1049.94C240.587 737.099 418.629 406.126 731.47 312.135C873.339 269.515 1018.99 282.846 1144.53 339.325ZM657.703 1423.25C784.091 1480.12 930.685 1493.54 1073.52 1450.63C1388.45 1356.01 1567.68 1022.82 1473.07 707.888C1378.45 392.961 1045.25 213.724 730.331 308.341C415.404 402.964 236.164 736.146 330.784 1051.08C382.489 1223.17 505.425 1354.74 657.703 1423.25Z" fill="url(#paint41_linear_280_693)" fill-opacity="0.6"/>
</g>
<defs>
<linearGradient id="paint0_linear_280_693" x1="422.471" y1="1343.72" x2="1715.69" y2="680.05" gradientUnits="userSpaceOnUse">
<stop stop-color="#EBBD84"/>
<stop offset="1" stop-color="#3353A8"/>
</linearGradient>
<linearGradient id="paint1_linear_280_693" x1="834.687" y1="1011.66" x2="1095.23" y2="315.337" gradientUnits="userSpaceOnUse">
<stop stop-color="#1B1B1B" stop-opacity="0.1"/>
<stop offset="1" stop-color="#1B1B1B"/>
</linearGradient>
<linearGradient id="paint2_linear_280_693" x1="406.052" y1="1347.74" x2="1726.93" y2="640.482" gradientUnits="userSpaceOnUse">
<stop stop-color="#EBBD84"/>
<stop offset="1" stop-color="#3353A8"/>
</linearGradient>
<linearGradient id="paint3_linear_280_693" x1="833.313" y1="1013.77" x2="1099.88" y2="306.274" gradientUnits="userSpaceOnUse">
<stop stop-color="#1B1B1B" stop-opacity="0.1"/>
<stop offset="1" stop-color="#1B1B1B"/>
</linearGradient>
<linearGradient id="paint4_linear_280_693" x1="388.847" y1="1346.51" x2="1728.71" y2="586.247" gradientUnits="userSpaceOnUse">
<stop stop-color="#EBBD84"/>
<stop offset="1" stop-color="#3353A8"/>
</linearGradient>
<linearGradient id="paint5_linear_280_693" x1="832.313" y1="1014.87" x2="1103.65" y2="301.417" gradientUnits="userSpaceOnUse">
<stop stop-color="#1B1B1B" stop-opacity="0.1"/>
<stop offset="1" stop-color="#1B1B1B"/>
</linearGradient>
<linearGradient id="paint6_linear_280_693" x1="372.199" y1="1340.48" x2="1719.61" y2="524.793" gradientUnits="userSpaceOnUse">
<stop stop-color="#EBBD84"/>
<stop offset="1" stop-color="#3353A8"/>
</linearGradient>
<linearGradient id="paint7_linear_280_693" x1="831.72" y1="1014.95" x2="1106.14" y2="300.796" gradientUnits="userSpaceOnUse">
<stop stop-color="#1B1B1B" stop-opacity="0.1"/>
<stop offset="1" stop-color="#1B1B1B"/>
</linearGradient>
<linearGradient id="paint8_linear_280_693" x1="356.911" y1="1330.33" x2="1699.69" y2="461.809" gradientUnits="userSpaceOnUse">
<stop stop-color="#EBBD84"/>
<stop offset="1" stop-color="#3353A8"/>
</linearGradient>
<linearGradient id="paint9_linear_280_693" x1="831.538" y1="1014.09" x2="1107.2" y2="304.096" gradientUnits="userSpaceOnUse">
<stop stop-color="#1B1B1B" stop-opacity="0.1"/>
<stop offset="1" stop-color="#1B1B1B"/>
</linearGradient>
<linearGradient id="paint10_linear_280_693" x1="343.249" y1="1315.84" x2="1668.07" y2="399.142" gradientUnits="userSpaceOnUse">
<stop stop-color="#EBBD84"/>
<stop offset="1" stop-color="#3353A8"/>
</linearGradient>
<linearGradient id="paint11_linear_280_693" x1="831.799" y1="1012.21" x2="1106.67" y2="311.572" gradientUnits="userSpaceOnUse">
<stop stop-color="#1B1B1B" stop-opacity="0.1"/>
<stop offset="1" stop-color="#1B1B1B"/>
</linearGradient>
<linearGradient id="paint12_linear_280_693" x1="331.848" y1="1297.88" x2="1626.61" y2="341.402" gradientUnits="userSpaceOnUse">
<stop stop-color="#EBBD84"/>
<stop offset="1" stop-color="#3353A8"/>
</linearGradient>
<linearGradient id="paint13_linear_280_693" x1="832.479" y1="1009.46" x2="1104.57" y2="322.692" gradientUnits="userSpaceOnUse">
<stop stop-color="#1B1B1B" stop-opacity="0.1"/>
<stop offset="1" stop-color="#1B1B1B"/>
</linearGradient>
<linearGradient id="paint14_linear_280_693" x1="323.076" y1="1277.06" x2="1577.15" y2="291.066" gradientUnits="userSpaceOnUse">
<stop stop-color="#EBBD84"/>
<stop offset="1" stop-color="#3353A8"/>
</linearGradient>
<linearGradient id="paint15_linear_280_693" x1="833.552" y1="1005.91" x2="1100.98" y2="337.057" gradientUnits="userSpaceOnUse">
<stop stop-color="#1B1B1B" stop-opacity="0.1"/>
<stop offset="1" stop-color="#1B1B1B"/>
</linearGradient>
<linearGradient id="paint16_linear_280_693" x1="317.028" y1="1254.36" x2="1522.53" y2="249.804" gradientUnits="userSpaceOnUse">
<stop stop-color="#EBBD84"/>
<stop offset="1" stop-color="#3353A8"/>
</linearGradient>
<linearGradient id="paint17_linear_280_693" x1="834.951" y1="1001.77" x2="1096.17" y2="353.906" gradientUnits="userSpaceOnUse">
<stop stop-color="#1B1B1B" stop-opacity="0.1"/>
<stop offset="1" stop-color="#1B1B1B"/>
</linearGradient>
<linearGradient id="paint18_linear_280_693" x1="313.696" y1="1230.75" x2="1465.73" y2="218.28" gradientUnits="userSpaceOnUse">
<stop stop-color="#EBBD84"/>
<stop offset="1" stop-color="#3353A8"/>
</linearGradient>
<linearGradient id="paint19_linear_280_693" x1="836.596" y1="997.22" x2="1090.42" y2="372.394" gradientUnits="userSpaceOnUse">
<stop stop-color="#1B1B1B" stop-opacity="0.1"/>
<stop offset="1" stop-color="#1B1B1B"/>
</linearGradient>
<linearGradient id="paint20_linear_280_693" x1="313.111" y1="1206.92" x2="1408.93" y2="196.308" gradientUnits="userSpaceOnUse">
<stop stop-color="#EBBD84"/>
<stop offset="1" stop-color="#3353A8"/>
</linearGradient>
<linearGradient id="paint21_linear_280_693" x1="838.433" y1="992.417" x2="1083.96" y2="392.016" gradientUnits="userSpaceOnUse">
<stop stop-color="#1B1B1B" stop-opacity="0.1"/>
<stop offset="1" stop-color="#1B1B1B"/>
</linearGradient>
<linearGradient id="paint22_linear_280_693" x1="314.364" y1="1185.5" x2="1358.43" y2="183.172" gradientUnits="userSpaceOnUse">
<stop stop-color="#EBBD84"/>
<stop offset="1" stop-color="#3353A8"/>
</linearGradient>
<linearGradient id="paint23_linear_280_693" x1="840.193" y1="987.96" x2="1077.72" y2="410.262" gradientUnits="userSpaceOnUse">
<stop stop-color="#1B1B1B" stop-opacity="0.1"/>
<stop offset="1" stop-color="#1B1B1B"/>
</linearGradient>
<linearGradient id="paint24_linear_280_693" x1="317.704" y1="1166.33" x2="1314.27" y2="177.389" gradientUnits="userSpaceOnUse">
<stop stop-color="#EBBD84"/>
<stop offset="1" stop-color="#3353A8"/>
</linearGradient>
<linearGradient id="paint25_linear_280_693" x1="841.917" y1="983.794" x2="1071.71" y2="427.362" gradientUnits="userSpaceOnUse">
<stop stop-color="#1B1B1B" stop-opacity="0.1"/>
<stop offset="1" stop-color="#1B1B1B"/>
</linearGradient>
<linearGradient id="paint26_linear_280_693" x1="322.018" y1="1152.15" x2="1282.51" y2="177.159" gradientUnits="userSpaceOnUse">
<stop stop-color="#EBBD84"/>
<stop offset="1" stop-color="#3353A8"/>
</linearGradient>
<linearGradient id="paint27_linear_280_693" x1="843.31" y1="980.572" x2="1066.93" y2="440.68" gradientUnits="userSpaceOnUse">
<stop stop-color="#1B1B1B" stop-opacity="0.1"/>
<stop offset="1" stop-color="#1B1B1B"/>
</linearGradient>
<linearGradient id="paint28_linear_280_693" x1="326.823" y1="1144.9" x2="1267.51" y2="181.053" gradientUnits="userSpaceOnUse">
<stop stop-color="#EBBD84"/>
<stop offset="1" stop-color="#3353A8"/>
</linearGradient>
<linearGradient id="paint29_linear_280_693" x1="844.187" y1="978.721" x2="1064.1" y2="448.437" gradientUnits="userSpaceOnUse">
<stop stop-color="#1B1B1B" stop-opacity="0.1"/>
<stop offset="1" stop-color="#1B1B1B"/>
</linearGradient>
<linearGradient id="paint30_linear_280_693" x1="331.143" y1="1145.14" x2="1270.08" y2="187.135" gradientUnits="userSpaceOnUse">
<stop stop-color="#EBBD84"/>
<stop offset="1" stop-color="#3353A8"/>
</linearGradient>
<linearGradient id="paint31_linear_280_693" x1="844.449" y1="978.43" x2="1063.54" y2="449.822" gradientUnits="userSpaceOnUse">
<stop stop-color="#1B1B1B" stop-opacity="0.1"/>
<stop offset="1" stop-color="#1B1B1B"/>
</linearGradient>
<linearGradient id="paint32_linear_280_693" x1="334.579" y1="1154.04" x2="1292.81" y2="195.752" gradientUnits="userSpaceOnUse">
<stop stop-color="#EBBD84"/>
<stop offset="1" stop-color="#3353A8"/>
</linearGradient>
<linearGradient id="paint33_linear_280_693" x1="843.966" y1="979.967" x2="1065.64" y2="443.737" gradientUnits="userSpaceOnUse">
<stop stop-color="#1B1B1B" stop-opacity="0.1"/>
<stop offset="1" stop-color="#1B1B1B"/>
</linearGradient>
<linearGradient id="paint34_linear_280_693" x1="336.939" y1="1171.47" x2="1335.47" y2="208.518" gradientUnits="userSpaceOnUse">
<stop stop-color="#EBBD84"/>
<stop offset="1" stop-color="#3353A8"/>
</linearGradient>
<linearGradient id="paint35_linear_280_693" x1="842.751" y1="983.332" x2="1070.32" y2="430.173" gradientUnits="userSpaceOnUse">
<stop stop-color="#1B1B1B" stop-opacity="0.1"/>
<stop offset="1" stop-color="#1B1B1B"/>
</linearGradient>
<linearGradient id="paint36_linear_280_693" x1="338.094" y1="1196.74" x2="1396.24" y2="228.271" gradientUnits="userSpaceOnUse">
<stop stop-color="#EBBD84"/>
<stop offset="1" stop-color="#3353A8"/>
</linearGradient>
<linearGradient id="paint37_linear_280_693" x1="840.832" y1="988.382" x2="1077.26" y2="409.618" gradientUnits="userSpaceOnUse">
<stop stop-color="#1B1B1B" stop-opacity="0.1"/>
<stop offset="1" stop-color="#1B1B1B"/>
</linearGradient>
<linearGradient id="paint38_linear_280_693" x1="338.01" y1="1228.57" x2="1471.47" y2="258.345" gradientUnits="userSpaceOnUse">
<stop stop-color="#EBBD84"/>
<stop offset="1" stop-color="#3353A8"/>
</linearGradient>
<linearGradient id="paint39_linear_280_693" x1="838.325" y1="994.865" x2="1085.94" y2="383.06" gradientUnits="userSpaceOnUse">
<stop stop-color="#1B1B1B" stop-opacity="0.1"/>
<stop offset="1" stop-color="#1B1B1B"/>
</linearGradient>
<linearGradient id="paint40_linear_280_693" x1="336.74" y1="1265.3" x2="1555.84" y2="301.598" gradientUnits="userSpaceOnUse">
<stop stop-color="#EBBD84"/>
<stop offset="1" stop-color="#3353A8"/>
</linearGradient>
<linearGradient id="paint41_linear_280_693" x1="835.357" y1="1002.44" x2="1095.69" y2="351.853" gradientUnits="userSpaceOnUse">
<stop stop-color="#1B1B1B" stop-opacity="0.1"/>
<stop offset="1" stop-color="#1B1B1B"/>
</linearGradient>
</defs>
</svg>
