<svg width="774" height="755" viewBox="0 0 774 755" fill="none" xmlns="http://www.w3.org/2000/svg">
<g opacity="0.8">
<path d="M576.965 167.017C578.968 167.918 580.917 168.887 582.819 169.93C603.874 181.463 616.595 200.27 620.637 225.832C630.056 285.424 590.354 370.744 517.028 448.496C411.847 560.02 270.383 620.972 196.711 587.83C194.704 586.927 192.756 585.958 190.857 584.917C169.801 573.384 157.077 554.575 153.038 529.018C143.619 469.423 183.322 384.103 256.647 306.354C361.826 194.825 503.292 133.87 576.965 167.017ZM195.971 589.356C270.284 622.79 412.604 561.691 518.263 449.662C591.945 371.534 631.816 285.668 622.312 225.566C618.249 199.825 604.87 180.073 583.636 168.442C511.202 128.762 363.951 190.101 255.411 305.187C181.73 383.312 141.859 469.181 151.362 529.283C155.427 555.021 168.806 574.774 190.038 586.408C191.96 587.459 193.944 588.444 195.971 589.356Z" fill="url(#paint0_linear_347_6)"/>
<path d="M576.965 167.017C578.968 167.918 580.917 168.887 582.819 169.93C603.874 181.463 616.595 200.27 620.637 225.832C630.056 285.424 590.354 370.744 517.028 448.496C411.847 560.02 270.383 620.972 196.711 587.83C194.704 586.927 192.756 585.958 190.857 584.917C169.801 573.384 157.077 554.575 153.038 529.018C143.619 469.423 183.322 384.103 256.647 306.354C361.826 194.825 503.292 133.87 576.965 167.017ZM195.971 589.356C270.284 622.79 412.604 561.691 518.263 449.662C591.945 371.534 631.816 285.668 622.312 225.566C618.249 199.825 604.87 180.073 583.636 168.442C511.202 128.762 363.951 190.101 255.411 305.187C181.73 383.312 141.859 469.181 151.362 529.283C155.427 555.021 168.806 574.774 190.038 586.408C191.96 587.459 193.944 588.444 195.971 589.356Z" fill="url(#paint1_linear_347_6)" fill-opacity="0.6"/>
<path d="M594.27 169.797C599.577 172.184 604.478 175.045 608.947 178.4C626.224 191.369 635.529 210.385 636.596 234.92C639.333 297.551 586.291 387.187 501.469 463.277C387.663 565.362 249.158 616.42 179.409 585.05C174.1 582.665 169.2 579.804 164.729 576.445C147.452 563.476 138.147 544.46 137.077 519.924C134.346 457.296 187.388 367.659 272.209 291.572C386.013 189.483 524.523 138.416 594.27 169.797ZM178.606 586.537C248.99 618.204 388.297 567.08 502.601 464.538C587.785 388.124 641.049 297.963 638.294 234.847C637.201 209.78 627.672 190.331 609.97 177.044C546.141 129.129 394.112 179.934 271.074 290.307C185.891 366.721 132.627 456.882 135.384 520.002C136.478 545.067 146.004 564.514 163.709 577.803C168.241 581.207 173.225 584.116 178.606 586.537Z" fill="url(#paint2_linear_347_6)"/>
<path d="M594.27 169.797C599.577 172.184 604.478 175.045 608.947 178.4C626.224 191.369 635.529 210.385 636.596 234.92C639.333 297.551 586.291 387.187 501.469 463.277C387.663 565.362 249.158 616.42 179.409 585.05C174.1 582.665 169.2 579.804 164.729 576.445C147.452 563.476 138.147 544.46 137.077 519.924C134.346 457.296 187.388 367.659 272.209 291.572C386.013 189.483 524.523 138.416 594.27 169.797ZM178.606 586.537C248.99 618.204 388.297 567.08 502.601 464.538C587.785 388.124 641.049 297.963 638.294 234.847C637.201 209.78 627.672 190.331 609.97 177.044C546.141 129.129 394.112 179.934 271.074 290.307C185.891 366.721 132.627 456.882 135.384 520.002C136.478 545.067 146.004 564.514 163.709 577.803C168.241 581.207 173.225 584.116 178.606 586.537Z" fill="url(#paint3_linear_347_6)" fill-opacity="0.6"/>
<path d="M610.578 174.254C619.215 178.14 626.704 183.228 632.87 189.572C646.707 203.805 652.836 223.096 651.081 246.91C646.209 313.092 580.663 403.527 484.095 477.309C364.03 569.047 229.599 610.502 163.105 580.592C154.462 576.703 146.979 571.618 140.812 565.278C126.976 551.042 120.847 531.751 122.602 507.936C127.474 441.754 193.02 351.32 289.588 277.537C409.653 185.8 544.087 144.339 610.578 174.254ZM162.254 582.029C229.391 612.235 364.559 570.78 485.128 478.659C582.061 404.597 647.867 313.68 652.774 247.037C654.566 222.717 648.279 202.984 634.087 188.387C579.888 132.639 424.88 172.026 288.555 276.187C191.62 350.252 125.814 441.17 120.908 507.812C119.114 532.128 125.404 551.862 139.595 566.462C145.864 572.905 153.479 578.081 162.254 582.029Z" fill="url(#paint4_linear_347_6)"/>
<path d="M610.578 174.254C619.215 178.14 626.704 183.228 632.87 189.572C646.707 203.805 652.836 223.096 651.081 246.91C646.209 313.092 580.663 403.527 484.095 477.309C364.03 569.047 229.599 610.502 163.105 580.592C154.462 576.703 146.979 571.618 140.812 565.278C126.976 551.042 120.847 531.751 122.602 507.936C127.474 441.754 193.02 351.32 289.588 277.537C409.653 185.8 544.087 144.339 610.578 174.254ZM162.254 582.029C229.391 612.235 364.559 570.78 485.128 478.659C582.061 404.597 647.867 313.68 652.774 247.037C654.566 222.717 648.279 202.984 634.087 188.387C579.888 132.639 424.88 172.026 288.555 276.187C191.62 350.252 125.814 441.17 120.908 507.812C119.114 532.128 125.404 551.862 139.595 566.462C145.864 572.905 153.479 578.081 162.254 582.029Z" fill="url(#paint5_linear_347_6)" fill-opacity="0.6"/>
<path d="M625.419 180.253C637.561 185.716 647.327 193.387 654.232 203.358C664.935 218.816 668.019 238.557 663.408 262.032C649.82 331.168 571.975 420.807 465.09 490.402C317.646 586.401 162.598 613.803 119.459 551.489C108.756 536.031 105.669 516.289 110.282 492.818C123.866 423.681 201.713 334.04 308.601 264.446C432.444 183.809 561.667 151.57 625.419 180.253ZM147.405 575.989C211.796 604.96 341.675 572.783 466.019 491.825C573.268 421.995 651.403 331.923 665.074 262.359C669.778 238.418 666.601 218.243 655.626 202.391C611.967 139.328 455.874 166.529 307.672 263.022C200.419 332.854 122.285 422.924 108.614 492.487C103.91 516.428 107.087 536.603 118.062 552.455C125.092 562.61 135.045 570.428 147.405 575.989Z" fill="url(#paint6_linear_347_6)"/>
<path d="M625.419 180.253C637.561 185.716 647.327 193.387 654.232 203.358C664.935 218.816 668.019 238.557 663.408 262.032C649.82 331.168 571.975 420.807 465.09 490.402C317.646 586.401 162.598 613.803 119.459 551.489C108.756 536.031 105.669 516.289 110.282 492.818C123.866 423.681 201.713 334.04 308.601 264.446C432.444 183.809 561.667 151.57 625.419 180.253ZM147.405 575.989C211.796 604.96 341.675 572.783 466.019 491.825C573.268 421.995 651.403 331.923 665.074 262.359C669.778 238.418 666.601 218.243 655.626 202.391C611.967 139.328 455.874 166.529 307.672 263.022C200.419 332.854 122.285 422.924 108.614 492.487C103.91 516.428 107.087 536.603 118.062 552.455C125.092 562.61 135.045 570.428 147.405 575.989Z" fill="url(#paint7_linear_347_6)" fill-opacity="0.6"/>
<path d="M638.394 187.608C654.72 194.953 666.236 205.697 672.699 219.653C704.615 288.555 602.311 415.378 444.642 502.36C329.394 565.939 212.042 592.978 145.672 571.244C123.765 564.072 108.728 551.942 100.971 535.195C69.0528 466.289 171.363 339.468 329.032 252.487C444.28 188.908 561.632 161.869 628.002 183.602C631.658 184.799 635.123 186.136 638.394 187.608ZM134.569 568.785C137.899 570.283 141.426 571.641 145.143 572.858C211.938 594.73 329.82 567.643 445.465 503.848C603.896 416.444 706.523 288.634 674.24 218.939C666.279 201.744 650.899 189.311 628.531 181.988C561.736 160.116 443.851 187.202 328.209 250.998C169.778 338.403 67.1476 466.211 99.4334 535.907C106.073 550.246 117.868 561.271 134.569 568.785Z" fill="url(#paint8_linear_347_6)"/>
<path d="M638.394 187.608C654.72 194.953 666.236 205.697 672.699 219.653C704.615 288.555 602.311 415.378 444.642 502.36C329.394 565.939 212.042 592.978 145.672 571.244C123.765 564.072 108.728 551.942 100.971 535.195C69.0528 466.289 171.363 339.468 329.032 252.487C444.28 188.908 561.632 161.869 628.002 183.602C631.658 184.799 635.123 186.136 638.394 187.608ZM134.569 568.785C137.899 570.283 141.426 571.641 145.143 572.858C211.938 594.73 329.82 567.643 445.465 503.848C603.896 416.444 706.523 288.634 674.24 218.939C666.279 201.744 650.899 189.311 628.531 181.988C561.736 160.116 443.851 187.202 328.209 250.998C169.778 338.403 67.1476 466.211 99.4334 535.907C106.073 550.246 117.868 561.271 134.569 568.785Z" fill="url(#paint9_linear_347_6)" fill-opacity="0.6"/>
<path d="M648.854 195.968C649.35 196.191 649.838 196.414 650.327 196.645C670.451 206.08 683.125 220.097 688.003 238.313C708.038 313.119 589.156 436.349 422.997 513.01C301.737 568.956 184.048 586.7 123.346 558.201C103.223 548.766 90.5482 534.749 85.674 516.534C65.6382 441.728 184.516 318.499 350.676 241.836C470.959 186.339 587.667 168.439 648.854 195.968ZM124.117 560.424C185.739 588.149 302.997 570.249 423.711 514.552C590.584 437.559 709.882 313.444 689.643 237.873C684.633 219.152 671.645 204.765 651.051 195.108C589.892 166.424 471.66 184.146 349.966 240.295C183.093 317.287 63.7907 441.405 84.0304 516.973C89.0434 535.695 102.03 550.085 122.626 559.739C123.118 559.971 123.618 560.2 124.117 560.424Z" fill="url(#paint10_linear_347_6)"/>
<path d="M648.854 195.968C649.35 196.191 649.838 196.414 650.327 196.645C670.451 206.08 683.125 220.097 688.003 238.313C708.038 313.119 589.156 436.349 422.997 513.01C301.737 568.956 184.048 586.7 123.346 558.201C103.223 548.766 90.5482 534.749 85.674 516.534C65.6382 441.728 184.516 318.499 350.676 241.836C470.959 186.339 587.667 168.439 648.854 195.968ZM124.117 560.424C185.739 588.149 302.997 570.249 423.711 514.552C590.584 437.559 709.882 313.444 689.643 237.873C684.633 219.152 671.645 204.765 651.051 195.108C589.892 166.424 471.66 184.146 349.966 240.295C183.093 317.287 63.7907 441.405 84.0304 516.973C89.0434 535.695 102.03 550.085 122.626 559.739C123.118 559.971 123.618 560.2 124.117 560.424Z" fill="url(#paint11_linear_347_6)" fill-opacity="0.6"/>
<path d="M656.536 205.041C660.88 206.996 664.938 209.143 668.713 211.501C687.486 223.207 697.965 239.244 699.862 259.16C707.468 339.066 573.13 457.057 400.392 522.186C284.294 565.959 175.753 576.172 117.13 549.804C112.789 547.85 108.728 545.703 104.949 543.346C86.1826 531.64 75.6999 515.604 73.8042 495.685C66.1961 415.782 200.539 297.789 373.273 232.662C489.375 188.887 597.918 178.668 656.536 205.041ZM116.373 551.322C175.428 577.892 284.47 567.707 400.992 523.775C574.398 458.393 709.23 339.619 701.553 259.001C699.603 238.528 688.859 222.06 669.615 210.061C614.401 175.621 497.853 183.875 372.675 231.074C199.268 296.452 64.4385 415.227 72.1132 495.845C74.0633 516.317 84.8099 532.786 104.053 544.788C107.871 547.169 111.987 549.349 116.373 551.322Z" fill="url(#paint12_linear_347_6)"/>
<path d="M656.536 205.041C660.88 206.996 664.938 209.143 668.713 211.501C687.486 223.207 697.965 239.244 699.862 259.16C707.468 339.066 573.13 457.057 400.392 522.186C284.294 565.959 175.753 576.172 117.13 549.804C112.789 547.85 108.728 545.703 104.949 543.346C86.1826 531.64 75.6999 515.604 73.8042 495.685C66.1961 415.782 200.539 297.789 373.273 232.662C489.375 188.887 597.918 178.668 656.536 205.041ZM116.373 551.322C175.428 577.892 284.47 567.707 400.992 523.775C574.398 458.393 709.23 339.619 701.553 259.001C699.603 238.528 688.859 222.06 669.615 210.061C614.401 175.621 497.853 183.875 372.675 231.074C199.268 296.452 64.4385 415.227 72.1132 495.845C74.0633 516.317 84.8099 532.786 104.053 544.788C107.871 547.169 111.987 549.349 116.373 551.322Z" fill="url(#paint13_linear_347_6)" fill-opacity="0.6"/>
<path d="M661.307 214.564C669.656 218.321 677.039 222.711 683.354 227.736C701.1 241.865 709.413 260.121 708.055 281.995C702.84 366.101 554.376 477.235 377.104 529.734C251.585 566.906 139.02 565.875 90.3243 527.109C72.5779 512.979 64.2651 494.723 65.6227 472.85C70.8375 388.744 219.299 277.608 396.569 225.112C505.814 192.76 605.256 189.346 661.307 214.564ZM111.592 541.778C168.062 567.185 267.961 563.829 377.585 531.362C555.487 478.677 704.493 366.858 709.75 282.101C711.14 259.639 702.616 240.903 684.409 226.409C635.3 187.307 522.126 186.158 396.093 223.483C218.191 276.167 69.1793 387.984 63.9266 472.746C62.5324 495.203 71.0593 513.94 89.2656 528.435C95.6594 533.527 103.137 537.974 111.592 541.778Z" fill="url(#paint14_linear_347_6)"/>
<path d="M661.307 214.564C669.656 218.321 677.039 222.711 683.354 227.736C701.1 241.865 709.413 260.121 708.055 281.995C702.84 366.101 554.376 477.235 377.104 529.734C251.585 566.906 139.02 565.875 90.3243 527.109C72.5779 512.979 64.2651 494.723 65.6227 472.85C70.8375 388.744 219.299 277.608 396.569 225.112C505.814 192.76 605.256 189.346 661.307 214.564ZM111.592 541.778C168.062 567.185 267.961 563.829 377.585 531.362C555.487 478.677 704.493 366.858 709.75 282.101C711.14 259.639 702.616 240.903 684.409 226.409C635.3 187.307 522.126 186.158 396.093 223.483C218.191 276.167 69.1793 387.984 63.9266 472.746C62.5324 495.203 71.0593 513.94 89.2656 528.435C95.6594 533.527 103.137 537.974 111.592 541.778Z" fill="url(#paint15_linear_347_6)" fill-opacity="0.6"/>
<path d="M662.646 224.026C675.452 229.787 686.167 236.791 694.45 245.015C711.374 261.826 717.409 282.535 712.379 306.573C694.101 393.91 533.066 496.62 353.402 535.527C229.568 562.342 121.952 552.257 79.2304 509.832C62.3016 493.023 56.2685 472.311 61.2971 448.276C79.5746 360.939 240.612 258.23 420.278 219.32C520.105 197.702 609.397 200.068 662.646 224.026ZM110.696 532.624C130.252 541.422 154.722 547.42 183.275 550.301C232.308 555.257 291.261 550.721 353.759 537.187C534.016 498.147 695.639 394.852 714.043 306.92C719.197 282.285 713.007 261.051 695.644 243.81C674.644 222.958 638.251 209.378 590.402 204.545C541.368 199.592 482.417 204.129 419.918 217.659C239.658 256.697 78.0372 359.997 59.6372 447.928C54.4804 472.561 60.6702 493.795 78.0327 511.036C86.5002 519.445 97.4766 526.676 110.696 532.624Z" fill="url(#paint16_linear_347_6)"/>
<path d="M662.646 224.026C675.452 229.787 686.167 236.791 694.45 245.015C711.374 261.826 717.409 282.535 712.379 306.573C694.101 393.91 533.066 496.62 353.402 535.527C229.568 562.342 121.952 552.257 79.2304 509.832C62.3016 493.023 56.2685 472.311 61.2971 448.276C79.5746 360.939 240.612 258.23 420.278 219.32C520.105 197.702 609.397 200.068 662.646 224.026ZM110.696 532.624C130.252 541.422 154.722 547.42 183.275 550.301C232.308 555.257 291.261 550.721 353.759 537.187C534.016 498.147 695.639 394.852 714.043 306.92C719.197 282.285 713.007 261.051 695.644 243.81C674.644 222.958 638.251 209.378 590.402 204.545C541.368 199.592 482.417 204.129 419.918 217.659C239.658 256.697 78.0372 359.997 59.6372 447.928C54.4804 472.561 60.6702 493.795 78.0327 511.036C86.5002 519.445 97.4766 526.676 110.696 532.624Z" fill="url(#paint17_linear_347_6)" fill-opacity="0.6"/>
<path d="M659.237 232.047C677.532 240.278 692.105 250.655 702.226 263.057C718.406 282.888 721.926 306.292 712.69 332.622C681.27 422.152 509.407 514.935 329.574 539.444C240.702 551.557 163.969 545.078 114.438 522.8C96.1434 514.569 81.5711 504.189 71.4501 491.786C55.2704 471.956 51.7506 448.551 60.9893 422.223C92.4093 332.693 264.272 239.913 444.106 215.4C532.978 203.288 609.708 209.763 659.237 232.047ZM113.689 524.29C163.576 546.735 240.633 553.279 329.802 541.124C510.202 516.538 682.682 423.256 714.29 333.183C723.605 306.638 719.888 282.016 703.542 261.984C665.653 215.546 566.155 197.053 443.872 213.718C263.478 238.307 90.9964 331.592 59.3897 421.662C50.072 448.205 53.7885 472.827 70.1378 492.861C80.3938 505.433 95.1722 515.959 113.689 524.29Z" fill="url(#paint18_linear_347_6)"/>
<path d="M659.237 232.047C677.532 240.278 692.105 250.655 702.226 263.057C718.406 282.888 721.926 306.292 712.69 332.622C681.27 422.152 509.407 514.935 329.574 539.444C240.702 551.557 163.969 545.078 114.438 522.8C96.1434 514.569 81.5711 504.189 71.4501 491.786C55.2704 471.956 51.7506 448.551 60.9893 422.223C92.4093 332.693 264.272 239.913 444.106 215.4C532.978 203.288 609.708 209.763 659.237 232.047ZM113.689 524.29C163.576 546.735 240.633 553.279 329.802 541.124C510.202 516.538 682.682 423.256 714.29 333.183C723.605 306.638 719.888 282.016 703.542 261.984C665.653 215.546 566.155 197.053 443.872 213.718C263.478 238.307 90.9964 331.592 59.3897 421.662C50.072 448.205 53.7885 472.827 70.1378 492.861C80.3938 505.433 95.1722 515.959 113.689 524.29Z" fill="url(#paint19_linear_347_6)" fill-opacity="0.6"/>
<path d="M652.293 239.241C676.912 250.318 695.635 264.597 706.901 281.645C722.052 304.569 722.736 331.611 708.883 359.846C664.413 450.485 483.649 531.93 305.927 541.4C190.281 547.562 98.6448 521.427 66.7775 473.201C51.626 450.277 50.9394 423.233 64.7955 395C109.266 304.361 290.029 222.916 467.751 213.446C542.518 209.461 607.261 218.981 652.293 239.241ZM120.675 517.113C166.006 537.508 231.003 547.092 306.018 543.095C484.286 533.596 665.699 451.727 710.408 360.595C724.54 331.788 723.818 304.164 708.318 280.706C676.115 231.979 583.902 205.557 467.66 211.751C289.389 221.248 107.979 303.119 63.2673 394.249C49.1352 423.057 49.8601 450.682 65.3602 474.14C76.7821 491.421 95.7597 505.903 120.675 517.113Z" fill="url(#paint20_linear_347_6)"/>
<path d="M652.293 239.241C676.912 250.318 695.635 264.597 706.901 281.645C722.052 304.569 722.736 331.611 708.883 359.846C664.413 450.485 483.649 531.93 305.927 541.4C190.281 547.562 98.6448 521.427 66.7775 473.201C51.626 450.277 50.9394 423.233 64.7955 395C109.266 304.361 290.029 222.916 467.751 213.446C542.518 209.461 607.261 218.981 652.293 239.241ZM120.675 517.113C166.006 537.508 231.003 547.092 306.018 543.095C484.286 533.596 665.699 451.727 710.408 360.595C724.54 331.788 723.818 304.164 708.318 280.706C676.115 231.979 583.902 205.557 467.66 211.751C289.389 221.248 107.979 303.119 63.2673 394.249C49.1352 423.057 49.8601 450.682 65.3602 474.14C76.7821 491.421 95.7597 505.903 120.675 517.113Z" fill="url(#paint21_linear_347_6)" fill-opacity="0.6"/>
<path d="M640.573 243.61C672.94 258.172 696.474 277.495 708.678 300.587C722.81 327.328 720.126 357.529 700.913 387.931C643.656 478.546 456.073 547.356 282.765 541.322C173.202 537.508 91.7924 504.958 64.9958 454.258C50.8649 427.522 53.5507 397.317 72.7607 366.914C130.021 276.3 317.601 207.489 490.912 213.525C550.566 215.601 601.881 226.201 640.573 243.61ZM132.43 512.772C171.351 530.283 222.861 540.936 282.703 543.019C456.552 549.074 644.803 479.909 702.35 388.838C721.903 357.891 724.613 327.102 710.18 299.796C683.094 248.549 601.147 215.666 490.971 211.826C317.124 205.776 128.869 274.94 71.324 366.007C51.7705 396.954 49.0613 427.744 63.4963 455.051C75.8701 478.464 99.6966 498.045 132.43 512.772Z" fill="url(#paint22_linear_347_6)"/>
<path d="M640.573 243.61C672.94 258.172 696.474 277.495 708.678 300.587C722.81 327.328 720.126 357.529 700.913 387.931C643.656 478.546 456.073 547.356 282.765 541.322C173.202 537.508 91.7924 504.958 64.9958 454.258C50.8649 427.522 53.5507 397.317 72.7607 366.914C130.021 276.3 317.601 207.489 490.912 213.525C550.566 215.601 601.881 226.201 640.573 243.61ZM132.43 512.772C171.351 530.283 222.861 540.936 282.703 543.019C456.552 549.074 644.803 479.909 702.35 388.838C721.903 357.891 724.613 327.102 710.18 299.796C683.094 248.549 601.147 215.666 490.971 211.826C317.124 205.776 128.869 274.94 71.324 366.007C51.7705 396.954 49.0613 427.744 63.4963 455.051C75.8701 478.464 99.6966 498.045 132.43 512.772Z" fill="url(#paint23_linear_347_6)" fill-opacity="0.6"/>
<path d="M624.203 245.302C666.102 264.152 695.464 289.776 707.771 319.759C720.501 350.761 713.936 384.225 688.787 416.531C619.169 505.97 426.989 560.983 260.393 539.167C159.967 526.014 87.2638 487.105 65.9048 435.084C53.1776 404.083 59.743 370.619 84.8894 338.312C154.509 248.874 346.684 193.859 513.286 215.678C555.831 221.253 593.406 231.445 624.203 245.302ZM148.833 511.096C179.785 525.025 217.49 535.258 260.173 540.849C427.302 562.74 620.181 507.438 690.129 417.577C715.674 384.76 722.318 350.714 709.344 319.116C687.752 266.524 614.54 227.225 513.506 213.996C346.375 192.108 153.498 247.407 83.548 337.271C58.0047 370.084 51.361 404.13 64.3344 435.729C76.8029 466.105 106.507 492.052 148.833 511.096Z" fill="url(#paint24_linear_347_6)"/>
<path d="M624.203 245.302C666.102 264.152 695.464 289.776 707.771 319.759C720.501 350.761 713.936 384.225 688.787 416.531C619.169 505.97 426.989 560.983 260.393 539.167C159.967 526.014 87.2638 487.105 65.9048 435.084C53.1776 404.083 59.743 370.619 84.8894 338.312C154.509 248.874 346.684 193.859 513.286 215.678C555.831 221.253 593.406 231.445 624.203 245.302ZM148.833 511.096C179.785 525.025 217.49 535.258 260.173 540.849C427.302 562.74 620.181 507.438 690.129 417.577C715.674 384.76 722.318 350.714 709.344 319.116C687.752 266.524 614.54 227.225 513.506 213.996C346.375 192.108 153.498 247.407 83.548 337.271C58.0047 370.084 51.361 404.13 64.3344 435.729C76.8029 466.105 106.507 492.052 148.833 511.096Z" fill="url(#paint25_linear_347_6)" fill-opacity="0.6"/>
<path d="M603.18 242.922C656.538 266.928 692.859 300.801 704.38 339.094C715.128 374.792 704.119 411.516 672.558 445.301C591.175 532.399 396.733 572.601 239.108 534.916C148.726 513.307 85.2437 468.762 69.2927 415.752C58.5477 380.056 69.5513 343.329 101.118 309.547C182.498 222.448 376.943 182.247 534.565 219.931C559.652 225.93 582.68 233.698 603.18 242.922ZM169.851 513.492C190.442 522.756 213.544 530.55 238.714 536.569C396.867 574.38 592.043 533.957 673.796 446.461C705.8 412.209 716.936 374.914 706.01 338.607C689.878 285.011 625.934 240.026 534.962 218.279C376.808 180.468 181.632 220.89 99.8757 308.388C67.8758 342.639 56.7401 379.934 67.6643 416.244C79.3325 455.008 116.015 489.27 169.851 513.492Z" fill="url(#paint26_linear_347_6)"/>
<path d="M603.18 242.922C656.538 266.928 692.859 300.801 704.38 339.094C715.128 374.792 704.119 411.516 672.558 445.301C591.175 532.399 396.733 572.601 239.108 534.916C148.726 513.307 85.2437 468.762 69.2927 415.752C58.5477 380.056 69.5513 343.329 101.118 309.547C182.498 222.448 376.943 182.247 534.565 219.931C559.652 225.93 582.68 233.698 603.18 242.922ZM169.851 513.492C190.442 522.756 213.544 530.55 238.714 536.569C396.867 574.38 592.043 533.957 673.796 446.461C705.8 412.209 716.936 374.914 706.01 338.607C689.878 285.011 625.934 240.026 534.962 218.279C376.808 180.468 181.632 220.89 99.8757 308.388C67.8758 342.639 56.7401 379.934 67.6643 416.244C79.3325 455.008 116.015 489.27 169.851 513.492Z" fill="url(#paint27_linear_347_6)" fill-opacity="0.6"/>
<path d="M580.296 236.752C646.6 266.583 689.229 310.107 698.703 358.625C706.659 399.367 690.623 439.22 652.333 473.871C559.954 557.468 365.657 582.01 219.213 528.578C138.204 499.02 85.6234 450.777 74.9712 396.221C67.0147 355.479 83.0467 315.628 121.34 280.978C213.718 197.377 408.017 172.836 554.458 226.267C563.424 229.539 572.044 233.039 580.296 236.752ZM192.702 519.652C200.983 523.378 209.634 526.889 218.632 530.176C365.607 583.801 560.673 559.107 653.472 475.128C691.676 440.558 708.332 399.068 700.37 358.299C689.598 303.147 636.626 254.442 555.041 224.674C408.066 171.049 212.997 195.74 120.199 279.717C81.9983 314.289 65.3423 355.778 73.3042 396.547C82.8856 445.619 125.873 489.585 192.702 519.652Z" fill="url(#paint28_linear_347_6)"/>
<path d="M580.296 236.752C646.6 266.583 689.229 310.107 698.703 358.625C706.659 399.367 690.623 439.22 652.333 473.871C559.954 557.468 365.657 582.01 219.213 528.578C138.204 499.02 85.6234 450.777 74.9712 396.221C67.0147 355.479 83.0467 315.628 121.34 280.978C213.718 197.377 408.017 172.836 554.458 226.267C563.424 229.539 572.044 233.039 580.296 236.752ZM192.702 519.652C200.983 523.378 209.634 526.889 218.632 530.176C365.607 583.801 560.673 559.107 653.472 475.128C691.676 440.558 708.332 399.068 700.37 358.299C689.598 303.147 636.626 254.442 555.041 224.674C408.066 171.049 212.997 195.74 120.199 279.717C81.9983 314.289 65.3423 355.778 73.3042 396.547C82.8856 445.619 125.873 489.585 192.702 519.652Z" fill="url(#paint29_linear_347_6)" fill-opacity="0.6"/>
<path d="M554.798 226.025C560.871 228.757 566.822 231.625 572.683 234.657C642.829 270.93 685.901 323.372 690.863 378.531C694.933 423.835 672.709 467.641 628.284 501.879C530.338 577.359 350.82 588.178 218.877 528.826C212.802 526.092 206.852 523.221 200.994 520.191C130.848 483.918 87.7746 431.479 82.8138 376.317C78.7429 331.015 100.964 287.208 145.389 252.971C243.338 177.489 422.854 166.661 554.798 226.025ZM218.155 530.36C350.64 589.967 530.912 579.063 629.322 503.224C674.223 468.619 696.679 424.282 692.551 378.377C687.541 322.628 644.136 269.694 573.463 233.149C439.777 164.013 247.282 172.307 144.353 251.626C99.454 286.229 76.9968 330.568 81.1225 376.469C86.1361 432.22 129.54 485.154 200.211 521.697C206.077 524.732 212.077 527.625 218.155 530.36Z" fill="url(#paint30_linear_347_6)"/>
<path d="M554.798 226.025C560.871 228.757 566.822 231.625 572.683 234.657C642.829 270.93 685.901 323.372 690.863 378.531C694.933 423.835 672.709 467.641 628.284 501.879C530.338 577.359 350.82 588.178 218.877 528.826C212.802 526.092 206.852 523.221 200.994 520.191C130.848 483.918 87.7746 431.479 82.8138 376.317C78.7429 331.015 100.964 287.208 145.389 252.971C243.338 177.489 422.854 166.661 554.798 226.025ZM218.155 530.36C350.64 589.967 530.912 579.063 629.322 503.224C674.223 468.619 696.679 424.282 692.551 378.377C687.541 322.628 644.136 269.694 573.463 233.149C439.777 164.013 247.282 172.307 144.353 251.626C99.454 286.229 76.9968 330.568 81.1225 376.469C86.1361 432.22 129.54 485.154 200.211 521.697C206.077 524.732 212.077 527.625 218.155 530.36Z" fill="url(#paint31_linear_347_6)" fill-opacity="0.6"/>
<path d="M531.35 212.249C551.795 221.447 571.166 232.381 588.97 245.034C648.388 287.253 681.881 343.421 680.862 399.135C679.94 449.473 651.442 495.572 600.628 528.949C489.166 602.154 302.583 593.565 184.706 509.812C125.292 467.592 91.8011 411.425 92.8205 355.711C93.7416 305.375 122.234 259.271 173.054 225.897C267.674 163.751 416.441 160.549 531.35 212.249ZM241.583 544.115C357.016 596.051 506.469 592.823 601.559 530.369C652.858 496.674 681.625 450.08 682.558 399.167C683.589 342.88 649.836 286.197 589.956 243.65C471.558 159.522 284.117 150.922 172.119 224.478C120.822 258.17 92.0549 304.765 91.1244 355.679C90.0939 411.966 123.843 468.648 183.727 511.196C201.595 523.895 221.062 534.883 241.583 544.115Z" fill="url(#paint32_linear_347_6)"/>
<path d="M531.35 212.249C551.795 221.447 571.166 232.381 588.97 245.034C648.388 287.253 681.881 343.421 680.862 399.135C679.94 449.473 651.442 495.572 600.628 528.949C489.166 602.154 302.583 593.565 184.706 509.812C125.292 467.592 91.8011 411.425 92.8205 355.711C93.7416 305.375 122.234 259.271 173.054 225.897C267.674 163.751 416.441 160.549 531.35 212.249ZM241.583 544.115C357.016 596.051 506.469 592.823 601.559 530.369C652.858 496.674 681.625 450.08 682.558 399.167C683.589 342.88 649.836 286.197 589.956 243.65C471.558 159.522 284.117 150.922 172.119 224.478C120.822 258.17 92.0549 304.765 91.1244 355.679C90.0939 411.966 123.843 468.648 183.727 511.196C201.595 523.895 221.062 534.883 241.583 544.115Z" fill="url(#paint33_linear_347_6)" fill-opacity="0.6"/>
<path d="M511.922 196.332C545.932 211.633 577.094 232.067 603.073 257.315C652.812 305.656 676.044 363.761 668.479 420.921C661.225 475.752 626.116 523.272 569.624 554.725C481.111 604.003 359.675 602.565 261.754 558.52C227.738 543.215 196.584 522.782 170.605 497.534C120.86 449.19 97.6323 391.09 105.198 333.927C112.452 279.096 147.561 231.577 204.053 200.123C292.563 150.844 414.006 152.277 511.922 196.332ZM261.011 560.03C359.431 604.315 481.473 605.746 570.449 556.208C627.422 524.487 662.833 476.522 670.164 421.144C677.799 363.436 654.391 304.821 604.257 256.094C502.99 157.68 323.09 131.903 203.228 198.641C146.253 230.36 110.843 278.33 103.513 333.705C95.8759 391.411 119.284 450.026 169.418 498.753C195.515 524.114 226.847 544.656 261.011 560.03Z" fill="url(#paint34_linear_347_6)"/>
<path d="M511.922 196.332C545.932 211.633 577.094 232.067 603.073 257.315C652.812 305.656 676.044 363.761 668.479 420.921C661.225 475.752 626.116 523.272 569.624 554.725C481.111 604.003 359.675 602.565 261.754 558.52C227.738 543.215 196.584 522.782 170.605 497.534C120.86 449.19 97.6323 391.09 105.198 333.927C112.452 279.096 147.561 231.577 204.053 200.123C292.563 150.844 414.006 152.277 511.922 196.332ZM261.011 560.03C359.431 604.315 481.473 605.746 570.449 556.208C627.422 524.487 662.833 476.522 670.164 421.144C677.799 363.436 654.391 304.821 604.257 256.094C502.99 157.68 323.09 131.903 203.228 198.641C146.253 230.36 110.843 278.33 103.513 333.705C95.8759 391.411 119.284 450.026 169.418 498.753C195.515 524.114 226.847 544.656 261.011 560.03Z" fill="url(#paint35_linear_347_6)" fill-opacity="0.6"/>
<path d="M498.104 179.27C544.239 200.027 585.169 231.247 614.766 271.379C654.332 325.027 667.989 386.476 653.219 444.409C638.368 502.672 596.594 550.414 535.593 578.844C409.883 637.434 240.906 594.647 158.911 483.467C119.344 429.819 105.688 368.37 120.457 310.437C135.309 252.174 177.082 204.433 238.084 176.003C318.417 138.562 416.423 142.52 498.104 179.27ZM274.852 577.097C356.986 614.05 455.532 618.03 536.311 580.384C597.781 551.734 639.885 503.595 654.865 444.829C669.762 386.392 656.007 324.434 616.134 270.369C533.685 158.575 363.77 115.551 237.366 174.463C175.895 203.112 133.79 251.254 118.809 310.017C103.914 368.454 117.671 430.41 157.542 484.477C187.304 524.832 228.459 556.224 274.852 577.097Z" fill="url(#paint36_linear_347_6)"/>
<path d="M498.104 179.27C544.239 200.027 585.169 231.247 614.766 271.379C654.332 325.027 667.989 386.476 653.219 444.409C638.368 502.672 596.594 550.414 535.593 578.844C409.883 637.434 240.906 594.647 158.911 483.467C119.344 429.819 105.688 368.37 120.457 310.437C135.309 252.174 177.082 204.433 238.084 176.003C318.417 138.562 416.423 142.52 498.104 179.27ZM274.852 577.097C356.986 614.05 455.532 618.03 536.311 580.384C597.781 551.734 639.885 503.595 654.865 444.829C669.762 386.392 656.007 324.434 616.134 270.369C533.685 158.575 363.77 115.551 237.366 174.463C175.895 203.112 133.79 251.254 118.809 310.017C103.914 368.454 117.671 430.41 157.542 484.477C187.304 524.832 228.459 556.224 274.852 577.097Z" fill="url(#paint37_linear_347_6)" fill-opacity="0.6"/>
<path d="M490.992 162.114C547.439 187.51 595.58 230.638 623.86 287.096C653.465 346.199 657.161 411.16 634.267 470.009C610.902 530.072 562.826 576.579 498.904 600.965C368.182 650.827 211.586 591.067 149.818 467.748C120.216 408.646 116.52 343.685 139.414 284.836C162.779 224.773 210.851 178.267 274.778 153.88C345.649 126.847 424.143 132.037 490.992 162.114ZM281.991 594.266C349.257 624.53 428.199 629.753 499.51 602.55C563.888 577.992 612.309 531.139 635.849 470.626C658.918 411.323 655.198 345.875 625.377 286.336C563.231 162.258 405.682 102.129 274.171 152.295C209.793 176.854 161.372 223.706 137.832 284.219C114.76 343.521 118.481 408.973 148.301 468.508C176.75 525.306 225.207 568.718 281.991 594.266Z" fill="url(#paint38_linear_347_6)"/>
<path d="M490.992 162.114C547.439 187.51 595.58 230.638 623.86 287.096C653.465 346.199 657.161 411.16 634.267 470.009C610.902 530.072 562.826 576.579 498.904 600.965C368.182 650.827 211.586 591.067 149.818 467.748C120.216 408.646 116.52 343.685 139.414 284.836C162.779 224.773 210.851 178.267 274.778 153.88C345.649 126.847 424.143 132.037 490.992 162.114ZM281.991 594.266C349.257 624.53 428.199 629.753 499.51 602.55C563.888 577.992 612.309 531.139 635.849 470.626C658.918 411.323 655.198 345.875 625.377 286.336C563.231 162.258 405.682 102.129 274.171 152.295C209.793 176.854 161.372 223.706 137.832 284.219C114.76 343.521 118.481 408.973 148.301 468.508C176.75 525.306 225.207 568.718 281.991 594.266Z" fill="url(#paint39_linear_347_6)" fill-opacity="0.6"/>
<path d="M490.893 145.748C555.776 174.941 608.149 230.985 630.179 304.314C670.492 438.493 594.125 580.45 459.948 620.76C399.103 639.041 336.633 633.32 282.79 609.099C217.904 579.913 165.534 523.862 143.504 450.533C103.191 316.355 179.554 174.399 313.732 134.086C374.58 115.806 437.051 121.524 490.893 145.748ZM282.093 610.648C336.301 635.037 399.176 640.792 460.439 622.388C595.511 581.807 672.383 438.899 631.806 303.826C591.222 168.753 448.315 91.8776 313.244 132.459C178.171 173.043 101.294 315.946 141.877 451.022C164.053 524.833 216.781 581.263 282.093 610.648Z" fill="url(#paint40_linear_347_6)"/>
<path d="M490.893 145.748C555.776 174.941 608.149 230.985 630.179 304.314C670.492 438.493 594.125 580.45 459.948 620.76C399.103 639.041 336.633 633.32 282.79 609.099C217.904 579.913 165.534 523.862 143.504 450.533C103.191 316.355 179.554 174.399 313.732 134.086C374.58 115.806 437.051 121.524 490.893 145.748ZM282.093 610.648C336.301 635.037 399.176 640.792 460.439 622.388C595.511 581.807 672.383 438.899 631.806 303.826C591.222 168.753 448.315 91.8776 313.244 132.459C178.171 173.043 101.294 315.946 141.877 451.022C164.053 524.833 216.781 581.263 282.093 610.648Z" fill="url(#paint41_linear_347_6)" fill-opacity="0.6"/>
</g>
<defs>
<linearGradient id="paint0_linear_347_6" x1="181.198" y1="576.537" x2="735.862" y2="291.886" gradientUnits="userSpaceOnUse">
<stop stop-color="#EBBD84"/>
<stop offset="1" stop-color="#3353A8"/>
</linearGradient>
<linearGradient id="paint1_linear_347_6" x1="357.999" y1="434.114" x2="469.747" y2="135.46" gradientUnits="userSpaceOnUse">
<stop stop-color="#1B1B1B" stop-opacity="0.1"/>
<stop offset="1" stop-color="#1B1B1B"/>
</linearGradient>
<linearGradient id="paint2_linear_347_6" x1="174.159" y1="578.261" x2="740.689" y2="274.915" gradientUnits="userSpaceOnUse">
<stop stop-color="#EBBD84"/>
<stop offset="1" stop-color="#3353A8"/>
</linearGradient>
<linearGradient id="paint3_linear_347_6" x1="357.412" y1="435.018" x2="471.743" y2="131.572" gradientUnits="userSpaceOnUse">
<stop stop-color="#1B1B1B" stop-opacity="0.1"/>
<stop offset="1" stop-color="#1B1B1B"/>
</linearGradient>
<linearGradient id="paint4_linear_347_6" x1="166.781" y1="577.731" x2="741.452" y2="251.654" gradientUnits="userSpaceOnUse">
<stop stop-color="#EBBD84"/>
<stop offset="1" stop-color="#3353A8"/>
</linearGradient>
<linearGradient id="paint5_linear_347_6" x1="356.984" y1="435.491" x2="473.362" y2="129.489" gradientUnits="userSpaceOnUse">
<stop stop-color="#1B1B1B" stop-opacity="0.1"/>
<stop offset="1" stop-color="#1B1B1B"/>
</linearGradient>
<linearGradient id="paint6_linear_347_6" x1="159.643" y1="575.147" x2="737.549" y2="225.296" gradientUnits="userSpaceOnUse">
<stop stop-color="#EBBD84"/>
<stop offset="1" stop-color="#3353A8"/>
</linearGradient>
<linearGradient id="paint7_linear_347_6" x1="356.733" y1="435.526" x2="474.433" y2="129.223" gradientUnits="userSpaceOnUse">
<stop stop-color="#1B1B1B" stop-opacity="0.1"/>
<stop offset="1" stop-color="#1B1B1B"/>
</linearGradient>
<linearGradient id="paint8_linear_347_6" x1="153.078" y1="570.794" x2="728.998" y2="198.282" gradientUnits="userSpaceOnUse">
<stop stop-color="#EBBD84"/>
<stop offset="1" stop-color="#3353A8"/>
</linearGradient>
<linearGradient id="paint9_linear_347_6" x1="356.647" y1="435.156" x2="474.881" y2="130.639" gradientUnits="userSpaceOnUse">
<stop stop-color="#1B1B1B" stop-opacity="0.1"/>
<stop offset="1" stop-color="#1B1B1B"/>
</linearGradient>
<linearGradient id="paint10_linear_347_6" x1="147.221" y1="564.576" x2="715.442" y2="171.404" gradientUnits="userSpaceOnUse">
<stop stop-color="#EBBD84"/>
<stop offset="1" stop-color="#3353A8"/>
</linearGradient>
<linearGradient id="paint11_linear_347_6" x1="356.761" y1="434.351" x2="474.652" y2="133.845" gradientUnits="userSpaceOnUse">
<stop stop-color="#1B1B1B" stop-opacity="0.1"/>
<stop offset="1" stop-color="#1B1B1B"/>
</linearGradient>
<linearGradient id="paint12_linear_347_6" x1="142.328" y1="556.874" x2="697.656" y2="146.639" gradientUnits="userSpaceOnUse">
<stop stop-color="#EBBD84"/>
<stop offset="1" stop-color="#3353A8"/>
</linearGradient>
<linearGradient id="paint13_linear_347_6" x1="357.049" y1="433.169" x2="473.749" y2="138.614" gradientUnits="userSpaceOnUse">
<stop stop-color="#1B1B1B" stop-opacity="0.1"/>
<stop offset="1" stop-color="#1B1B1B"/>
</linearGradient>
<linearGradient id="paint14_linear_347_6" x1="138.571" y1="547.943" x2="676.447" y2="125.05" gradientUnits="userSpaceOnUse">
<stop stop-color="#EBBD84"/>
<stop offset="1" stop-color="#3353A8"/>
</linearGradient>
<linearGradient id="paint15_linear_347_6" x1="357.515" y1="431.646" x2="472.217" y2="144.775" gradientUnits="userSpaceOnUse">
<stop stop-color="#1B1B1B" stop-opacity="0.1"/>
<stop offset="1" stop-color="#1B1B1B"/>
</linearGradient>
<linearGradient id="paint16_linear_347_6" x1="135.977" y1="538.207" x2="653.018" y2="107.352" gradientUnits="userSpaceOnUse">
<stop stop-color="#EBBD84"/>
<stop offset="1" stop-color="#3353A8"/>
</linearGradient>
<linearGradient id="paint17_linear_347_6" x1="358.116" y1="429.871" x2="470.152" y2="152.002" gradientUnits="userSpaceOnUse">
<stop stop-color="#1B1B1B" stop-opacity="0.1"/>
<stop offset="1" stop-color="#1B1B1B"/>
</linearGradient>
<linearGradient id="paint18_linear_347_6" x1="134.547" y1="528.084" x2="628.657" y2="93.8314" gradientUnits="userSpaceOnUse">
<stop stop-color="#EBBD84"/>
<stop offset="1" stop-color="#3353A8"/>
</linearGradient>
<linearGradient id="paint19_linear_347_6" x1="358.821" y1="427.921" x2="467.685" y2="159.932" gradientUnits="userSpaceOnUse">
<stop stop-color="#1B1B1B" stop-opacity="0.1"/>
<stop offset="1" stop-color="#1B1B1B"/>
</linearGradient>
<linearGradient id="paint20_linear_347_6" x1="134.294" y1="517.863" x2="604.292" y2="84.4078" gradientUnits="userSpaceOnUse">
<stop stop-color="#EBBD84"/>
<stop offset="1" stop-color="#3353A8"/>
</linearGradient>
<linearGradient id="paint21_linear_347_6" x1="359.606" y1="425.861" x2="464.912" y2="168.347" gradientUnits="userSpaceOnUse">
<stop stop-color="#1B1B1B" stop-opacity="0.1"/>
<stop offset="1" stop-color="#1B1B1B"/>
</linearGradient>
<linearGradient id="paint22_linear_347_6" x1="134.833" y1="508.675" x2="582.636" y2="78.7739" gradientUnits="userSpaceOnUse">
<stop stop-color="#EBBD84"/>
<stop offset="1" stop-color="#3353A8"/>
</linearGradient>
<linearGradient id="paint23_linear_347_6" x1="360.362" y1="423.95" x2="462.237" y2="176.173" gradientUnits="userSpaceOnUse">
<stop stop-color="#1B1B1B" stop-opacity="0.1"/>
<stop offset="1" stop-color="#1B1B1B"/>
</linearGradient>
<linearGradient id="paint24_linear_347_6" x1="136.267" y1="500.452" x2="563.698" y2="76.2934" gradientUnits="userSpaceOnUse">
<stop stop-color="#EBBD84"/>
<stop offset="1" stop-color="#3353A8"/>
</linearGradient>
<linearGradient id="paint25_linear_347_6" x1="361.104" y1="422.163" x2="459.661" y2="183.507" gradientUnits="userSpaceOnUse">
<stop stop-color="#1B1B1B" stop-opacity="0.1"/>
<stop offset="1" stop-color="#1B1B1B"/>
</linearGradient>
<linearGradient id="paint26_linear_347_6" x1="138.115" y1="494.37" x2="550.073" y2="76.1946" gradientUnits="userSpaceOnUse">
<stop stop-color="#EBBD84"/>
<stop offset="1" stop-color="#3353A8"/>
</linearGradient>
<linearGradient id="paint27_linear_347_6" x1="361.699" y1="420.781" x2="457.611" y2="189.219" gradientUnits="userSpaceOnUse">
<stop stop-color="#1B1B1B" stop-opacity="0.1"/>
<stop offset="1" stop-color="#1B1B1B"/>
</linearGradient>
<linearGradient id="paint28_linear_347_6" x1="140.175" y1="491.262" x2="543.637" y2="77.8648" gradientUnits="userSpaceOnUse">
<stop stop-color="#EBBD84"/>
<stop offset="1" stop-color="#3353A8"/>
</linearGradient>
<linearGradient id="paint29_linear_347_6" x1="362.074" y1="419.987" x2="456.394" y2="192.547" gradientUnits="userSpaceOnUse">
<stop stop-color="#1B1B1B" stop-opacity="0.1"/>
<stop offset="1" stop-color="#1B1B1B"/>
</linearGradient>
<linearGradient id="paint30_linear_347_6" x1="142.028" y1="491.366" x2="544.741" y2="80.4733" gradientUnits="userSpaceOnUse">
<stop stop-color="#EBBD84"/>
<stop offset="1" stop-color="#3353A8"/>
</linearGradient>
<linearGradient id="paint31_linear_347_6" x1="362.186" y1="419.862" x2="456.157" y2="193.141" gradientUnits="userSpaceOnUse">
<stop stop-color="#1B1B1B" stop-opacity="0.1"/>
<stop offset="1" stop-color="#1B1B1B"/>
</linearGradient>
<linearGradient id="paint32_linear_347_6" x1="143.506" y1="495.18" x2="554.495" y2="84.1695" gradientUnits="userSpaceOnUse">
<stop stop-color="#EBBD84"/>
<stop offset="1" stop-color="#3353A8"/>
</linearGradient>
<linearGradient id="paint33_linear_347_6" x1="361.983" y1="420.521" x2="457.058" y2="190.531" gradientUnits="userSpaceOnUse">
<stop stop-color="#1B1B1B" stop-opacity="0.1"/>
<stop offset="1" stop-color="#1B1B1B"/>
</linearGradient>
<linearGradient id="paint34_linear_347_6" x1="144.514" y1="502.658" x2="572.788" y2="89.6445" gradientUnits="userSpaceOnUse">
<stop stop-color="#EBBD84"/>
<stop offset="1" stop-color="#3353A8"/>
</linearGradient>
<linearGradient id="paint35_linear_347_6" x1="361.458" y1="421.965" x2="459.064" y2="184.713" gradientUnits="userSpaceOnUse">
<stop stop-color="#1B1B1B" stop-opacity="0.1"/>
<stop offset="1" stop-color="#1B1B1B"/>
</linearGradient>
<linearGradient id="paint36_linear_347_6" x1="145.01" y1="513.496" x2="598.852" y2="98.1166" gradientUnits="userSpaceOnUse">
<stop stop-color="#EBBD84"/>
<stop offset="1" stop-color="#3353A8"/>
</linearGradient>
<linearGradient id="paint37_linear_347_6" x1="360.636" y1="424.13" x2="462.042" y2="175.897" gradientUnits="userSpaceOnUse">
<stop stop-color="#1B1B1B" stop-opacity="0.1"/>
<stop offset="1" stop-color="#1B1B1B"/>
</linearGradient>
<linearGradient id="paint38_linear_347_6" x1="144.977" y1="527.149" x2="631.121" y2="111.016" gradientUnits="userSpaceOnUse">
<stop stop-color="#EBBD84"/>
<stop offset="1" stop-color="#3353A8"/>
</linearGradient>
<linearGradient id="paint39_linear_347_6" x1="359.564" y1="426.911" x2="465.767" y2="164.506" gradientUnits="userSpaceOnUse">
<stop stop-color="#1B1B1B" stop-opacity="0.1"/>
<stop offset="1" stop-color="#1B1B1B"/>
</linearGradient>
<linearGradient id="paint40_linear_347_6" x1="144.432" y1="542.902" x2="667.305" y2="129.567" gradientUnits="userSpaceOnUse">
<stop stop-color="#EBBD84"/>
<stop offset="1" stop-color="#3353A8"/>
</linearGradient>
<linearGradient id="paint41_linear_347_6" x1="358.29" y1="430.16" x2="469.948" y2="151.121" gradientUnits="userSpaceOnUse">
<stop stop-color="#1B1B1B" stop-opacity="0.1"/>
<stop offset="1" stop-color="#1B1B1B"/>
</linearGradient>
</defs>
</svg>
