<svg width="375" height="699" viewBox="0 0 375 699" fill="none" xmlns="http://www.w3.org/2000/svg">
<path d="M130.711 496.34C41.515 473.266 -79.8544 388.235 -139.834 306.791C-170.184 265.591 -180.244 231.102 -167.438 212.165C-156.095 195.394 -127.789 191.861 -87.7311 202.225C1.46116 225.3 122.831 310.331 182.814 391.775C213.16 432.975 223.223 467.464 210.417 486.397C199.075 503.171 170.772 506.703 130.711 496.34ZM-142.498 195.773C-154.592 197.981 -163.593 203.112 -168.999 211.11C-182.28 230.747 -172.202 266.028 -141.355 307.91C-81.1505 389.647 40.6836 474.997 130.238 498.166C171.13 508.743 200.157 504.938 211.979 487.455C225.256 467.819 215.182 432.536 184.334 390.655C124.13 308.914 2.29602 223.568 -87.2583 200.399C-109.447 194.661 -128.148 193.154 -142.498 195.773Z" fill="url(#paint0_linear_347_432)"/>
<path d="M194.281 501.791C181.305 504.159 164.885 503.511 145.599 499.736C54.2453 481.845 -75.5723 399.502 -143.789 316.174C-179.538 272.504 -192.739 235.248 -180.006 213.96C-169.549 196.476 -142.062 191.103 -102.613 198.826C-11.2589 216.717 118.559 299.06 186.775 382.384C222.525 426.058 235.725 463.315 222.993 484.602C217.646 493.54 207.851 499.314 194.281 501.791ZM-151.619 194.936C-165.758 197.516 -175.997 203.582 -181.621 212.992C-194.792 235.001 -181.531 273.046 -145.248 317.37C-76.7939 400.985 53.5174 483.626 145.236 501.585C185.521 509.474 213.714 503.788 224.607 485.57C237.778 463.557 224.517 425.517 188.235 381.192C119.78 297.577 -10.5275 214.935 -102.25 196.977C-121.731 193.162 -138.386 192.52 -151.619 194.936Z" fill="url(#paint1_linear_347_432)"/>
<path d="M202.585 502.171C191.014 504.283 176.97 504.337 160.795 502.228C67.82 490.119 -70.1496 411.352 -146.77 326.641C-188.305 280.712 -204.955 240.669 -192.439 216.778C-182.899 198.568 -156.395 191.306 -117.809 196.332C-24.8337 208.445 113.136 287.212 189.756 371.922C231.291 417.851 247.941 457.894 235.426 481.785C229.888 492.363 218.614 499.245 202.585 502.171ZM-159.91 194.547C-176.558 197.585 -188.294 204.796 -194.11 215.903C-207.013 240.533 -190.267 281.358 -148.166 327.906C-71.2903 412.9 67.1972 491.938 160.552 504.098C199.982 509.236 227.166 501.62 237.096 482.66C249.998 458.027 233.253 417.206 191.151 370.654C114.276 285.664 -24.2118 206.621 -117.565 194.465C-133.9 192.337 -148.136 192.398 -159.91 194.547Z" fill="url(#paint2_linear_347_432)"/>
<path d="M210.28 502.219C200.536 503.997 189.143 504.511 176.207 503.721C82.2114 497.992 -63.5251 423.736 -148.662 338.198C-196.34 290.297 -216.747 247.476 -204.654 220.711C-195.957 201.463 -171.259 192.519 -133.221 194.842C-39.2286 200.572 106.508 274.828 191.644 360.365C239.323 408.266 259.729 451.088 247.641 477.852C241.902 490.551 229.194 498.767 210.28 502.219ZM-167.617 194.494C-187.185 198.065 -200.367 206.643 -206.372 219.935C-218.806 247.452 -198.255 291.042 -149.998 339.528C-64.5821 425.345 81.7044 499.849 176.09 505.605C214.98 507.976 240.311 498.647 249.358 478.628C261.792 451.111 241.242 407.521 192.984 359.035C107.564 273.215 -38.7181 198.714 -133.104 192.958C-146.175 192.159 -157.715 192.686 -167.617 194.494Z" fill="url(#paint3_linear_347_432)"/>
<path d="M216.252 501.915C208.894 503.258 200.711 503.997 191.732 504.114C97.3785 505.359 -55.636 436.603 -149.359 350.847C-202.669 302.071 -227.785 255.345 -216.554 225.854C-208.91 205.79 -185.466 194.929 -148.746 194.443C-54.3888 193.201 98.6221 261.957 192.345 347.714C245.655 396.49 270.771 443.215 259.54 472.706C253.763 487.866 238.971 497.769 216.252 501.915ZM-173.586 194.79C-197.005 199.064 -212.293 209.371 -218.314 225.181C-230.005 255.874 -205.335 302.184 -150.634 352.238C-56.6057 438.273 96.9907 507.253 191.757 506.001C229.309 505.505 253.363 494.223 261.3 473.379C272.991 442.686 248.32 396.373 193.62 346.323C99.5918 260.288 -54.0039 191.311 -148.77 192.559C-157.844 192.68 -166.126 193.429 -173.586 194.79Z" fill="url(#paint4_linear_347_432)"/>
<path d="M207.251 503.312C113.256 512.131 -46.4471 449.897 -148.76 364.582C-208.604 314.679 -238.243 265.235 -228.031 232.322C-221.532 211.374 -199.486 198.549 -164.267 195.247C-70.2754 186.432 89.4309 248.666 191.743 333.98C251.587 383.884 281.226 433.328 271.015 466.241C264.517 487.193 242.469 500.011 207.251 503.312ZM-177.827 195.191C-206.099 200.351 -223.97 212.857 -229.832 231.765C-240.273 265.428 -210.417 315.623 -149.966 366.03C-47.3233 451.621 113.003 514.047 207.426 505.19C243.466 501.815 266.076 488.535 272.816 466.798C283.257 433.131 253.401 382.939 192.95 332.533C90.3069 246.941 -70.0189 184.516 -164.447 193.37C-169.137 193.812 -173.6 194.42 -177.827 195.191Z" fill="url(#paint5_linear_347_432)"/>
<path d="M222.604 501.225C129.744 518.173 -35.925 463.53 -146.741 379.39C-213.241 328.901 -247.718 276.883 -238.974 240.247C-233.74 218.317 -213.232 203.483 -179.665 197.345C-179.651 197.343 -179.629 197.339 -179.615 197.336C-86.7569 180.381 78.9137 235.031 189.729 319.171C256.226 369.661 290.707 421.678 281.963 458.314C276.729 480.244 256.221 495.078 222.653 501.216C222.639 501.218 222.618 501.222 222.604 501.225ZM-179.957 195.482C-179.975 195.485 -179.986 195.487 -180.003 195.49C-214.362 201.772 -235.389 217.097 -240.811 239.809C-249.735 277.193 -214.995 329.936 -147.883 380.891C-36.7088 465.303 129.63 520.111 222.943 503.08C222.96 503.077 222.974 503.074 222.992 503.071C257.347 496.79 278.378 481.464 283.8 458.752C292.723 421.364 257.984 368.625 190.872 317.67C79.6977 233.258 -86.6438 178.455 -179.957 195.482Z" fill="url(#paint6_linear_347_432)"/>
<path d="M222.438 501.268C128.658 518.384 -30.4212 473.035 -143.208 395.245C-216.339 344.808 -255.977 290.432 -249.249 249.793C-245.437 226.757 -226.608 209.829 -194.803 200.833C-103.94 175.133 66.9939 221.103 186.198 303.32C259.329 353.754 298.967 408.129 292.239 448.772C288.427 471.808 269.598 488.736 237.793 497.732C232.901 499.115 227.772 500.295 222.438 501.268ZM-179.856 195.458C-185.229 196.439 -190.386 197.623 -195.316 199.017C-227.873 208.226 -247.17 225.676 -251.11 249.483C-257.961 290.863 -218.025 345.936 -144.279 396.795C-24.6756 479.291 146.954 525.374 238.306 499.548C270.863 490.339 290.159 472.886 294.1 449.082C300.95 407.698 261.015 352.629 187.269 301.766C74.113 223.724 -85.6044 178.26 -179.856 195.458Z" fill="url(#paint7_linear_347_432)"/>
<path d="M219.717 501.912C125.712 519.069 -25.012 482.637 -138.056 412.109C-217.629 362.462 -262.727 306.026 -258.689 261.147C-256.505 236.851 -239.507 217.708 -209.538 205.794C-199.647 201.861 -188.637 198.827 -176.726 196.65C-82.7217 179.489 68.0029 215.925 181.047 286.453C260.62 336.1 305.717 392.532 301.68 437.415C299.493 461.715 282.498 480.854 252.529 492.765C242.634 496.698 231.625 499.739 219.717 501.912ZM-177.182 194.83C-189.184 197.021 -200.259 200.077 -210.235 204.044C-240.912 216.236 -258.315 235.925 -260.568 260.978C-264.67 306.58 -219.245 363.676 -139.057 413.707C-11.2467 493.446 164.736 529.697 253.226 494.518C283.899 482.327 301.306 462.637 303.555 437.585C307.66 391.978 262.235 334.883 182.044 284.855C68.6472 214.104 -82.6868 177.591 -177.182 194.83Z" fill="url(#paint8_linear_347_432)"/>
<path d="M214.049 503.515C120.831 520.529 -19.8529 492.38 -131.189 429.937C-216.833 381.904 -267.634 323.815 -267.087 274.551C-266.801 248.782 -251.808 227.268 -223.732 212.326C-139.535 167.532 38.9613 192.788 174.174 268.624C259.817 316.657 310.619 374.746 310.072 424.01C309.786 449.775 294.793 471.293 266.717 486.231C251.848 494.144 234.038 499.867 214.049 503.515ZM-171.528 193.238C-191.679 196.916 -209.626 202.686 -224.617 210.661C-253.342 225.947 -268.681 248.033 -268.975 274.532C-269.528 324.494 -218.364 383.203 -132.113 431.58C3.59747 507.695 182.912 532.958 267.602 487.896C296.327 472.614 311.663 450.529 311.96 424.029C312.513 374.067 261.348 315.358 175.097 266.978C63.409 204.338 -77.8244 176.14 -171.528 193.238Z" fill="url(#paint9_linear_347_432)"/>
<path d="M205.123 506.497C114.066 523.116 -14.9944 502.394 -122.502 448.674C-213.614 403.142 -270.317 343.933 -274.164 290.287C-276.14 262.792 -263.363 238.665 -237.209 220.513C-157.835 165.42 22.8171 178.599 165.485 249.889C256.598 295.422 313.3 354.631 317.148 408.277C319.123 435.771 306.346 459.899 280.192 478.051C260.628 491.628 234.905 501.061 205.123 506.497ZM-162.579 190.274C-192.614 195.756 -218.548 205.267 -238.286 218.967C-265.017 237.519 -278.069 262.226 -276.049 290.424C-272.148 344.739 -215.061 404.527 -123.341 450.36C19.8749 521.928 201.383 535.041 281.266 479.598C307.997 461.046 321.053 436.338 319.033 408.14C315.132 353.824 258.044 294.036 166.325 248.204C58.4899 194.319 -71.0547 173.57 -162.579 190.274Z" fill="url(#paint10_linear_347_432)"/>
<path d="M192.839 511.277C105.664 527.188 -10.4568 512.847 -111.907 468.246C-207.672 426.144 -270.349 366.487 -279.567 308.662C-284.277 279.136 -273.986 252.085 -249.811 230.431C-176.297 164.582 5.25631 164.534 154.893 230.319C250.658 272.421 313.335 332.079 322.553 389.904C327.262 419.426 316.973 446.48 292.793 468.131C269.125 489.338 234.244 503.72 192.839 511.277ZM-150.238 185.496C-192.002 193.118 -227.175 207.627 -251.07 229.027C-275.744 251.128 -286.243 278.768 -281.43 308.958C-272.111 367.418 -209.02 427.61 -112.667 469.972C37.5826 536.03 220.038 535.835 294.056 469.538C318.73 447.437 329.229 419.797 324.416 389.607C315.096 331.144 252.002 270.952 155.653 228.594C53.9059 183.858 -62.6312 169.506 -150.238 185.496Z" fill="url(#paint11_linear_347_432)"/>
<path d="M177.454 518.256C96.0981 533.105 -6.08733 524.002 -99.3355 488.571C-198.693 450.821 -267.292 391.539 -282.839 329.989C-290.896 298.097 -283.474 267.726 -261.368 242.154C-194.8 165.138 -13.7072 150.712 142.312 209.991C241.667 247.746 310.269 307.027 325.815 368.573C333.873 400.469 326.447 430.841 304.345 456.412C277.56 487.398 232.225 508.26 177.454 518.256ZM-134.798 178.512C-190.029 188.593 -235.762 209.64 -262.795 240.918C-285.32 266.977 -292.882 297.937 -284.671 330.455C-268.969 392.597 -199.939 452.366 -100.005 490.334C56.6972 549.874 238.727 535.212 305.772 457.647C328.297 431.589 335.859 400.629 327.641 368.112C311.946 305.969 242.91 246.201 142.982 208.232C49.4687 172.701 -53.0656 163.595 -134.798 178.512Z" fill="url(#paint12_linear_347_432)"/>
<path d="M159.746 527.736C86.1554 541.167 -1.57052 536.153 -84.6966 509.553C-186.396 477.015 -260.678 419.076 -283.403 354.563C-295.589 319.961 -291.54 285.79 -271.689 255.743C-213.197 167.202 -34.038 137.267 127.682 189.011C229.381 221.548 303.664 279.487 326.389 344C338.575 378.602 334.526 412.773 314.674 442.821C286.249 485.845 229.317 515.039 159.746 527.736ZM-117.016 169.011C-187.152 181.812 -244.57 211.269 -273.262 254.704C-293.452 285.26 -297.574 320.007 -285.18 355.192C-262.261 420.255 -187.531 478.631 -85.2726 511.35C77.1959 563.334 257.32 533.056 316.247 443.859C336.438 413.303 340.56 378.556 328.166 343.371C305.246 278.309 230.517 219.932 128.258 187.213C44.9016 160.543 -43.1193 155.524 -117.016 169.011Z" fill="url(#paint13_linear_347_432)"/>
<path d="M140.953 539.889C76.7998 551.597 3.60107 549.61 -67.9463 531.088C-170.606 504.506 -250.11 448.994 -280.613 382.586C-297.89 344.977 -297.886 306.483 -280.601 271.269C-231.338 170.896 -55.7023 124.339 110.932 167.478C213.591 194.057 293.096 249.572 323.598 315.977C340.871 353.587 340.867 392.08 323.586 427.297C295.478 484.572 226.205 524.329 140.953 539.889ZM-98.1927 156.845C-184.099 172.52 -253.927 212.637 -282.295 270.438C-299.837 306.178 -299.847 345.232 -282.324 383.373C-251.591 450.292 -171.624 506.191 -68.4199 532.91C99.0345 576.265 275.644 529.259 325.274 428.129C342.818 392.385 342.829 353.335 325.31 315.193C294.573 248.275 214.609 192.371 111.405 165.652C39.6551 147.077 -33.7897 145.094 -98.1927 156.845Z" fill="url(#paint14_linear_347_432)"/>
<path d="M122.616 554.716C69.0601 564.491 10.0296 564.619 -49.0275 553.043C-151.207 533.01 -235.225 481.074 -273.772 414.115C-297.249 373.328 -302.136 329.984 -287.896 288.768C-249.062 176.331 -78.6355 112.074 92.0104 145.524C194.189 165.553 278.207 217.489 316.755 284.452C340.233 325.239 345.119 368.584 330.882 409.799C305.489 483.323 223.82 536.245 122.616 554.716ZM-79.8648 142.002C-181.783 160.6 -264.061 213.986 -289.678 288.153C-304.101 329.899 -299.16 373.783 -275.405 415.056C-236.591 482.482 -152.097 534.76 -49.3872 554.892C122.148 588.517 293.539 523.702 332.665 410.413C347.088 368.667 342.146 324.784 318.391 283.51C279.577 216.081 195.083 163.807 92.3737 143.675C33.1358 132.063 -26.1047 132.194 -79.8648 142.002Z" fill="url(#paint15_linear_347_432)"/>
<path d="M106.264 572.121C63.8543 579.861 18.3477 581.319 -27.8948 575.283C-128.182 562.199 -215.772 514.996 -262.194 449.013C-293.103 405.088 -303.887 356.426 -293.384 308.282C-273.426 216.812 -180.132 147.775 -63.2744 126.443C-20.8607 118.703 24.6423 117.245 70.8842 123.278C171.172 136.365 258.762 183.568 305.184 249.551C336.093 293.477 346.873 342.14 336.37 390.283C316.415 481.749 223.119 550.794 106.264 572.121ZM-63.5401 124.59C-181.168 146.054 -275.103 215.659 -295.225 307.881C-305.843 356.55 -294.957 405.731 -263.735 450.101C-217.014 516.508 -128.941 564.004 -28.1414 577.155C146.461 599.937 310.809 516.284 338.215 390.683C348.833 342.014 337.947 292.833 306.725 248.464C260.005 182.06 171.932 134.56 71.128 121.411C24.7296 115.356 -20.9606 116.822 -63.5401 124.59Z" fill="url(#paint16_linear_347_432)"/>
<path d="M93.0992 591.924C61.8731 597.623 29.0635 599.719 -4.53988 597.665C-103.075 591.632 -190.836 551.275 -245.322 486.941C-284.901 440.209 -302.721 385.881 -296.859 329.835C-285.269 219.07 -182.02 130.719 -50.1136 106.637C-18.8916 100.935 13.9186 98.8429 47.5255 100.897C146.061 106.93 233.822 147.287 288.308 211.62C327.884 258.353 345.707 312.68 339.844 368.727C328.251 479.492 225.007 567.849 93.0992 591.924ZM-50.4129 104.779C-183.16 129.006 -287.051 218.023 -298.732 329.636C-304.651 386.208 -286.681 441.024 -246.763 488.159C-191.944 552.882 -103.7 593.481 -4.65426 599.545C171.902 610.353 327.28 506.896 341.718 368.926C347.637 312.354 329.666 257.538 289.748 210.402C234.933 145.679 146.685 105.081 47.6392 99.0133C13.9106 96.9492 -19.0638 99.057 -50.4129 104.779Z" fill="url(#paint17_linear_347_432)"/>
<path d="M83.9284 613.943C63.5877 617.655 42.5718 619.737 21.0602 620.018C-73.0803 621.235 -161.951 587.449 -222.759 527.327C-271.446 479.192 -298.206 417.434 -298.109 353.432C-297.901 222.365 -187.211 111.318 -40.9408 84.6186C-20.6036 80.9068 0.412953 78.8282 21.9287 78.5502C116.069 77.3293 204.935 111.113 265.751 171.237C314.434 219.372 341.195 281.13 341.094 345.133C340.889 476.2 230.2 587.246 83.9284 613.943ZM-41.2682 82.7649C-188.437 109.614 -299.788 221.435 -299.991 353.427C-300.093 417.942 -273.136 480.176 -224.087 528.669C-162.92 589.143 -73.5592 623.127 21.0844 621.901C198.347 619.611 342.747 495.452 342.979 345.134C343.081 280.623 316.125 218.389 267.078 169.895C205.908 109.421 116.544 75.4381 21.9038 76.6631C0.2976 76.9431 -20.8397 79.0365 -41.2682 82.7649Z" fill="url(#paint18_linear_347_432)"/>
<path d="M79.4853 637.947C69.4186 639.784 59.212 641.193 48.8847 642.159C-126.695 658.581 -281.829 540.559 -296.933 379.065C-311.153 227.006 -196.218 89.7908 -36.1705 60.5731C-26.2415 58.7573 -16.1549 57.3665 -5.89914 56.406C79.1691 48.4502 161.993 71.4456 227.316 121.151C292.611 170.844 332.603 241.286 339.918 319.501C347.233 397.715 321.003 474.351 266.048 535.287C217.75 588.847 152.352 624.648 79.4853 637.947ZM-36.5091 58.7178C-197.533 88.092 -313.126 226.186 -298.81 379.24C-283.612 541.77 -127.555 660.554 49.0604 644.037C134.603 636.034 212.159 597.862 267.452 536.552C322.758 475.217 349.157 398.072 341.796 319.325C334.431 240.579 294.179 169.669 228.454 119.651C162.755 69.6545 79.4649 46.5301 -6.07483 54.5284C-16.3699 55.4924 -26.5408 56.8984 -36.5091 58.7178Z" fill="url(#paint19_linear_347_432)"/>
<g filter="url(#filter0_f_347_432)">
<path fill-rule="evenodd" clip-rule="evenodd" d="M313.658 382.633C324.843 381.239 332.104 364.327 342.987 367.257C352.62 369.852 354.67 383.897 355.252 393.834C355.756 402.443 345.867 408.787 345.923 417.41C345.996 428.664 360.611 438.958 355.609 449.045C351.08 458.179 336.694 457.556 326.531 456.517C317.926 455.637 312.822 446.249 304.522 443.821C296.216 441.391 285.409 448.567 279.109 442.646C272.978 436.883 279.134 426.179 277.08 418.029C274.665 408.448 263.604 400.681 266.125 391.128C268.579 381.827 279.2 375.724 288.691 374.027C297.537 372.447 304.74 383.745 313.658 382.633Z" fill="#EBBD84"/>
</g>
<defs>
<filter id="filter0_f_347_432" x="95.7539" y="196.917" width="430.898" height="430.171" filterUnits="userSpaceOnUse" color-interpolation-filters="sRGB">
<feFlood flood-opacity="0" result="BackgroundImageFix"/>
<feBlend mode="normal" in="SourceGraphic" in2="BackgroundImageFix" result="shape"/>
<feGaussianBlur stdDeviation="85" result="effect1_foregroundBlur_347_432"/>
</filter>
<linearGradient id="paint0_linear_347_432" x1="223.964" y1="495.767" x2="-97.0849" y2="569.269" gradientUnits="userSpaceOnUse">
<stop stop-color="#EBBD84"/>
<stop offset="1" stop-color="#3353A8"/>
</linearGradient>
<linearGradient id="paint1_linear_347_432" x1="236.03" y1="496.064" x2="-106.727" y2="575.402" gradientUnits="userSpaceOnUse">
<stop stop-color="#EBBD84"/>
<stop offset="1" stop-color="#3353A8"/>
</linearGradient>
<linearGradient id="paint2_linear_347_432" x1="248.078" y1="495.771" x2="-116.515" y2="581.13" gradientUnits="userSpaceOnUse">
<stop stop-color="#EBBD84"/>
<stop offset="1" stop-color="#3353A8"/>
</linearGradient>
<linearGradient id="paint3_linear_347_432" x1="260.041" y1="495.046" x2="-126.331" y2="586.558" gradientUnits="userSpaceOnUse">
<stop stop-color="#EBBD84"/>
<stop offset="1" stop-color="#3353A8"/>
</linearGradient>
<linearGradient id="paint4_linear_347_432" x1="271.774" y1="493.695" x2="-136.115" y2="591.471" gradientUnits="userSpaceOnUse">
<stop stop-color="#EBBD84"/>
<stop offset="1" stop-color="#3353A8"/>
</linearGradient>
<linearGradient id="paint5_linear_347_432" x1="283.029" y1="492.016" x2="-145.576" y2="595.986" gradientUnits="userSpaceOnUse">
<stop stop-color="#EBBD84"/>
<stop offset="1" stop-color="#3353A8"/>
</linearGradient>
<linearGradient id="paint6_linear_347_432" x1="294.13" y1="490.088" x2="-154.941" y2="600.333" gradientUnits="userSpaceOnUse">
<stop stop-color="#EBBD84"/>
<stop offset="1" stop-color="#3353A8"/>
</linearGradient>
<linearGradient id="paint7_linear_347_432" x1="304.787" y1="488.15" x2="-163.92" y2="604.546" gradientUnits="userSpaceOnUse">
<stop stop-color="#EBBD84"/>
<stop offset="1" stop-color="#3353A8"/>
</linearGradient>
<linearGradient id="paint8_linear_347_432" x1="314.939" y1="486.434" x2="-172.403" y2="608.751" gradientUnits="userSpaceOnUse">
<stop stop-color="#EBBD84"/>
<stop offset="1" stop-color="#3353A8"/>
</linearGradient>
<linearGradient id="paint9_linear_347_432" x1="324.543" y1="485.239" x2="-180.283" y2="613.119" gradientUnits="userSpaceOnUse">
<stop stop-color="#EBBD84"/>
<stop offset="1" stop-color="#3353A8"/>
</linearGradient>
<linearGradient id="paint10_linear_347_432" x1="333.569" y1="484.926" x2="-187.45" y2="617.862" gradientUnits="userSpaceOnUse">
<stop stop-color="#EBBD84"/>
<stop offset="1" stop-color="#3353A8"/>
</linearGradient>
<linearGradient id="paint11_linear_347_432" x1="342.018" y1="485.912" x2="-193.807" y2="623.234" gradientUnits="userSpaceOnUse">
<stop stop-color="#EBBD84"/>
<stop offset="1" stop-color="#3353A8"/>
</linearGradient>
<linearGradient id="paint12_linear_347_432" x1="349.891" y1="488.64" x2="-199.273" y2="629.527" gradientUnits="userSpaceOnUse">
<stop stop-color="#EBBD84"/>
<stop offset="1" stop-color="#3353A8"/>
</linearGradient>
<linearGradient id="paint13_linear_347_432" x1="357.211" y1="493.558" x2="-203.708" y2="637.044" gradientUnits="userSpaceOnUse">
<stop stop-color="#EBBD84"/>
<stop offset="1" stop-color="#3353A8"/>
</linearGradient>
<linearGradient id="paint14_linear_347_432" x1="363.977" y1="501.056" x2="-207.04" y2="646.107" gradientUnits="userSpaceOnUse">
<stop stop-color="#EBBD84"/>
<stop offset="1" stop-color="#3353A8"/>
</linearGradient>
<linearGradient id="paint15_linear_347_432" x1="370.241" y1="511.411" x2="-209.183" y2="657.015" gradientUnits="userSpaceOnUse">
<stop stop-color="#EBBD84"/>
<stop offset="1" stop-color="#3353A8"/>
</linearGradient>
<linearGradient id="paint16_linear_347_432" x1="376.03" y1="524.787" x2="-210.072" y2="670.021" gradientUnits="userSpaceOnUse">
<stop stop-color="#EBBD84"/>
<stop offset="1" stop-color="#3353A8"/>
</linearGradient>
<linearGradient id="paint17_linear_347_432" x1="381.371" y1="541.223" x2="-209.675" y2="685.31" gradientUnits="userSpaceOnUse">
<stop stop-color="#EBBD84"/>
<stop offset="1" stop-color="#3353A8"/>
</linearGradient>
<linearGradient id="paint18_linear_347_432" x1="386.2" y1="560.694" x2="-207.885" y2="702.964" gradientUnits="userSpaceOnUse">
<stop stop-color="#EBBD84"/>
<stop offset="1" stop-color="#3353A8"/>
</linearGradient>
<linearGradient id="paint19_linear_347_432" x1="391" y1="583.01" x2="-205.105" y2="723.195" gradientUnits="userSpaceOnUse">
<stop stop-color="#EBBD84"/>
<stop offset="1" stop-color="#3353A8"/>
</linearGradient>
</defs>
</svg>
