<svg width="24" height="24" viewBox="0 0 24 24" fill="none" xmlns="http://www.w3.org/2000/svg">
<g clip-path="url(#clip0_378_104)">
<path d="M9 10C9.55228 10 10 9.55228 10 9C10 8.44772 9.55228 8 9 8C8.44772 8 8 8.44772 8 9C8 9.55228 8.44772 10 9 10Z" stroke="#E9ECEF" stroke-width="2" stroke-linecap="round" stroke-linejoin="round"/>
<path d="M15 16C15.5523 16 16 15.5523 16 15C16 14.4477 15.5523 14 15 14C14.4477 14 14 14.4477 14 15C14 15.5523 14.4477 16 15 16Z" stroke="#E9ECEF" stroke-width="2" stroke-linecap="round" stroke-linejoin="round"/>
<path d="M7.99992 9.00012C7.99992 10.8566 8.73742 12.6371 10.0502 13.9499C11.3629 15.2626 13.1434 16.0001 14.9999 16.0001M5.99992 21.2001C8.27813 22.6869 11.0265 23.2768 13.7141 22.8558C16.4018 22.4347 18.8381 21.0327 20.5525 18.9205C22.267 16.8082 23.1378 14.1356 22.997 11.4188C22.8562 8.702 21.7136 6.13376 19.7899 4.21012C17.8663 2.28647 15.298 1.14389 12.5812 1.00304C9.86445 0.862199 7.19183 1.73309 5.07958 3.4475C2.96733 5.16192 1.5653 7.59823 1.14428 10.2859C0.723258 12.9736 1.31311 15.7219 2.79992 18.0001L1.99992 22.0001L5.99992 21.2001Z" stroke="#E9ECEF" stroke-width="2" stroke-linecap="round" stroke-linejoin="round"/>
</g>
<defs>
<clipPath id="clip0_378_104">
<rect width="24" height="24" fill="white"/>
</clipPath>
</defs>
</svg>
